<svg width="22" height="18" viewBox="0 0 22 18" fill="none" xmlns="http://www.w3.org/2000/svg">
<path d="M12.2 8.8V10.3C12.2 10.5387 12.2948 10.7676 12.4636 10.9364C12.6324 11.1052 12.8613 11.2 13.1 11.2C13.3387 11.2 13.5676 11.1052 13.7364 10.9364C13.9052 10.7676 14 10.5387 14 10.3V10C14 9.32419 13.7718 8.66818 13.3524 8.13825C12.933 7.60832 12.347 7.23552 11.6893 7.08026C11.0315 6.92499 10.3406 6.99634 9.72853 7.28277C9.11642 7.56919 8.61895 8.0539 8.31672 8.65836C8.01449 9.26282 7.92521 9.95162 8.06333 10.6132C8.20146 11.2747 8.55891 11.8702 9.07776 12.3033C9.59661 12.7363 10.2465 12.9814 10.9221 12.999C11.5976 13.0165 12.2594 12.8055 12.8 12.4M21 4L14 8.5M8 8.5L1 4M12.2 10C12.2 10.6627 11.6627 11.2 11 11.2C10.3373 11.2 9.8 10.6627 9.8 10C9.8 9.33726 10.3373 8.8 11 8.8C11.6627 8.8 12.2 9.33726 12.2 10ZM3 1H19C20.1046 1 21 1.89543 21 3V15C21 16.1046 20.1046 17 19 17H3C1.89543 17 1 16.1046 1 15V3C1 1.89543 1.89543 1 3 1Z" stroke="#8D8D8D" stroke-linecap="round" stroke-linejoin="round"/>
</svg>
