<svg width="244" height="213" viewBox="0 0 244 213" fill="none" xmlns="http://www.w3.org/2000/svg">
<g clip-path="url(#clip0_67_5675)">
<path d="M147.748 172.715C147.748 174.186 146.548 175.398 145.091 175.398H54.7911C53.3337 175.398 52.1335 174.186 52.1335 172.715V35.3031C52.1335 33.8318 53.3337 32.6201 54.7911 32.6201H145.062C146.52 32.6201 147.72 33.8318 147.72 35.3031V172.715H147.748Z" fill="#1B1B1B"/>
<rect x="164.592" y="86.939" width="72.1893" height="115.918" fill="white"/>
<path d="M222.988 79.847H166.723V22.1474C166.723 10.0882 157.007 0.279297 145.062 0.279297H54.7911C42.8464 0.279297 33.1306 10.0882 33.1306 22.1474V191.034C33.1306 203.093 42.8464 212.902 54.7911 212.902H222.96C234.905 212.902 244.62 203.209 244.62 191.294V101.484C244.649 89.5405 234.933 79.847 222.988 79.847ZM145.091 201.362H54.7911C49.1617 201.362 44.5609 196.746 44.5609 191.034V78.1737L45.2753 77.9429C46.7613 77.4236 47.5614 75.808 47.0756 74.279C46.7041 73.1538 45.6754 72.4038 44.5895 72.3172V22.1763C44.5895 16.4929 49.1617 11.8481 54.8197 11.8481H145.091C150.72 11.8481 155.321 16.464 155.321 22.1763V85.6747C154.778 85.7324 154.206 85.9632 153.749 86.3382C152.549 87.3768 152.406 89.1943 153.435 90.406L155.292 92.5986L155.321 92.6275V191.063C155.292 196.746 150.72 201.362 145.091 201.362ZM233.219 191.294C233.219 196.862 228.646 201.362 222.988 201.362H164.179C165.808 198.275 166.751 194.785 166.751 191.034V104.571C167.408 104.571 168.066 104.34 168.58 103.879C169.78 102.84 169.923 101.023 168.894 99.8111L167.037 97.6185C166.951 97.5031 166.837 97.4165 166.723 97.3011V91.3869H222.988C228.618 91.3869 233.219 95.9163 233.219 101.455V191.294Z" fill="#FF1D53"/>
<path d="M117.23 24.5131H82.6527C81.0811 24.5131 79.7952 23.2149 79.7952 21.6281C79.7952 20.0414 81.0811 18.7432 82.6527 18.7432H117.23C118.801 18.7432 120.087 20.0414 120.087 21.6281C120.087 23.2149 118.801 24.5131 117.23 24.5131Z" fill="#3FCAB5"/>
<rect x="8.78687" y="59.9082" width="101.509" height="30.8776" rx="15.4388" fill="white" stroke="#FF1D53"/>
<path d="M24.1685 66.6533H97.8016" stroke="#FF1D53" stroke-width="3" stroke-linecap="round"/>
<path d="M24.1685 75.3467H86.2513" stroke="#FF1D53" stroke-width="3" stroke-linecap="round"/>
<path d="M24.1685 84.041H61.7069" stroke="#FF1D53" stroke-width="3" stroke-linecap="round"/>
<path d="M176.636 98.5306C176.636 105.274 171.201 110.663 164.592 110.663C157.982 110.663 152.547 105.274 152.547 98.5306C152.547 91.7876 157.982 86.3979 164.592 86.3979C171.201 86.3979 176.636 91.7876 176.636 98.5306Z" stroke="#FF1D53" stroke-width="25" stroke-linecap="round"/>
<path d="M179.03 89.8369L161.163 108.674L153.042 100.111" stroke="white" stroke-width="2" stroke-linecap="round" stroke-linejoin="round"/>
<path d="M193.467 102.877L205.018 102.877M212.237 102.877H219.456M193.467 108.673H219.456M189.136 114.469L219.456 114.469M180.473 126.061L219.456 126.061M180.473 131.857L219.456 131.857M180.473 143.449L219.456 143.449M180.473 172.428L219.456 172.428M180.473 189.816L219.456 189.816M180.473 149.245L207.905 149.245M213.68 149.245H219.456M180.473 137.653H186.249M192.024 137.653H200.686M206.462 137.653H219.456M180.473 155.041H186.249M192.024 155.041H200.686M206.462 155.041H219.456M183.361 120.265L200.686 120.265M205.018 120.265L219.456 120.265M180.473 178.224H200.686M180.473 184.02H192.024M197.799 184.02H206.462M210.793 184.02H219.456M205.018 178.224H219.456" stroke="#1B1B1B" stroke-width="2" stroke-linecap="round"/>
</g>
<defs>
<clipPath id="clip0_67_5675">
<rect width="244" height="213" fill="white"/>
</clipPath>
</defs>
</svg>
