<svg width="314" height="216" viewBox="0 0 314 216" fill="none" xmlns="http://www.w3.org/2000/svg">
<g clip-path="url(#clip0_61_3987)">
<path d="M183.077 200.434H81.4495C78.0755 200.434 75.3323 203.18 75.3323 206.559C75.3323 209.937 78.0755 212.684 81.4495 212.684H183.077C186.451 212.684 189.194 209.937 189.194 206.559C189.194 203.149 186.451 200.434 183.077 200.434Z" fill="white"/>
<path d="M283.411 191.277V203.591H300.785C298.231 196.424 291.42 191.277 283.411 191.277Z" fill="#FF1D53"/>
<path d="M252.731 161.125V21.9805C252.731 16.8971 248.6 12.7926 243.555 12.7926H20.9714C15.8948 12.7926 11.7957 16.9287 11.7957 21.9805V161.125C11.7957 166.208 15.9263 170.313 20.9714 170.313H243.555C248.632 170.344 252.731 166.208 252.731 161.125ZM238.889 147.864C238.889 152.916 234.758 157.052 229.713 157.052H34.8455C29.8004 157.052 25.6697 152.916 25.6697 147.864V35.2729C25.6697 30.2211 29.8004 26.085 34.8455 26.085H229.713C234.758 26.085 238.889 30.2211 238.889 35.2729V147.864Z" fill="#1B1B1B"/>
<path d="M229.713 26.0851H34.8455C29.8004 26.0851 25.6697 30.2212 25.6697 35.273V147.864C25.6697 152.916 29.8004 157.052 34.8455 157.052H229.713C234.758 157.052 238.888 152.916 238.888 147.864V35.273C238.888 30.2212 234.758 26.0851 229.713 26.0851ZM64.7062 36.2517C64.7062 35.7466 65.1161 35.3677 65.5891 35.3677H84.9181C85.4226 35.3677 85.801 35.7781 85.801 36.2517V41.7771C85.801 42.2823 85.3911 42.6611 84.9181 42.6611H65.5891C65.0846 42.6611 64.7062 42.2507 64.7062 41.7771V36.2517ZM55.152 35.1467C57.2331 35.1467 58.9043 36.8201 58.9043 38.9039C58.9043 40.9877 57.2331 42.6611 55.152 42.6611C53.0709 42.6611 51.3997 40.9877 51.3997 38.9039C51.3997 36.8201 53.1024 35.1467 55.152 35.1467ZM42.8546 35.1467C44.9357 35.1467 46.6069 36.8201 46.6069 38.9039C46.6069 40.9877 44.9357 42.6611 42.8546 42.6611C40.7735 42.6611 39.1023 40.9877 39.1023 38.9039C39.1023 36.8201 40.7735 35.1467 42.8546 35.1467Z" fill="#FF1D53"/>
<path d="M39.1025 38.9038C39.1025 39.9003 39.4979 40.856 40.2016 41.5606C40.9053 42.2652 41.8597 42.6611 42.8548 42.6611C43.85 42.6611 44.8044 42.2652 45.5081 41.5606C46.2118 40.856 46.6071 39.9003 46.6071 38.9038C46.6071 37.9074 46.2118 36.9517 45.5081 36.2471C44.8044 35.5425 43.85 35.1466 42.8548 35.1466C41.8597 35.1466 40.9053 35.5425 40.2016 36.2471C39.4979 36.9517 39.1025 37.9074 39.1025 38.9038Z" fill="#1B1B1B"/>
<path d="M51.3999 38.9038C51.3999 39.9003 51.7952 40.856 52.4989 41.5606C53.2026 42.2652 54.157 42.6611 55.1522 42.6611C56.1474 42.6611 57.1018 42.2652 57.8055 41.5606C58.5092 40.856 58.9045 39.9003 58.9045 38.9038C58.9045 37.9074 58.5092 36.9517 57.8055 36.2471C57.1018 35.5425 56.1474 35.1466 55.1522 35.1466C54.157 35.1466 53.2026 35.5425 52.4989 36.2471C51.7952 36.9517 51.3999 37.9074 51.3999 38.9038Z" fill="#1B1B1B"/>
<path d="M65.5892 42.661H84.9183C85.4228 42.661 85.8012 42.2506 85.8012 41.777V36.2516C85.8012 35.7464 85.3912 35.3676 84.9183 35.3676H65.5892C65.0847 35.3676 64.7063 35.778 64.7063 36.2516V41.777C64.7063 42.2821 65.1162 42.661 65.5892 42.661Z" fill="#1B1B1B"/>
<path d="M283.4 179.06C268.603 179.06 256.231 189.673 253.397 203.708H216.973C213.29 203.708 210.614 202.979 209.669 201.712C209.04 200.857 209.04 199.494 209.04 198.861V182.672H243.638C255.444 182.672 265.014 173.009 265.014 161.16V21.5113C265.014 9.63098 255.412 0 243.638 0H21.3762C9.57048 0 0 9.66266 0 21.5113V161.129C0 173.009 9.60197 182.64 21.3762 182.64H196.793V198.861C196.793 200.381 196.793 204.975 199.91 209.125C203.341 213.687 209.071 216 216.973 216H314V209.854C314 192.873 300.274 179.06 283.4 179.06ZM21.3762 170.38C16.3076 170.38 12.215 166.229 12.215 161.16V21.5113C12.215 16.4107 16.3391 12.2922 21.3762 12.2922H243.607C248.675 12.2922 252.768 16.4424 252.768 21.5113V161.129C252.768 166.229 248.644 170.348 243.607 170.348H21.3762V170.38ZM283.4 203.708H266.053C268.572 196.516 275.403 191.352 283.4 191.352C291.396 191.352 298.228 196.516 300.746 203.708H283.4Z" fill="white"/>
<path d="M99.2358 94.6849C99.2358 103.317 102.669 111.596 108.78 117.7C114.891 123.804 123.179 127.233 131.821 127.233C140.463 127.233 148.751 123.804 154.862 117.7C160.973 111.596 164.406 103.317 164.406 94.6849C164.406 86.0527 160.973 77.774 154.862 71.67C148.751 65.5661 140.463 62.137 131.821 62.137C123.179 62.137 114.891 65.5661 108.78 71.67C102.669 77.774 99.2358 86.0527 99.2358 94.6849Z" fill="#FF1D53"/>
<path d="M132.103 146.466C131.328 146.466 130.693 145.846 130.693 145.071C130.693 144.296 131.314 143.663 132.089 143.648C132.541 143.648 133.006 143.634 133.457 143.62C134.233 143.592 134.881 144.198 134.91 144.987C134.938 145.761 134.331 146.409 133.542 146.438C133.09 146.452 132.597 146.466 132.103 146.466C132.117 146.466 132.117 146.466 132.103 146.466ZM126.477 146.198C126.434 146.198 126.378 146.198 126.321 146.184L124.883 146.015C124.107 145.916 123.572 145.198 123.67 144.437C123.769 143.663 124.488 143.127 125.25 143.226C125.701 143.282 126.152 143.339 126.604 143.381C127.379 143.465 127.943 144.156 127.859 144.93C127.802 145.663 127.196 146.198 126.477 146.198ZM139.126 145.945C138.435 145.945 137.829 145.437 137.73 144.733C137.617 143.958 138.153 143.254 138.929 143.141L140.283 142.93C141.044 142.803 141.777 143.31 141.918 144.071C142.059 144.832 141.538 145.564 140.776 145.705C140.297 145.79 139.817 145.86 139.338 145.93C139.267 145.945 139.197 145.945 139.126 145.945ZM119.553 144.973C119.44 144.973 119.327 144.958 119.214 144.93C118.749 144.818 118.283 144.691 117.818 144.564C117.071 144.353 116.633 143.578 116.845 142.831C117.056 142.085 117.832 141.648 118.579 141.86C119.017 141.986 119.468 142.099 119.905 142.212C120.667 142.395 121.118 143.17 120.935 143.916C120.751 144.55 120.173 144.973 119.553 144.973ZM146.008 144.437C145.402 144.437 144.837 144.043 144.654 143.423C144.429 142.677 144.866 141.888 145.613 141.676C146.05 141.55 146.487 141.409 146.925 141.268C147.672 141.028 148.462 141.437 148.701 142.169C148.941 142.916 148.532 143.705 147.799 143.944C147.348 144.099 146.868 144.24 146.417 144.367C146.276 144.423 146.149 144.437 146.008 144.437ZM112.84 142.789C112.657 142.789 112.487 142.761 112.304 142.691C111.853 142.508 111.402 142.324 110.964 142.127C110.245 141.817 109.921 140.986 110.245 140.268C110.555 139.549 111.387 139.225 112.107 139.549C112.53 139.733 112.953 139.916 113.376 140.085C114.095 140.381 114.448 141.198 114.151 141.916C113.926 142.465 113.404 142.789 112.84 142.789ZM152.622 142C152.086 142 151.578 141.691 151.339 141.169C151.014 140.465 151.324 139.62 152.044 139.31C152.453 139.127 152.876 138.93 153.285 138.732C153.99 138.394 154.836 138.676 155.174 139.38C155.513 140.085 155.231 140.93 154.526 141.268C154.088 141.479 153.651 141.691 153.214 141.888C153.003 141.958 152.805 142 152.622 142ZM106.508 139.69C106.268 139.69 106.029 139.634 105.803 139.493C105.394 139.254 104.971 139 104.562 138.747C103.899 138.338 103.688 137.465 104.111 136.803C104.52 136.141 105.394 135.929 106.057 136.352C106.452 136.591 106.847 136.831 107.227 137.056C107.904 137.451 108.13 138.31 107.735 138.986C107.467 139.451 107.002 139.69 106.508 139.69ZM158.813 138.648C158.347 138.648 157.896 138.423 157.614 138C157.191 137.338 157.388 136.479 158.051 136.056C158.432 135.817 158.813 135.563 159.193 135.31C159.347 135.206 159.52 135.133 159.701 135.096C159.883 135.059 160.07 135.058 160.253 135.093C160.435 135.128 160.608 135.199 160.763 135.302C160.917 135.404 161.05 135.536 161.154 135.69C161.258 135.843 161.33 136.016 161.368 136.197C161.405 136.379 161.406 136.566 161.37 136.748C161.335 136.93 161.264 137.103 161.161 137.257C161.059 137.412 160.927 137.545 160.773 137.648C160.378 137.915 159.969 138.183 159.56 138.437C159.32 138.577 159.066 138.648 158.813 138.648ZM100.684 135.746C100.374 135.746 100.078 135.648 99.8096 135.45C99.4289 135.155 99.0481 134.845 98.6815 134.535C98.0892 134.042 98.0046 133.154 98.4981 132.549C98.9917 131.957 99.8801 131.873 100.487 132.366C100.839 132.661 101.192 132.943 101.558 133.225C102.165 133.704 102.277 134.591 101.798 135.197C101.516 135.563 101.093 135.746 100.684 135.746ZM164.468 134.478C164.073 134.478 163.678 134.309 163.396 133.985C162.888 133.394 162.959 132.506 163.551 131.999C163.903 131.704 164.242 131.408 164.58 131.098C165.159 130.577 166.047 130.619 166.569 131.196C167.091 131.774 167.048 132.661 166.47 133.183C166.117 133.507 165.751 133.83 165.384 134.14C165.116 134.366 164.792 134.478 164.468 134.478ZM95.4521 131.027C95.0854 131.027 94.7188 130.887 94.4368 130.591C94.0983 130.253 93.774 129.886 93.4496 129.534C92.9278 128.957 92.9701 128.069 93.5483 127.548C94.1265 127.027 95.0149 127.069 95.5367 127.647C95.847 127.985 96.1572 128.323 96.4674 128.647C97.0033 129.21 96.9892 130.098 96.4251 130.633C96.1572 130.901 95.8047 131.027 95.4521 131.027ZM169.502 129.562C169.164 129.562 168.839 129.45 168.571 129.21C167.993 128.689 167.937 127.802 168.458 127.224C168.755 126.886 169.065 126.534 169.361 126.182C169.869 125.59 170.757 125.506 171.349 126.013C171.942 126.52 172.026 127.407 171.519 127.999C171.208 128.365 170.884 128.731 170.574 129.098C170.278 129.393 169.897 129.562 169.502 129.562ZM90.9394 125.632C90.5023 125.632 90.0792 125.435 89.7972 125.055C89.5151 124.66 89.2331 124.266 88.9652 123.872C88.528 123.224 88.6831 122.35 89.3318 121.914C89.9805 121.477 90.8548 121.632 91.292 122.28C91.5458 122.66 91.8138 123.026 92.0817 123.393C92.533 124.027 92.392 124.9 91.7715 125.365C91.5176 125.548 91.2215 125.632 90.9394 125.632ZM173.817 123.984C173.549 123.984 173.281 123.914 173.042 123.745C172.393 123.308 172.224 122.435 172.647 121.787C172.901 121.407 173.154 121.026 173.394 120.632C173.803 119.97 174.677 119.773 175.34 120.181C176.003 120.59 176.2 121.463 175.791 122.125C175.538 122.533 175.27 122.942 175.002 123.336C174.72 123.773 174.268 123.984 173.817 123.984ZM87.2024 119.674C86.6947 119.674 86.2153 119.406 85.9614 118.927C85.7358 118.505 85.5102 118.068 85.2986 117.646C84.9461 116.955 85.2422 116.11 85.9332 115.758C86.6383 115.406 87.4703 115.702 87.8229 116.392C88.0203 116.8 88.2318 117.209 88.4434 117.603C88.81 118.294 88.5421 119.139 87.8652 119.505C87.6537 119.618 87.428 119.674 87.2024 119.674ZM177.3 117.871C177.089 117.871 176.891 117.829 176.694 117.73C175.989 117.392 175.693 116.547 176.031 115.857C176.229 115.448 176.426 115.026 176.609 114.617C176.934 113.913 177.766 113.589 178.471 113.899C179.176 114.223 179.5 115.054 179.19 115.758C178.993 116.195 178.795 116.646 178.584 117.068C178.33 117.575 177.822 117.871 177.3 117.871ZM84.3538 113.237C83.7756 113.237 83.2397 112.885 83.0282 112.307C82.859 111.856 82.7038 111.391 82.5487 110.941C82.309 110.208 82.7038 109.405 83.4513 109.166C84.1846 108.926 84.9884 109.321 85.2281 110.067C85.3691 110.504 85.5243 110.941 85.6794 111.363C85.9473 112.096 85.5666 112.899 84.8333 113.166C84.6781 113.223 84.5089 113.237 84.3538 113.237ZM179.895 111.321C179.754 111.321 179.613 111.293 179.472 111.251C178.725 111.011 178.316 110.222 178.556 109.476C178.697 109.039 178.823 108.602 178.95 108.166C179.162 107.419 179.952 106.982 180.699 107.194C181.446 107.405 181.884 108.194 181.672 108.94C181.545 109.405 181.404 109.87 181.249 110.321C181.052 110.941 180.502 111.321 179.895 111.321ZM82.4218 106.475C81.7731 106.475 81.1808 106.025 81.0398 105.363C80.9411 104.898 80.8424 104.419 80.7578 103.94C80.6167 103.179 81.1244 102.447 81.9 102.306C82.6615 102.165 83.3948 102.672 83.5359 103.447C83.6205 103.898 83.7051 104.348 83.8038 104.785C83.9589 105.546 83.4795 106.292 82.7179 106.447C82.6192 106.461 82.5205 106.475 82.4218 106.475ZM181.545 104.489C181.475 104.489 181.39 104.489 181.305 104.475C180.544 104.348 180.022 103.616 180.149 102.855L180.361 101.503C180.473 100.728 181.178 100.193 181.954 100.306C182.73 100.418 183.266 101.123 183.153 101.897C183.082 102.376 183.012 102.855 182.927 103.334C182.828 103.996 182.222 104.489 181.545 104.489ZM81.4629 99.5028C80.7296 99.5028 80.1091 98.9393 80.0527 98.1928C80.0245 97.7138 79.9962 97.2208 79.9821 96.7419C79.9539 95.9672 80.5603 95.3051 81.3359 95.277C82.1116 95.2488 82.7744 95.8545 82.8026 96.6292C82.8167 97.08 82.8449 97.5448 82.8731 97.9956C82.9295 98.7703 82.3372 99.4464 81.5616 99.4887C81.5193 99.5028 81.4911 99.5028 81.4629 99.5028ZM182.236 97.4885H182.194C181.418 97.4603 180.798 96.8264 180.826 96.0376C180.84 95.5869 180.84 95.122 180.84 94.6713C180.84 93.8965 181.475 93.2627 182.25 93.2627C183.026 93.2627 183.66 93.8965 183.66 94.6713C183.66 95.1502 183.66 95.6432 183.646 96.1221C183.618 96.8828 182.998 97.4885 182.236 97.4885ZM81.477 92.4738H81.3783C80.6026 92.4175 80.0104 91.7414 80.0668 90.9666C80.095 90.4877 80.1373 90.0088 80.1937 89.5298C80.2642 88.7551 80.9552 88.1917 81.7308 88.2621C82.5064 88.3325 83.0705 89.0228 83 89.7975C82.9577 90.2482 82.9154 90.7131 82.8872 91.1638C82.8308 91.9104 82.2103 92.4738 81.477 92.4738ZM181.954 90.6426C181.249 90.6426 180.629 90.1074 180.558 89.389C180.516 88.9382 180.459 88.4875 180.389 88.0367C180.29 87.262 180.826 86.5577 181.602 86.445C182.377 86.3464 183.082 86.8817 183.195 87.6564C183.266 88.1353 183.322 88.6143 183.364 89.0932C183.449 89.8679 182.885 90.5581 182.109 90.6426H181.954ZM82.4641 85.5012C82.3654 85.5012 82.2667 85.4871 82.168 85.4731C81.4065 85.304 80.927 84.5575 81.0821 83.7968C81.1808 83.3179 81.2936 82.8531 81.4065 82.3882C81.5898 81.6276 82.3513 81.1627 83.1128 81.3458C83.8743 81.529 84.3397 82.2896 84.1564 83.0503C84.0435 83.4869 83.9448 83.9377 83.8461 84.3884C83.691 85.0505 83.1128 85.5012 82.4641 85.5012ZM180.713 83.7123C180.079 83.7123 179.514 83.2897 179.345 82.6418C179.232 82.2051 179.12 81.7543 178.993 81.3177C178.781 80.5711 179.218 79.7964 179.966 79.5851C180.713 79.3738 181.489 79.8105 181.7 80.557L182.081 81.9515C182.278 82.7122 181.813 83.4728 181.052 83.656C180.953 83.6982 180.84 83.7123 180.713 83.7123ZM84.4102 78.7399C84.2551 78.7399 84.0858 78.7118 83.9307 78.6554C83.1974 78.3878 82.8308 77.5849 83.0987 76.8524C83.2679 76.4016 83.4372 75.9509 83.6205 75.5001C83.9025 74.7817 84.7345 74.4296 85.4537 74.7113C86.1729 74.993 86.5255 75.8241 86.2435 76.5425C86.0742 76.9651 85.905 77.4018 85.7499 77.8243C85.5243 78.3878 84.9884 78.7399 84.4102 78.7399ZM178.527 77.0355C177.977 77.0355 177.441 76.7115 177.216 76.1622C177.047 75.7396 176.863 75.317 176.68 74.9085C176.37 74.1901 176.694 73.3591 177.399 73.0492C178.118 72.7393 178.95 73.0632 179.261 73.7675C179.458 74.2042 179.641 74.655 179.825 75.0916C180.121 75.81 179.768 76.6411 179.049 76.9228C178.88 76.9933 178.697 77.0355 178.527 77.0355ZM87.3011 72.3167C87.0755 72.3167 86.8498 72.2603 86.6383 72.1476C85.9473 71.7814 85.6935 70.9222 86.0601 70.246C86.2858 69.8235 86.5255 69.3868 86.7652 68.9783C87.146 68.3022 88.0203 68.0627 88.6831 68.4571C89.36 68.8374 89.5997 69.7108 89.2049 70.3728C88.9793 70.7672 88.7536 71.1757 88.5421 71.5701C88.2883 72.0491 87.7947 72.3167 87.3011 72.3167ZM175.411 70.725C174.931 70.725 174.452 70.4714 174.198 70.0207C173.972 69.6262 173.733 69.2318 173.493 68.8515C173.084 68.1895 173.281 67.3161 173.944 66.9076C174.607 66.4991 175.481 66.6963 175.89 67.3584C176.144 67.7669 176.398 68.1754 176.638 68.598C177.032 69.2741 176.807 70.1333 176.13 70.5278C175.904 70.6686 175.65 70.725 175.411 70.725ZM91.0523 66.3583C90.7702 66.3583 90.4741 66.2738 90.2202 66.0906C89.5856 65.6258 89.4587 64.7525 89.91 64.1186C90.192 63.7242 90.4882 63.3439 90.7843 62.9635C91.2638 62.3438 92.1522 62.2311 92.7586 62.71C93.3791 63.1889 93.4919 64.0763 93.0124 64.682C92.7304 65.0342 92.4625 65.4004 92.1945 65.7808C91.9125 66.1611 91.4894 66.3583 91.0523 66.3583ZM171.448 64.9074C171.025 64.9074 170.616 64.7243 170.334 64.3721C170.052 64.02 169.77 63.6538 169.474 63.3157C168.98 62.7241 169.051 61.8367 169.657 61.3296C170.249 60.8365 171.138 60.907 171.646 61.5127C171.956 61.8789 172.266 62.2592 172.562 62.6396C173.042 63.2453 172.943 64.1327 172.322 64.6116C172.069 64.8088 171.758 64.9074 171.448 64.9074ZM95.5931 60.9774C95.2406 60.9774 94.888 60.8506 94.606 60.583C94.0419 60.0477 94.0278 59.1462 94.5778 58.5969C94.9162 58.2588 95.2547 57.9066 95.6072 57.5686C96.1713 57.0192 97.0597 57.0333 97.5956 57.5968C98.1456 58.1602 98.1315 59.0476 97.5674 59.5829L96.5944 60.5548C96.3264 60.8365 95.9598 60.9774 95.5931 60.9774ZM166.71 59.7097C166.357 59.7097 166.005 59.5829 165.737 59.3153C165.412 59.0054 165.074 58.6814 164.735 58.3856C164.157 57.8644 164.115 56.977 164.637 56.3994C165.159 55.8219 166.047 55.7797 166.625 56.3008C166.978 56.6248 167.344 56.9629 167.683 57.2869C168.247 57.8221 168.261 58.7236 167.725 59.273C167.457 59.5547 167.091 59.7097 166.71 59.7097ZM100.839 56.2868C100.416 56.2868 100.007 56.1036 99.725 55.7374C99.2456 55.1176 99.3584 54.2443 99.9648 53.7653C100.346 53.4695 100.726 53.1737 101.121 52.892C101.756 52.4272 102.63 52.568 103.095 53.1878C103.561 53.8217 103.42 54.695 102.799 55.1599C102.433 55.4275 102.066 55.7092 101.713 55.9909C101.445 56.1882 101.135 56.2868 100.839 56.2868ZM161.309 55.2021C161.027 55.2021 160.73 55.1176 160.491 54.9345C160.124 54.6669 159.743 54.3992 159.363 54.1457C158.714 53.709 158.559 52.8357 158.996 52.1877C159.433 51.5398 160.307 51.3848 160.956 51.8215C161.351 52.0891 161.76 52.3708 162.141 52.6525C162.775 53.1033 162.916 53.9907 162.465 54.6246C162.169 54.9908 161.746 55.2021 161.309 55.2021ZM106.677 52.3567C106.184 52.3567 105.718 52.1032 105.45 51.6524C105.056 50.9763 105.295 50.1171 105.972 49.7227C106.395 49.4832 106.818 49.2437 107.241 49.0183C107.932 48.6521 108.779 48.9057 109.145 49.5959C109.512 50.2861 109.258 51.1313 108.567 51.4975C108.172 51.7088 107.763 51.9342 107.368 52.1595C107.157 52.3004 106.917 52.3567 106.677 52.3567ZM155.315 51.4834C155.09 51.4834 154.864 51.4271 154.653 51.3144C154.244 51.1031 153.835 50.8918 153.426 50.6946C152.721 50.3565 152.438 49.5114 152.777 48.8071C153.115 48.1028 153.962 47.821 154.667 48.1591C155.104 48.3704 155.527 48.5958 155.964 48.8211C156.655 49.1874 156.923 50.0325 156.556 50.7228C156.317 51.2158 155.823 51.4834 155.315 51.4834ZM113.009 49.3001C112.445 49.3001 111.923 48.962 111.698 48.4126C111.402 47.6943 111.754 46.8773 112.487 46.5815C112.939 46.3983 113.39 46.2293 113.841 46.0603C114.574 45.7926 115.378 46.1589 115.646 46.8914C115.914 47.6238 115.548 48.4267 114.814 48.6944C114.391 48.8493 113.954 49.0183 113.531 49.1874C113.362 49.2578 113.192 49.3001 113.009 49.3001ZM148.871 48.638C148.716 48.638 148.546 48.6099 148.391 48.5535C147.954 48.3986 147.517 48.2436 147.094 48.1028C146.361 47.8633 145.952 47.0604 146.191 46.3279C146.431 45.5954 147.235 45.1869 147.968 45.4264C148.419 45.5813 148.885 45.7363 149.35 45.9053C150.083 46.173 150.464 46.9759 150.196 47.7083C149.985 48.2859 149.449 48.638 148.871 48.638ZM119.722 47.1308C119.087 47.1308 118.509 46.6941 118.354 46.0603C118.171 45.2996 118.636 44.539 119.383 44.3559C119.849 44.2432 120.328 44.1305 120.793 44.0319C121.555 43.8628 122.302 44.3559 122.472 45.1165C122.641 45.8772 122.147 46.6237 121.386 46.7927C120.949 46.8914 120.497 46.99 120.046 47.1026C119.947 47.1308 119.82 47.1308 119.722 47.1308ZM142.088 46.7364C141.989 46.7364 141.89 46.7223 141.806 46.7082C141.368 46.6096 140.903 46.5251 140.466 46.4547C139.704 46.3138 139.183 45.5813 139.324 44.8207C139.465 44.0601 140.198 43.5389 140.959 43.6797C141.439 43.7642 141.918 43.8629 142.384 43.9474C143.145 44.1023 143.639 44.8489 143.484 45.6095C143.329 46.2716 142.736 46.7364 142.088 46.7364ZM126.66 45.9476C125.941 45.9476 125.334 45.4123 125.264 44.6798C125.179 43.9051 125.743 43.2149 126.519 43.1304L127.957 43.0036C128.733 42.9473 129.41 43.5248 129.466 44.2995C129.523 45.0743 128.944 45.7504 128.169 45.8067C127.718 45.8349 127.252 45.8772 126.801 45.9194C126.745 45.9335 126.702 45.9476 126.66 45.9476ZM135.107 45.7926H135.008C134.557 45.7645 134.092 45.7363 133.64 45.7222C132.865 45.694 132.258 45.0461 132.287 44.2573C132.315 43.4825 132.964 42.8768 133.753 42.905C134.233 42.9191 134.726 42.9473 135.206 42.9754C135.981 43.0318 136.574 43.6938 136.517 44.4686C136.461 45.2151 135.84 45.7926 135.107 45.7926Z" fill="white"/>
<path d="M169.59 57.6986C167.546 57.6986 165.887 59.3561 165.887 61.3972C165.887 63.4383 167.546 65.0959 169.59 65.0959C171.633 65.0959 173.292 63.4383 173.292 61.3972C173.292 59.3561 171.633 57.6986 169.59 57.6986Z" fill="#FF1D53"/>
<path d="M169.59 54.7397C165.917 54.7397 162.925 57.7286 162.925 61.3973C162.925 65.066 165.917 68.0548 169.59 68.0548C173.263 68.0548 176.255 65.066 176.255 61.3973C176.255 57.7286 173.263 54.7397 169.59 54.7397ZM165.747 61.3973C165.747 59.2867 167.463 57.5727 169.575 57.5727C171.688 57.5727 173.404 59.2867 173.404 61.3973C173.404 63.5079 171.688 65.2218 169.575 65.2218C167.463 65.2218 165.747 63.5079 165.747 61.3973Z" fill="white"/>
<path d="M161.731 81.3699H101.896C101.456 81.8507 101.058 82.3463 100.717 82.8493H162.925C162.569 82.3463 162.172 81.8507 161.731 81.3699Z" fill="#3FCAB5"/>
<path d="M159.051 67.4854C151.781 60.2237 142.112 56.2192 131.821 56.2192C121.53 56.2192 111.86 60.2237 104.59 67.4854C97.3203 74.7471 93.3113 84.4058 93.3113 94.685C93.3113 104.964 97.3203 114.623 104.59 121.885C111.86 129.146 121.53 133.151 131.821 133.151C142.112 133.151 151.781 129.146 159.051 121.885C166.321 114.623 170.33 104.964 170.33 94.685C170.33 84.4058 166.335 74.7471 159.051 67.4854ZM102.459 109.392H114.754C114.909 109.843 115.079 110.294 115.248 110.745C116.801 114.75 118.961 118.585 121.657 122.138C123.097 124.028 124.523 125.635 125.821 126.947C115.587 125.057 107.004 118.416 102.459 109.392ZM130.409 127.398C128.715 125.931 126.259 123.563 123.831 120.348C121.756 117.598 119.469 113.918 117.761 109.378H130.409V127.398ZM133.232 127.398V109.392H145.881C144.173 113.918 141.886 117.612 139.811 120.362C137.383 123.577 134.926 125.931 133.232 127.398ZM137.834 126.961C139.133 125.635 140.559 124.042 141.999 122.152C144.709 118.585 146.869 114.764 148.407 110.759C148.577 110.308 148.746 109.857 148.902 109.406H161.197C156.651 118.416 148.069 125.057 137.834 126.961ZM162.453 106.572H149.777C150.807 102.835 151.33 98.9715 151.33 95.0375C151.33 91.1317 150.807 87.2682 149.791 83.5034H146.841C147.857 86.9721 148.492 90.8215 148.492 95.0375C148.492 99.2676 147.843 103.131 146.826 106.572H133.232V83.5175H130.409V106.572H116.815C115.799 103.131 115.149 99.2817 115.149 95.0375C115.149 90.8356 115.799 86.9721 116.801 83.5034H113.851C112.834 87.2682 112.312 91.1317 112.312 95.0375C112.312 98.9715 112.834 102.821 113.865 106.572H101.188C99.7483 102.877 98.9578 98.8728 98.9578 94.685C98.9578 90.7651 99.6495 87.0003 100.92 83.5175C101.273 82.5587 101.668 81.614 102.092 80.6974C106.567 71.2502 115.432 64.2564 126.047 62.367C124.692 63.7911 123.167 65.5255 121.643 67.5982C118.947 71.2643 116.787 75.1842 115.234 79.231C115.05 79.7104 114.881 80.2039 114.712 80.6974H117.718C119.441 76.0443 121.756 72.209 123.845 69.3467C126.273 66.0472 128.715 63.5937 130.409 62.0568V80.6974H133.232V62.0568C134.926 63.5937 137.368 66.0613 139.796 69.3467C141.9 72.209 144.215 76.0302 145.923 80.6974H148.93C148.76 80.2039 148.591 79.7245 148.407 79.231C146.855 75.1701 144.709 71.2643 141.999 67.5982C140.488 65.5255 138.964 63.777 137.608 62.367C148.224 64.2564 157.089 71.2502 161.564 80.6974C162.001 81.614 162.397 82.5587 162.736 83.5175C164.006 87.0003 164.698 90.7651 164.698 94.685C164.684 98.8728 163.893 102.891 162.453 106.572Z" fill="white"/>
<path d="M157 108L194.886 108M173.838 108L173.838 147.945M182.257 118.512V147.945M182.257 118.635C184.562 118.635 188.249 117.965 193.779 119.752C200.693 121.986 196.084 134.274 183.409 133.157M182.257 133.344C184.267 133.344 187.483 132.716 192.306 134.391C198.336 136.484 193.311 148.93 182.257 147.883" stroke="white" stroke-width="2" stroke-linecap="round"/>
</g>
<defs>
<clipPath id="clip0_61_3987">
<rect width="314" height="216" fill="white"/>
</clipPath>
</defs>
</svg>
