<svg width="549" height="479" viewBox="0 0 549 479" fill="none" xmlns="http://www.w3.org/2000/svg">
<g clip-path="url(#clip0_61_4132)">
<rect x="93.5868" y="21.6236" width="261.563" height="434.875" fill="#1B1B1B"/>
<rect x="350.351" y="197.015" width="179.975" height="267.893" fill="#1B1B1B"/>
<path d="M224.867 439.566C215.737 439.566 208.278 432.054 208.278 422.858C208.278 413.662 215.737 406.15 224.867 406.15C233.997 406.15 241.455 413.662 241.455 422.858C241.519 432.054 233.997 439.566 224.867 439.566Z" fill="white"/>
<path d="M332.433 387.694C332.433 390.996 329.733 393.716 326.454 393.716H123.28C120.001 393.716 117.3 390.996 117.3 387.694V79.245C117.3 75.9423 120.001 73.2224 123.28 73.2224H326.389C329.669 73.2224 332.369 75.9423 332.369 79.245V387.694H332.433Z" fill="#FF1D53"/>
<path d="M140.383 139.989C131.639 139.989 124.502 147.177 124.502 155.985C124.502 164.792 131.639 171.98 140.383 171.98C149.127 171.98 156.264 164.792 156.264 155.985C156.264 147.177 149.127 139.989 140.383 139.989ZM463.275 284.791C444.372 284.791 428.941 300.333 428.941 319.372C428.941 338.412 444.372 353.954 463.275 353.954C482.178 353.954 497.609 338.412 497.609 319.372C497.609 300.333 482.178 284.791 463.275 284.791Z" fill="white"/>
<path d="M463.275 271.839C437.236 271.839 416.082 293.145 416.082 319.373C416.082 345.6 437.236 366.906 463.275 366.906C489.315 366.906 510.468 345.6 510.468 319.373C510.468 293.145 489.315 271.839 463.275 271.839ZM428.941 319.373C428.941 300.333 444.372 284.791 463.275 284.791C482.178 284.791 497.609 300.333 497.609 319.373C497.609 338.412 482.178 353.954 463.275 353.954C444.308 353.954 428.941 338.412 428.941 319.373Z" fill="white"/>
<path d="M181.468 264.198C174.138 264.198 168.223 270.156 168.223 277.538C168.223 284.921 174.138 290.879 181.468 290.879C188.797 290.879 194.713 284.921 194.713 277.538C194.713 270.156 188.733 264.198 181.468 264.198ZM28.8299 183.443C20.0857 183.443 12.9489 190.631 12.9489 199.438C12.9489 208.246 20.0857 215.434 28.8299 215.434C37.5741 215.434 44.7109 208.246 44.7109 199.438C44.7109 190.631 37.5741 183.443 28.8299 183.443Z" fill="white"/>
<path d="M69.4002 179.104C68.2429 175.736 64.6424 173.923 61.2347 175.024L49.2114 179.104C44.0035 173.794 36.8024 170.491 28.7654 170.491C12.9487 170.491 0.0252686 183.443 0.0252686 199.438C0.0252686 215.434 12.8844 228.386 28.7654 228.386C44.6464 228.386 57.5056 215.434 57.5056 199.438C57.5056 196.33 56.9912 193.286 56.0911 190.501L65.3496 187.393C68.693 186.163 70.4933 182.536 69.4002 179.104ZM28.8297 215.369C20.0855 215.369 12.9487 208.181 12.9487 199.373C12.9487 190.566 20.0855 183.378 28.8297 183.378C37.5739 183.378 44.7107 190.566 44.7107 199.373C44.7107 208.181 37.5739 215.369 28.8297 215.369ZM158.128 187.393L155.878 180.269C163.786 175.089 169.058 166.152 169.058 155.985C169.058 140.054 156.199 127.037 140.318 127.037C124.437 127.037 111.578 139.989 111.578 155.985C111.578 171.98 124.437 184.932 140.318 184.932C141.476 184.932 142.633 184.867 143.726 184.738L145.783 191.343C146.619 194.128 149.191 195.876 151.892 195.876C152.535 195.876 153.177 195.747 153.82 195.553C157.357 194.452 159.221 190.76 158.128 187.393ZM146.234 170.815C145.976 170.879 145.719 171.009 145.526 171.074C143.919 171.656 142.183 171.98 140.383 171.98C131.638 171.98 124.502 164.792 124.502 155.985C124.502 147.177 131.638 139.989 140.383 139.989C149.127 139.989 156.264 147.177 156.264 155.985C156.264 162.655 152.084 168.418 146.234 170.815ZM163.658 232.854C164.301 232.854 164.944 232.724 165.587 232.53C168.994 231.429 170.859 227.803 169.766 224.435L165.908 212.066C164.815 208.634 161.214 206.756 157.871 207.857C154.463 208.958 152.599 212.584 153.692 215.952L157.55 228.321C158.385 231.105 160.893 232.854 163.658 232.854ZM227.953 237.776L222.81 241.726C219.981 243.863 219.402 247.943 221.588 250.792C222.874 252.476 224.803 253.318 226.732 253.318C228.082 253.318 229.432 252.865 230.589 252.023L235.733 248.072C238.562 245.935 239.141 241.856 236.955 239.006C234.833 236.157 230.782 235.639 227.953 237.776ZM288.134 199.827C286.012 196.977 281.962 196.395 279.133 198.596L273.989 202.547C271.16 204.684 270.581 208.764 272.767 211.613C274.053 213.297 275.982 214.139 277.911 214.139C279.261 214.139 280.611 213.685 281.769 212.843L286.912 208.893C289.741 206.756 290.32 202.676 288.134 199.827ZM253.543 218.154L248.399 222.104C245.57 224.241 244.992 228.321 247.178 231.17C248.464 232.854 250.392 233.696 252.321 233.696C253.672 233.696 255.022 233.243 256.179 232.401L261.323 228.45C264.152 226.313 264.73 222.233 262.544 219.384C260.423 216.599 256.372 216.017 253.543 218.154ZM202.364 257.398L200.049 259.146C195.291 254.289 188.733 251.246 181.468 251.246C180.375 251.246 179.346 251.31 178.317 251.44L177.61 249.109C176.517 245.676 172.916 243.798 169.509 244.899C166.101 246 164.236 249.627 165.329 253.059L166.294 256.232C159.671 261.024 155.364 268.795 155.364 277.603C155.364 292.109 167.065 303.895 181.468 303.895C195.87 303.895 207.572 292.109 207.572 277.603C207.572 275.142 207.25 272.746 206.607 270.479L210.143 267.759C212.972 265.622 213.551 261.542 211.365 258.693C209.243 255.779 205.193 255.196 202.364 257.398ZM168.223 277.538C168.223 270.155 174.138 264.197 181.468 264.197C188.797 264.197 194.712 270.155 194.712 277.538C194.712 284.92 188.797 290.878 181.468 290.878C174.138 290.878 168.223 284.92 168.223 277.538Z" fill="white"/>
<path d="M501.724 179.233H375.126V49.7148C375.126 22.6455 353.265 0.627293 326.39 0.627293H123.28C96.4041 0.627293 74.5436 22.6455 74.5436 49.7148V428.816C74.5436 455.885 96.4041 477.903 123.28 477.903H501.659C528.535 477.903 550.395 456.144 550.395 429.399V227.803C550.46 200.993 528.599 179.233 501.724 179.233ZM326.454 452H123.28C110.613 452 100.262 441.638 100.262 428.816V175.477L101.869 174.959C105.213 173.794 107.013 170.167 105.92 166.735C105.084 164.209 102.769 162.526 100.326 162.331V49.7796C100.326 37.022 110.613 26.5958 123.344 26.5958H326.454C339.12 26.5958 349.472 36.9573 349.472 49.7796V192.315C348.25 192.444 346.964 192.962 345.935 193.804C343.235 196.136 342.914 200.215 345.228 202.935L349.407 207.857L349.472 207.922V428.881C349.407 441.638 339.12 452 326.454 452ZM524.742 429.399C524.742 441.897 514.454 452 501.724 452H369.403C373.068 445.07 375.19 437.235 375.19 428.816V234.732C376.669 234.732 378.148 234.214 379.305 233.178C382.005 230.847 382.327 226.767 380.012 224.047L375.833 219.125C375.64 218.866 375.383 218.672 375.126 218.413V205.137H501.724C514.39 205.137 524.742 215.304 524.742 227.738V429.399Z" fill="white"/>
<path d="M417.561 268.407C415.247 265.687 411.196 265.363 408.496 267.695C405.795 270.026 405.474 274.106 407.788 276.826L411.968 281.748C413.253 283.237 415.054 284.014 416.854 284.014C418.333 284.014 419.812 283.496 421.033 282.46C423.734 280.129 424.055 276.049 421.74 273.329L417.561 268.407ZM396.665 243.799C394.351 241.079 390.3 240.755 387.599 243.086C384.899 245.418 384.578 249.497 386.892 252.217L391.071 257.139C392.357 258.628 394.158 259.406 395.958 259.406C397.437 259.406 398.916 258.888 400.137 257.851C402.838 255.52 403.159 251.44 400.844 248.72L396.665 243.799Z" fill="white"/>
<path d="M263.766 55.0251H185.969C182.432 55.0251 179.539 52.1109 179.539 48.5492C179.539 44.9874 182.432 42.0732 185.969 42.0732H263.766C267.303 42.0732 270.196 44.9874 270.196 48.5492C270.196 52.1109 267.303 55.0251 263.766 55.0251Z" fill="#3FCAB5"/>
<path d="M330.376 117.906C308.773 117.906 291.22 135.586 291.22 157.345C291.22 179.104 308.773 196.783 330.376 196.783C351.979 196.783 369.532 179.104 369.532 157.345C369.532 135.586 351.979 117.906 330.376 117.906Z" fill="white"/>
<path d="M330.376 104.954C301.7 104.954 278.361 128.462 278.361 157.345C278.361 186.227 301.7 209.735 330.376 209.735C359.052 209.735 382.391 186.227 382.391 157.345C382.391 128.462 359.052 104.954 330.376 104.954ZM291.284 157.345C291.284 135.586 308.837 117.906 330.44 117.906C352.044 117.906 369.596 135.586 369.596 157.345C369.596 179.104 352.044 196.783 330.44 196.783C308.837 196.783 291.284 179.104 291.284 157.345Z" fill="white"/>
</g>
<defs>
<clipPath id="clip0_61_4132">
<rect width="549" height="478.123" fill="white"/>
</clipPath>
</defs>
</svg>
