<svg width="248" height="216" viewBox="0 0 248 216" fill="none" xmlns="http://www.w3.org/2000/svg">
<g clip-path="url(#clip0_67_5659)">
<path d="M101.579 198.582C97.4548 198.582 94.0857 195.188 94.0857 191.033C94.0857 186.879 97.4548 183.485 101.579 183.485C105.703 183.485 109.073 186.879 109.073 191.033C109.102 195.188 105.703 198.582 101.579 198.582Z" fill="#1B1B1B"/>
<path d="M150.17 175.147C150.17 176.639 148.95 177.868 147.469 177.868H55.6892C54.2079 177.868 52.988 176.639 52.988 175.147V35.8004C52.988 34.3083 54.2079 33.0796 55.6892 33.0796H147.44C148.921 33.0796 150.141 34.3083 150.141 35.8004V175.147H150.17Z" fill="#1B1B1B"/>
<path d="M63.4151 63.2427C59.4651 63.2427 56.2412 66.4901 56.2412 70.4689C56.2412 74.4478 59.4651 77.6952 63.4151 77.6952C67.3652 77.6952 70.5891 74.4478 70.5891 70.4689C70.5891 66.4901 67.3652 63.2427 63.4151 63.2427ZM209.276 128.659C200.737 128.659 193.766 135.681 193.766 144.282C193.766 152.883 200.737 159.905 209.276 159.905C217.815 159.905 224.785 152.883 224.785 144.282C224.785 135.681 217.815 128.659 209.276 128.659Z" fill="white"/>
<path d="M209.276 122.808C197.513 122.808 187.957 132.433 187.957 144.282C187.957 156.131 197.513 165.756 209.276 165.756C221.038 165.756 230.594 156.131 230.594 144.282C230.594 132.433 221.038 122.808 209.276 122.808ZM193.766 144.282C193.766 135.681 200.737 128.659 209.276 128.659C217.815 128.659 224.785 135.681 224.785 144.282C224.785 152.883 217.815 159.905 209.276 159.905C200.707 159.905 193.766 152.883 193.766 144.282Z" fill="#FF1D53"/>
<path d="M81.9745 119.356C78.6634 119.356 75.9913 122.047 75.9913 125.383C75.9913 128.718 78.6634 131.409 81.9745 131.409C85.2855 131.409 87.9576 128.718 87.9576 125.383C87.9576 122.047 85.2565 119.356 81.9745 119.356ZM13.0233 82.8735C9.07328 82.8735 5.84937 86.121 5.84937 90.0998C5.84937 94.0786 9.07328 97.3261 13.0233 97.3261C16.9733 97.3261 20.1972 94.0786 20.1972 90.0998C20.1972 86.121 16.9733 82.8735 13.0233 82.8735Z" fill="white"/>
<path d="M31.3503 80.913C30.8275 79.3917 29.201 78.5725 27.6616 79.0699L22.2304 80.913C19.8778 78.514 16.6248 77.022 12.9943 77.022C5.84938 77.022 0.0114746 82.8732 0.0114746 90.0994C0.0114746 97.3257 5.82033 103.177 12.9943 103.177C20.1682 103.177 25.9771 97.3257 25.9771 90.0994C25.9771 88.6952 25.7447 87.3201 25.3381 86.0621L29.5205 84.6578C31.0308 84.1019 31.844 82.4636 31.3503 80.913ZM13.0233 97.2965C9.07329 97.2965 5.84938 94.049 5.84938 90.0702C5.84938 86.0914 9.07329 82.8439 13.0233 82.8439C16.9733 82.8439 20.1973 86.0914 20.1973 90.0702C20.1973 94.049 16.9733 97.2965 13.0233 97.2965ZM71.4314 84.6578L70.4148 81.4396C73.9873 79.0991 76.3689 75.0618 76.3689 70.4686C76.3689 63.2716 70.5601 57.3911 63.3861 57.3911C56.2122 57.3911 50.4033 63.2423 50.4033 70.4686C50.4033 77.6949 56.2122 83.5461 63.3861 83.5461C63.9089 83.5461 64.4317 83.5168 64.9255 83.4583L65.8549 86.4424C66.2325 87.7004 67.3942 88.4904 68.6141 88.4904C68.9045 88.4904 69.195 88.4318 69.4854 88.3441C71.0829 87.8467 71.9251 86.1791 71.4314 84.6578ZM66.0582 77.1682C65.942 77.1975 65.8258 77.256 65.7387 77.2853C65.0126 77.5486 64.2284 77.6949 63.4152 77.6949C59.4651 77.6949 56.2412 74.4474 56.2412 70.4686C56.2412 66.4898 59.4651 63.2423 63.4152 63.2423C67.3652 63.2423 70.5891 66.4898 70.5891 70.4686C70.5891 73.482 68.7012 76.0858 66.0582 77.1682ZM73.9292 105.196C74.2196 105.196 74.5101 105.137 74.8005 105.049C76.3399 104.552 77.1822 102.914 76.6884 101.392L74.9457 95.8044C74.452 94.2538 72.8255 93.4054 71.3152 93.9027C69.7759 94.4001 68.9336 96.0384 69.4273 97.5598L71.17 103.148C71.5476 104.406 72.6803 105.196 73.9292 105.196ZM102.973 107.419L100.65 109.204C99.372 110.169 99.1106 112.012 100.098 113.3C100.679 114.06 101.55 114.441 102.422 114.441C103.032 114.441 103.642 114.236 104.164 113.855L106.488 112.071C107.766 111.105 108.027 109.262 107.04 107.975C106.081 106.688 104.251 106.454 102.973 107.419ZM130.159 90.275C129.2 88.9877 127.371 88.7244 126.093 89.7191L123.769 91.5037C122.491 92.4692 122.23 94.3123 123.217 95.5996C123.798 96.3602 124.67 96.7406 125.541 96.7406C126.151 96.7406 126.761 96.5358 127.284 96.1555L129.607 94.3708C130.885 93.4054 131.146 91.5623 130.159 90.275ZM114.533 98.5545L112.21 100.339C110.932 101.305 110.67 103.148 111.658 104.435C112.239 105.196 113.11 105.576 113.981 105.576C114.591 105.576 115.201 105.371 115.724 104.991L118.047 103.206C119.325 102.241 119.587 100.398 118.599 99.1103C117.641 97.8523 115.811 97.589 114.533 98.5545ZM91.4139 116.284L90.3683 117.074C88.219 114.879 85.2565 113.504 81.9745 113.504C81.4807 113.504 81.016 113.534 80.5513 113.592L80.2318 112.539C79.7381 110.988 78.1116 110.14 76.5722 110.637C75.0329 111.135 74.1906 112.773 74.6843 114.324L75.12 115.757C72.1284 117.922 70.1825 121.433 70.1825 125.412C70.1825 131.965 75.4685 137.29 81.9745 137.29C88.4804 137.29 93.7664 131.965 93.7664 125.412C93.7664 124.3 93.6212 123.217 93.3308 122.193L94.9282 120.965C96.2062 119.999 96.4676 118.156 95.4801 116.869C94.5216 115.552 92.6918 115.289 91.4139 116.284ZM75.9913 125.382C75.9913 122.047 78.6634 119.356 81.9745 119.356C85.2855 119.356 87.9576 122.047 87.9576 125.382C87.9576 128.718 85.2855 131.409 81.9745 131.409C78.6634 131.409 75.9913 128.718 75.9913 125.382Z" fill="#FF1D53"/>
<path d="M226.644 80.9716H169.456V22.4593C169.456 10.2303 159.581 0.283203 147.44 0.283203H55.6892C43.5486 0.283203 33.6736 10.2303 33.6736 22.4593V193.725C33.6736 205.954 43.5486 215.901 55.6892 215.901H226.615C238.755 215.901 248.63 206.071 248.63 193.988V102.914C248.659 90.8016 238.784 80.9716 226.644 80.9716ZM147.469 204.198H55.6892C49.9674 204.198 45.2913 199.517 45.2913 193.725V79.2747L46.0174 79.0407C47.5277 78.5141 48.341 76.8757 47.8472 75.3251C47.4696 74.1842 46.424 73.4235 45.3203 73.3357V22.4886C45.3203 16.7251 49.9674 12.0149 55.7182 12.0149H147.469C153.191 12.0149 157.867 16.6959 157.867 22.4886V86.8813C157.315 86.9398 156.734 87.1739 156.27 87.5542C155.05 88.6074 154.904 90.4506 155.95 91.6793L157.838 93.9028L157.867 93.932V193.754C157.838 199.517 153.191 204.198 147.469 204.198ZM237.042 193.988C237.042 199.634 232.395 204.198 226.644 204.198H166.871C168.526 201.068 169.485 197.528 169.485 193.725V106.044C170.153 106.044 170.821 105.81 171.344 105.342C172.563 104.289 172.709 102.446 171.663 101.217L169.775 98.9933C169.688 98.8763 169.572 98.7885 169.456 98.6715V92.674H226.644C232.366 92.674 237.042 97.2672 237.042 102.884V193.988Z" fill="#FF1D53"/>
<path d="M188.625 121.258C187.58 120.029 185.75 119.883 184.53 120.936C183.31 121.989 183.165 123.832 184.21 125.061L186.098 127.284C186.679 127.957 187.492 128.308 188.306 128.308C188.974 128.308 189.642 128.074 190.194 127.606C191.413 126.553 191.559 124.71 190.513 123.481L188.625 121.258ZM179.186 110.14C178.14 108.912 176.31 108.765 175.09 109.819C173.871 110.872 173.725 112.715 174.771 113.944L176.659 116.167C177.24 116.84 178.053 117.191 178.866 117.191C179.534 117.191 180.202 116.957 180.754 116.489C181.974 115.436 182.119 113.593 181.074 112.364L179.186 110.14Z" fill="#FF1D53"/>
<path d="M119.151 24.8585H84.0077C82.4103 24.8585 81.1033 23.542 81.1033 21.9329C81.1033 20.3238 82.4103 19.0073 84.0077 19.0073H119.151C120.749 19.0073 122.056 20.3238 122.056 21.9329C122.056 23.542 120.749 24.8585 119.151 24.8585Z" fill="#3FCAB5"/>
<path d="M149.241 53.2661C139.482 53.2661 131.553 61.253 131.553 71.0831C131.553 80.9131 139.482 88.9001 149.241 88.9001C159 88.9001 166.929 80.9131 166.929 71.0831C166.929 61.253 159 53.2661 149.241 53.2661Z" fill="white"/>
<path d="M149.241 47.415C136.287 47.415 125.744 58.035 125.744 71.0832C125.744 84.1315 136.287 94.7514 149.241 94.7514C162.194 94.7514 172.738 84.1315 172.738 71.0832C172.738 58.035 162.194 47.415 149.241 47.415ZM131.582 71.0832C131.582 61.2532 139.511 53.2663 149.27 53.2663C159.029 53.2663 166.958 61.2532 166.958 71.0832C166.958 80.9133 159.029 88.9002 149.27 88.9002C139.511 88.9002 131.582 80.9133 131.582 71.0832Z" fill="#FF1D53"/>
</g>
<defs>
<clipPath id="clip0_67_5659">
<rect width="248" height="216" fill="white"/>
</clipPath>
</defs>
</svg>
