<svg width="314" height="216" viewBox="0 0 314 216" fill="none" xmlns="http://www.w3.org/2000/svg">
<g clip-path="url(#clip0_67_5710)">
<path d="M183.077 200.434H81.4495C78.0755 200.434 75.3323 203.18 75.3323 206.559C75.3323 209.937 78.0755 212.684 81.4495 212.684H183.077C186.451 212.684 189.194 209.937 189.194 206.559C189.194 203.149 186.451 200.434 183.077 200.434Z" fill="#FF1D53"/>
<path d="M283.411 191.277V203.591H300.785C298.231 196.424 291.42 191.277 283.411 191.277Z" fill="#1B1B1B"/>
<path d="M243.558 169.922H243.555H20.9714C16.1417 169.922 12.1863 165.992 12.1863 161.125V21.9804C12.1863 17.143 16.1119 13.1831 20.9714 13.1831H243.555C248.385 13.1831 252.34 17.1131 252.34 21.9804V161.125C252.34 165.995 248.414 169.952 243.558 169.922ZM229.713 157.442C234.974 157.442 239.279 153.131 239.279 147.864V35.2728C239.279 30.0058 234.974 25.6943 229.713 25.6943H34.8455C29.5842 25.6943 25.2791 30.0058 25.2791 35.2728V147.864C25.2791 153.131 29.5842 157.442 34.8455 157.442H229.713Z" fill="white" stroke="white" stroke-width="0.78125"/>
<path d="M229.713 26.085H34.8455C29.8004 26.085 25.6697 30.2211 25.6697 35.2728V147.864C25.6697 152.916 29.8004 157.052 34.8455 157.052H229.713C234.758 157.052 238.888 152.916 238.888 147.864V35.2728C238.888 30.2211 234.758 26.085 229.713 26.085ZM64.7062 36.2516C64.7062 35.7464 65.1161 35.3676 65.5891 35.3676H84.9181C85.4226 35.3676 85.801 35.778 85.801 36.2516V41.777C85.801 42.2821 85.3911 42.661 84.9181 42.661H65.5891C65.0846 42.661 64.7062 42.2506 64.7062 41.777V36.2516ZM55.152 35.1465C57.2331 35.1465 58.9043 36.8199 58.9043 38.9038C58.9043 40.9876 57.2331 42.661 55.152 42.661C53.0709 42.661 51.3997 40.9876 51.3997 38.9038C51.3997 36.8199 53.1024 35.1465 55.152 35.1465ZM42.8546 35.1465C44.9357 35.1465 46.6069 36.8199 46.6069 38.9038C46.6069 40.9876 44.9357 42.661 42.8546 42.661C40.7735 42.661 39.1023 40.9876 39.1023 38.9038C39.1023 36.8199 40.7735 35.1465 42.8546 35.1465Z" fill="#1B1B1B"/>
<path d="M39.1025 38.9037C39.1025 39.9002 39.4979 40.8559 40.2016 41.5605C40.9053 42.2651 41.8597 42.661 42.8548 42.661C43.85 42.661 44.8044 42.2651 45.5081 41.5605C46.2118 40.8559 46.6071 39.9002 46.6071 38.9037C46.6071 37.9072 46.2118 36.9516 45.5081 36.247C44.8044 35.5423 43.85 35.1465 42.8548 35.1465C41.8597 35.1465 40.9053 35.5423 40.2016 36.247C39.4979 36.9516 39.1025 37.9072 39.1025 38.9037Z" fill="white"/>
<path d="M51.3999 38.9037C51.3999 39.9002 51.7952 40.8559 52.4989 41.5605C53.2026 42.2651 54.157 42.661 55.1522 42.661C56.1474 42.661 57.1018 42.2651 57.8055 41.5605C58.5092 40.8559 58.9045 39.9002 58.9045 38.9037C58.9045 37.9072 58.5092 36.9516 57.8055 36.247C57.1018 35.5423 56.1474 35.1465 55.1522 35.1465C54.157 35.1465 53.2026 35.5423 52.4989 36.247C51.7952 36.9516 51.3999 37.9072 51.3999 38.9037Z" fill="white"/>
<path d="M65.5892 42.6611H84.9183C85.4228 42.6611 85.8012 42.2507 85.8012 41.7771V36.2517C85.8012 35.7466 85.3912 35.3677 84.9183 35.3677H65.5892C65.0847 35.3677 64.7063 35.7781 64.7063 36.2517V41.7771C64.7063 42.2823 65.1162 42.6611 65.5892 42.6611Z" fill="white"/>
<path d="M283.4 179.06C268.603 179.06 256.231 189.673 253.397 203.708H216.973C213.29 203.708 210.614 202.979 209.669 201.712C209.04 200.857 209.04 199.494 209.04 198.861V182.672H243.638C255.444 182.672 265.014 173.009 265.014 161.16V21.5113C265.014 9.63097 255.412 0 243.638 0H21.3762C9.57049 0 0 9.66265 0 21.5113V161.129C0 173.009 9.60197 182.64 21.3762 182.64H196.793V198.861C196.793 200.381 196.793 204.975 199.91 209.125C203.341 213.687 209.071 216 216.973 216H314V209.854C314 192.873 300.274 179.06 283.4 179.06ZM21.3762 170.38C16.3076 170.38 12.215 166.229 12.215 161.16V21.5113C12.215 16.4107 16.3391 12.2922 21.3762 12.2922H243.607C248.675 12.2922 252.768 16.4424 252.768 21.5113V161.129C252.768 166.229 248.644 170.348 243.607 170.348H21.3762V170.38ZM283.4 203.708H266.053C268.572 196.516 275.403 191.352 283.4 191.352C291.396 191.352 298.228 196.516 300.746 203.708H283.4Z" fill="#FF1D53"/>
<path d="M99.2358 94.6852C99.2358 103.317 102.669 111.596 108.78 117.7C114.891 123.804 123.179 127.233 131.821 127.233C140.463 127.233 148.751 123.804 154.862 117.7C160.973 111.596 164.406 103.317 164.406 94.6852C164.406 86.0529 160.973 77.7742 154.862 71.6703C148.751 65.5664 140.463 62.1372 131.821 62.1372C123.179 62.1372 114.891 65.5664 108.78 71.6703C102.669 77.7742 99.2358 86.0529 99.2358 94.6852Z" fill="#1B1B1B"/>
<path d="M132.103 146.466C131.328 146.466 130.693 145.846 130.693 145.071C130.693 144.297 131.314 143.663 132.089 143.649C132.541 143.649 133.006 143.635 133.457 143.621C134.233 143.592 134.881 144.198 134.91 144.987C134.938 145.762 134.331 146.41 133.542 146.438C133.09 146.452 132.597 146.466 132.103 146.466C132.117 146.466 132.117 146.466 132.103 146.466ZM126.477 146.198C126.434 146.198 126.378 146.198 126.321 146.184L124.883 146.015C124.107 145.917 123.572 145.198 123.67 144.438C123.769 143.663 124.488 143.128 125.25 143.226C125.701 143.282 126.152 143.339 126.604 143.381C127.379 143.466 127.943 144.156 127.859 144.931C127.802 145.663 127.196 146.198 126.477 146.198ZM139.126 145.945C138.435 145.945 137.829 145.438 137.73 144.733C137.617 143.959 138.153 143.254 138.929 143.142L140.283 142.93C141.044 142.804 141.777 143.311 141.918 144.071C142.059 144.832 141.538 145.564 140.776 145.705C140.297 145.79 139.817 145.86 139.338 145.931C139.267 145.945 139.197 145.945 139.126 145.945ZM119.553 144.973C119.44 144.973 119.327 144.959 119.214 144.931C118.749 144.818 118.283 144.691 117.818 144.564C117.071 144.353 116.633 143.578 116.845 142.832C117.056 142.085 117.832 141.649 118.579 141.86C119.017 141.987 119.468 142.099 119.905 142.212C120.667 142.395 121.118 143.17 120.935 143.916C120.751 144.55 120.173 144.973 119.553 144.973ZM146.008 144.438C145.402 144.438 144.837 144.043 144.654 143.423C144.429 142.677 144.866 141.888 145.613 141.677C146.05 141.55 146.487 141.409 146.925 141.268C147.672 141.029 148.462 141.437 148.701 142.17C148.941 142.916 148.532 143.705 147.799 143.945C147.348 144.099 146.868 144.24 146.417 144.367C146.276 144.423 146.149 144.438 146.008 144.438ZM112.84 142.789C112.657 142.789 112.487 142.761 112.304 142.691C111.853 142.508 111.402 142.325 110.964 142.127C110.245 141.818 109.921 140.986 110.245 140.268C110.555 139.55 111.387 139.226 112.107 139.55C112.53 139.733 112.953 139.916 113.376 140.085C114.095 140.381 114.448 141.198 114.151 141.916C113.926 142.465 113.404 142.789 112.84 142.789ZM152.622 142.001C152.086 142.001 151.578 141.691 151.339 141.17C151.014 140.465 151.324 139.62 152.044 139.31C152.453 139.127 152.876 138.93 153.285 138.733C153.99 138.395 154.836 138.676 155.174 139.381C155.513 140.085 155.231 140.93 154.526 141.268C154.088 141.479 153.651 141.691 153.214 141.888C153.003 141.958 152.805 142.001 152.622 142.001ZM106.508 139.691C106.268 139.691 106.029 139.634 105.803 139.493C105.394 139.254 104.971 139 104.562 138.747C103.899 138.338 103.688 137.465 104.111 136.803C104.52 136.141 105.394 135.93 106.057 136.352C106.452 136.592 106.847 136.831 107.227 137.056C107.904 137.451 108.13 138.31 107.735 138.986C107.467 139.451 107.002 139.691 106.508 139.691ZM158.813 138.648C158.347 138.648 157.896 138.423 157.614 138C157.191 137.338 157.388 136.479 158.051 136.056C158.432 135.817 158.813 135.563 159.193 135.31C159.347 135.206 159.52 135.133 159.701 135.096C159.883 135.059 160.07 135.058 160.253 135.093C160.435 135.128 160.608 135.199 160.763 135.302C160.917 135.404 161.05 135.536 161.154 135.69C161.258 135.843 161.33 136.016 161.368 136.197C161.405 136.379 161.406 136.566 161.37 136.748C161.335 136.93 161.264 137.103 161.161 137.258C161.059 137.412 160.927 137.545 160.773 137.648C160.378 137.916 159.969 138.183 159.56 138.437C159.32 138.578 159.066 138.648 158.813 138.648ZM100.684 135.746C100.374 135.746 100.078 135.648 99.8096 135.451C99.4289 135.155 99.0481 134.845 98.6815 134.535C98.0892 134.042 98.0046 133.155 98.4981 132.549C98.9917 131.957 99.8801 131.873 100.487 132.366C100.839 132.662 101.192 132.943 101.558 133.225C102.165 133.704 102.277 134.591 101.798 135.197C101.516 135.563 101.093 135.746 100.684 135.746ZM164.468 134.479C164.073 134.479 163.678 134.31 163.396 133.986C162.888 133.394 162.959 132.507 163.551 132C163.903 131.704 164.242 131.408 164.58 131.098C165.159 130.577 166.047 130.619 166.569 131.197C167.091 131.774 167.048 132.662 166.47 133.183C166.117 133.507 165.751 133.831 165.384 134.141C165.116 134.366 164.792 134.479 164.468 134.479ZM95.4521 131.028C95.0854 131.028 94.7188 130.887 94.4368 130.591C94.0983 130.253 93.774 129.887 93.4496 129.534C92.9278 128.957 92.9701 128.07 93.5483 127.548C94.1265 127.027 95.0149 127.069 95.5367 127.647C95.847 127.985 96.1572 128.323 96.4674 128.647C97.0033 129.211 96.9892 130.098 96.4251 130.633C96.1572 130.901 95.8047 131.028 95.4521 131.028ZM169.502 129.563C169.164 129.563 168.839 129.45 168.571 129.211C167.993 128.689 167.937 127.802 168.458 127.224C168.755 126.886 169.065 126.534 169.361 126.182C169.869 125.59 170.757 125.506 171.349 126.013C171.942 126.52 172.026 127.407 171.519 127.999C171.208 128.365 170.884 128.732 170.574 129.098C170.278 129.394 169.897 129.563 169.502 129.563ZM90.9394 125.633C90.5023 125.633 90.0792 125.435 89.7972 125.055C89.5151 124.661 89.2331 124.266 88.9652 123.872C88.528 123.224 88.6831 122.351 89.3318 121.914C89.9805 121.477 90.8548 121.632 91.292 122.28C91.5458 122.66 91.8138 123.027 92.0817 123.393C92.533 124.027 92.392 124.9 91.7715 125.365C91.5176 125.548 91.2215 125.633 90.9394 125.633ZM173.817 123.985C173.549 123.985 173.281 123.914 173.042 123.745C172.393 123.308 172.224 122.435 172.647 121.787C172.901 121.407 173.154 121.027 173.394 120.632C173.803 119.97 174.677 119.773 175.34 120.181C176.003 120.59 176.2 121.463 175.791 122.125C175.538 122.534 175.27 122.942 175.002 123.337C174.72 123.773 174.268 123.985 173.817 123.985ZM87.2024 119.674C86.6947 119.674 86.2153 119.407 85.9614 118.928C85.7358 118.505 85.5102 118.068 85.2986 117.646C84.9461 116.956 85.2422 116.11 85.9332 115.758C86.6383 115.406 87.4703 115.702 87.8229 116.392C88.0203 116.801 88.2318 117.209 88.4434 117.604C88.81 118.294 88.5421 119.139 87.8652 119.505C87.6537 119.618 87.428 119.674 87.2024 119.674ZM177.3 117.871C177.089 117.871 176.891 117.829 176.694 117.73C175.989 117.392 175.693 116.547 176.031 115.857C176.229 115.448 176.426 115.026 176.609 114.617C176.934 113.913 177.766 113.589 178.471 113.899C179.176 114.223 179.5 115.054 179.19 115.758C178.993 116.195 178.795 116.646 178.584 117.068C178.33 117.575 177.822 117.871 177.3 117.871ZM84.3538 113.237C83.7756 113.237 83.2397 112.885 83.0282 112.307C82.859 111.856 82.7038 111.392 82.5487 110.941C82.309 110.208 82.7038 109.406 83.4513 109.166C84.1846 108.927 84.9884 109.321 85.2281 110.068C85.3691 110.504 85.5243 110.941 85.6794 111.363C85.9473 112.096 85.5666 112.899 84.8333 113.166C84.6781 113.223 84.5089 113.237 84.3538 113.237ZM179.895 111.321C179.754 111.321 179.613 111.293 179.472 111.251C178.725 111.011 178.316 110.223 178.556 109.476C178.697 109.039 178.823 108.603 178.95 108.166C179.162 107.419 179.952 106.983 180.699 107.194C181.446 107.405 181.884 108.194 181.672 108.941C181.545 109.406 181.404 109.87 181.249 110.321C181.052 110.941 180.502 111.321 179.895 111.321ZM82.4218 106.476C81.7731 106.476 81.1808 106.025 81.0398 105.363C80.9411 104.898 80.8424 104.419 80.7578 103.94C80.6167 103.179 81.1244 102.447 81.9 102.306C82.6615 102.165 83.3948 102.672 83.5359 103.447C83.6205 103.898 83.7051 104.349 83.8038 104.785C83.9589 105.546 83.4795 106.292 82.7179 106.447C82.6192 106.462 82.5205 106.476 82.4218 106.476ZM181.545 104.489C181.475 104.489 181.39 104.489 181.305 104.475C180.544 104.349 180.022 103.616 180.149 102.855L180.361 101.503C180.473 100.729 181.178 100.193 181.954 100.306C182.73 100.419 183.266 101.123 183.153 101.898C183.082 102.377 183.012 102.856 182.927 103.334C182.828 103.996 182.222 104.489 181.545 104.489ZM81.4629 99.503C80.7296 99.503 80.1091 98.9396 80.0527 98.193C80.0245 97.7141 79.9962 97.2211 79.9821 96.7422C79.9539 95.9674 80.5603 95.3054 81.3359 95.2772C82.1116 95.249 82.7744 95.8547 82.8026 96.6295C82.8167 97.0802 82.8449 97.5451 82.8731 97.9958C82.9295 98.7705 82.3372 99.4467 81.5616 99.4889C81.5193 99.503 81.4911 99.503 81.4629 99.503ZM182.236 97.4887H182.194C181.418 97.4605 180.798 96.8267 180.826 96.0379C180.84 95.5871 180.84 95.1223 180.84 94.6715C180.84 93.8968 181.475 93.2629 182.25 93.2629C183.026 93.2629 183.66 93.8968 183.66 94.6715C183.66 95.1504 183.66 95.6434 183.646 96.1224C183.618 96.883 182.998 97.4887 182.236 97.4887ZM81.477 92.4741H81.3783C80.6026 92.4177 80.0104 91.7416 80.0668 90.9669C80.095 90.4879 80.1373 90.009 80.1937 89.5301C80.2642 88.7554 80.9552 88.1919 81.7308 88.2623C82.5064 88.3328 83.0705 89.023 83 89.7977C82.9577 90.2485 82.9154 90.7133 82.8872 91.1641C82.8308 91.9106 82.2103 92.4741 81.477 92.4741ZM181.954 90.6429C181.249 90.6429 180.629 90.1076 180.558 89.3892C180.516 88.9385 180.459 88.4877 180.389 88.037C180.29 87.2622 180.826 86.5579 181.602 86.4452C182.377 86.3466 183.082 86.8819 183.195 87.6566C183.266 88.1356 183.322 88.6145 183.364 89.0934C183.449 89.8682 182.885 90.5584 182.109 90.6429H181.954ZM82.4641 85.5015C82.3654 85.5015 82.2667 85.4874 82.168 85.4733C81.4065 85.3043 80.927 84.5577 81.0821 83.7971C81.1808 83.3181 81.2936 82.8533 81.4065 82.3885C81.5898 81.6278 82.3513 81.163 83.1128 81.3461C83.8743 81.5292 84.3397 82.2899 84.1564 83.0505C84.0435 83.4872 83.9448 83.9379 83.8461 84.3887C83.691 85.0507 83.1128 85.5015 82.4641 85.5015ZM180.713 83.7125C180.079 83.7125 179.514 83.29 179.345 82.642C179.232 82.2053 179.12 81.7546 178.993 81.3179C178.781 80.5714 179.218 79.7966 179.966 79.5853C180.713 79.374 181.489 79.8107 181.7 80.5573L182.081 81.9518C182.278 82.7124 181.813 83.4731 181.052 83.6562C180.953 83.6985 180.84 83.7125 180.713 83.7125ZM84.4102 78.7402C84.2551 78.7402 84.0858 78.712 83.9307 78.6557C83.1974 78.388 82.8308 77.5851 83.0987 76.8526C83.2679 76.4019 83.4372 75.9511 83.6205 75.5004C83.9025 74.782 84.7345 74.4298 85.4537 74.7116C86.1729 74.9933 86.5255 75.8244 86.2435 76.5427C86.0742 76.9653 85.905 77.402 85.7499 77.8246C85.5243 78.388 84.9884 78.7402 84.4102 78.7402ZM178.527 77.0358C177.977 77.0358 177.441 76.7118 177.216 76.1624C177.047 75.7398 176.863 75.3173 176.68 74.9088C176.37 74.1904 176.694 73.3593 177.399 73.0494C178.118 72.7395 178.95 73.0635 179.261 73.7678C179.458 74.2045 179.641 74.6552 179.825 75.0919C180.121 75.8103 179.768 76.6413 179.049 76.9231C178.88 76.9935 178.697 77.0358 178.527 77.0358ZM87.3011 72.3169C87.0755 72.3169 86.8498 72.2606 86.6383 72.1479C85.9473 71.7817 85.6935 70.9224 86.0601 70.2463C86.2858 69.8237 86.5255 69.387 86.7652 68.9785C87.146 68.3024 88.0203 68.0629 88.6831 68.4573C89.36 68.8377 89.5997 69.711 89.2049 70.3731C88.9793 70.7675 88.7536 71.176 88.5421 71.5704C88.2883 72.0493 87.7947 72.3169 87.3011 72.3169ZM175.411 70.7252C174.931 70.7252 174.452 70.4717 174.198 70.0209C173.972 69.6265 173.733 69.2321 173.493 68.8518C173.084 68.1897 173.281 67.3164 173.944 66.9079C174.607 66.4994 175.481 66.6966 175.89 67.3586C176.144 67.7671 176.398 68.1756 176.638 68.5982C177.032 69.2743 176.807 70.1336 176.13 70.528C175.904 70.6689 175.65 70.7252 175.411 70.7252ZM91.0523 66.3585C90.7702 66.3585 90.4741 66.274 90.2202 66.0909C89.5856 65.626 89.4587 64.7527 89.91 64.1188C90.192 63.7244 90.4882 63.3441 90.7843 62.9638C91.2638 62.344 92.1522 62.2313 92.7586 62.7102C93.3791 63.1892 93.4919 64.0766 93.0124 64.6823C92.7304 65.0344 92.4625 65.4007 92.1945 65.781C91.9125 66.1613 91.4894 66.3585 91.0523 66.3585ZM171.448 64.9077C171.025 64.9077 170.616 64.7245 170.334 64.3724C170.052 64.0202 169.77 63.654 169.474 63.3159C168.98 62.7243 169.051 61.8369 169.657 61.3298C170.249 60.8368 171.138 60.9072 171.646 61.5129C171.956 61.8792 172.266 62.2595 172.562 62.6398C173.042 63.2455 172.943 64.1329 172.322 64.6119C172.069 64.8091 171.758 64.9077 171.448 64.9077ZM95.5931 60.9777C95.2406 60.9777 94.888 60.8509 94.606 60.5832C94.0419 60.048 94.0278 59.1465 94.5778 58.5971C94.9162 58.259 95.2547 57.9069 95.6072 57.5688C96.1713 57.0195 97.0597 57.0336 97.5956 57.597C98.1456 58.1604 98.1315 59.0479 97.5674 59.5831L96.5944 60.5551C96.3264 60.8368 95.9598 60.9777 95.5931 60.9777ZM166.71 59.7099C166.357 59.7099 166.005 59.5831 165.737 59.3155C165.412 59.0056 165.074 58.6816 164.735 58.3858C164.157 57.8646 164.115 56.9772 164.637 56.3997C165.159 55.8222 166.047 55.7799 166.625 56.3011C166.978 56.6251 167.344 56.9631 167.683 57.2871C168.247 57.8224 168.261 58.7239 167.725 59.2732C167.457 59.555 167.091 59.7099 166.71 59.7099ZM100.839 56.287C100.416 56.287 100.007 56.1039 99.725 55.7376C99.2456 55.1179 99.3584 54.2445 99.9648 53.7656C100.346 53.4698 100.726 53.174 101.121 52.8923C101.756 52.4274 102.63 52.5683 103.095 53.1881C103.561 53.8219 103.42 54.6953 102.799 55.1601C102.433 55.4277 102.066 55.7095 101.713 55.9912C101.445 56.1884 101.135 56.287 100.839 56.287ZM161.309 55.2024C161.027 55.2024 160.73 55.1179 160.491 54.9347C160.124 54.6671 159.743 54.3995 159.363 54.1459C158.714 53.7092 158.559 52.8359 158.996 52.188C159.433 51.54 160.307 51.385 160.956 51.8217C161.351 52.0894 161.76 52.3711 162.141 52.6528C162.775 53.1035 162.916 53.991 162.465 54.6248C162.169 54.9911 161.746 55.2024 161.309 55.2024ZM106.677 52.357C106.184 52.357 105.718 52.1034 105.45 51.6527C105.056 50.9766 105.295 50.1173 105.972 49.7229C106.395 49.4834 106.818 49.244 107.241 49.0186C107.932 48.6524 108.779 48.9059 109.145 49.5961C109.512 50.2863 109.258 51.1315 108.567 51.4977C108.172 51.709 107.763 51.9344 107.368 52.1598C107.157 52.3006 106.917 52.357 106.677 52.357ZM155.315 51.4837C155.09 51.4837 154.864 51.4273 154.653 51.3146C154.244 51.1033 153.835 50.892 153.426 50.6948C152.721 50.3568 152.438 49.5116 152.777 48.8073C153.115 48.103 153.962 47.8213 154.667 48.1593C155.104 48.3706 155.527 48.596 155.964 48.8214C156.655 49.1876 156.923 50.0328 156.556 50.723C156.317 51.216 155.823 51.4837 155.315 51.4837ZM113.009 49.3003C112.445 49.3003 111.923 48.9622 111.698 48.4129C111.402 47.6945 111.754 46.8775 112.487 46.5817C112.939 46.3986 113.39 46.2296 113.841 46.0605C114.574 45.7929 115.378 46.1591 115.646 46.8916C115.914 47.6241 115.548 48.427 114.814 48.6946C114.391 48.8496 113.954 49.0186 113.531 49.1876C113.362 49.2581 113.192 49.3003 113.009 49.3003ZM148.871 48.6383C148.716 48.6383 148.546 48.6101 148.391 48.5538C147.954 48.3988 147.517 48.2439 147.094 48.103C146.361 47.8635 145.952 47.0606 146.191 46.3282C146.431 45.5957 147.235 45.1872 147.968 45.4266C148.419 45.5816 148.885 45.7365 149.35 45.9056C150.083 46.1732 150.464 46.9761 150.196 47.7086C149.985 48.2861 149.449 48.6383 148.871 48.6383ZM119.722 47.1311C119.087 47.1311 118.509 46.6944 118.354 46.0605C118.171 45.2999 118.636 44.5392 119.383 44.3561C119.849 44.2434 120.328 44.1307 120.793 44.0321C121.555 43.8631 122.302 44.3561 122.472 45.1168C122.641 45.8774 122.147 46.624 121.386 46.793C120.949 46.8916 120.497 46.9902 120.046 47.1029C119.947 47.1311 119.82 47.1311 119.722 47.1311ZM142.088 46.7366C141.989 46.7366 141.89 46.7226 141.806 46.7085C141.368 46.6099 140.903 46.5254 140.466 46.4549C139.704 46.3141 139.183 45.5816 139.324 44.8209C139.465 44.0603 140.198 43.5391 140.959 43.68C141.439 43.7645 141.918 43.8631 142.384 43.9476C143.145 44.1026 143.639 44.8491 143.484 45.6098C143.329 46.2718 142.736 46.7366 142.088 46.7366ZM126.66 45.9478C125.941 45.9478 125.334 45.4126 125.264 44.6801C125.179 43.9054 125.743 43.2151 126.519 43.1306L127.957 43.0038C128.733 42.9475 129.41 43.525 129.466 44.2998C129.523 45.0745 128.944 45.7506 128.169 45.807C127.718 45.8351 127.252 45.8774 126.801 45.9197C126.745 45.9337 126.702 45.9478 126.66 45.9478ZM135.107 45.7929H135.008C134.557 45.7647 134.092 45.7365 133.64 45.7225C132.865 45.6943 132.258 45.0463 132.287 44.2575C132.315 43.4828 132.964 42.8771 133.753 42.9052C134.233 42.9193 134.726 42.9475 135.206 42.9757C135.981 43.032 136.574 43.6941 136.517 44.4688C136.461 45.2154 135.84 45.7929 135.107 45.7929Z" fill="white"/>
<path d="M169.59 57.6987C167.546 57.6987 165.887 59.3563 165.887 61.3974C165.887 63.4385 167.546 65.096 169.59 65.096C171.633 65.096 173.292 63.4385 173.292 61.3974C173.292 59.3563 171.633 57.6987 169.59 57.6987Z" fill="#1B1B1B"/>
<path d="M169.59 54.7397C165.917 54.7397 162.925 57.7286 162.925 61.3973C162.925 65.066 165.917 68.0548 169.59 68.0548C173.263 68.0548 176.255 65.066 176.255 61.3973C176.255 57.7286 173.263 54.7397 169.59 54.7397ZM165.747 61.3973C165.747 59.2867 167.463 57.5727 169.575 57.5727C171.688 57.5727 173.404 59.2867 173.404 61.3973C173.404 63.5079 171.688 65.2218 169.575 65.2218C167.463 65.2218 165.747 63.5079 165.747 61.3973Z" fill="white"/>
<path d="M161.731 81.3696H101.896C101.456 81.8505 101.058 82.3461 100.717 82.8491H162.925C162.569 82.3461 162.172 81.8505 161.731 81.3696Z" fill="#3FCAB5"/>
<path d="M159.051 67.4854C151.781 60.2237 142.112 56.2192 131.821 56.2192C121.53 56.2192 111.86 60.2237 104.59 67.4854C97.3203 74.7471 93.3113 84.4058 93.3113 94.685C93.3113 104.964 97.3203 114.623 104.59 121.885C111.86 129.146 121.53 133.151 131.821 133.151C142.112 133.151 151.781 129.146 159.051 121.885C166.321 114.623 170.33 104.964 170.33 94.685C170.33 84.4058 166.335 74.7471 159.051 67.4854ZM102.459 109.392H114.754C114.909 109.843 115.079 110.294 115.248 110.745C116.801 114.75 118.961 118.585 121.657 122.138C123.097 124.028 124.523 125.635 125.821 126.947C115.587 125.057 107.004 118.416 102.459 109.392ZM130.409 127.398C128.715 125.931 126.259 123.563 123.831 120.348C121.756 117.598 119.469 113.918 117.761 109.378H130.409V127.398ZM133.232 127.398V109.392H145.881C144.173 113.918 141.886 117.612 139.811 120.362C137.383 123.577 134.926 125.931 133.232 127.398ZM137.834 126.961C139.133 125.635 140.559 124.042 141.999 122.152C144.709 118.585 146.869 114.764 148.407 110.759C148.577 110.308 148.746 109.857 148.902 109.406H161.197C156.651 118.416 148.069 125.057 137.834 126.961ZM162.453 106.572H149.777C150.807 102.835 151.33 98.9715 151.33 95.0375C151.33 91.1317 150.807 87.2682 149.791 83.5034H146.841C147.857 86.9721 148.492 90.8215 148.492 95.0375C148.492 99.2676 147.843 103.131 146.826 106.572H133.232V83.5175H130.409V106.572H116.815C115.799 103.131 115.149 99.2817 115.149 95.0375C115.149 90.8356 115.799 86.9721 116.801 83.5034H113.851C112.834 87.2682 112.312 91.1317 112.312 95.0375C112.312 98.9715 112.834 102.821 113.865 106.572H101.188C99.7483 102.877 98.9578 98.8728 98.9578 94.685C98.9578 90.7651 99.6495 87.0003 100.92 83.5175C101.273 82.5587 101.668 81.614 102.092 80.6974C106.567 71.2502 115.432 64.2564 126.047 62.367C124.692 63.7911 123.167 65.5255 121.643 67.5982C118.947 71.2643 116.787 75.1842 115.234 79.231C115.05 79.7104 114.881 80.2039 114.712 80.6974H117.718C119.441 76.0443 121.756 72.209 123.845 69.3467C126.273 66.0472 128.715 63.5937 130.409 62.0568V80.6974H133.232V62.0568C134.926 63.5937 137.368 66.0613 139.796 69.3467C141.9 72.209 144.215 76.0302 145.923 80.6974H148.93C148.76 80.2039 148.591 79.7245 148.407 79.231C146.855 75.1701 144.709 71.2643 141.999 67.5982C140.488 65.5255 138.964 63.777 137.608 62.367C148.224 64.2564 157.089 71.2502 161.564 80.6974C162.001 81.614 162.397 82.5587 162.736 83.5175C164.006 87.0003 164.698 90.7651 164.698 94.685C164.684 98.8728 163.893 102.891 162.453 106.572Z" fill="white"/>
<path d="M157 108L194.886 108M173.838 108L173.838 147.945M182.257 118.512V147.945M182.257 118.635C184.562 118.635 188.249 117.965 193.779 119.752C200.693 121.986 196.084 134.274 183.409 133.157M182.257 133.344C184.267 133.344 187.483 132.716 192.306 134.391C198.336 136.484 193.311 148.93 182.257 147.883" stroke="white" stroke-width="2" stroke-linecap="round"/>
</g>
<defs>
<clipPath id="clip0_67_5710">
<rect width="314" height="216" fill="white"/>
</clipPath>
</defs>
</svg>
