<svg width="312" height="215" viewBox="0 0 312 215" fill="none" xmlns="http://www.w3.org/2000/svg">
<g clip-path="url(#clip0_61_4051)">
<path d="M181.911 199.506H80.9308C77.5783 199.506 74.8525 202.24 74.8525 205.602C74.8525 208.965 77.5783 211.699 80.9308 211.699H181.911C185.263 211.699 187.989 208.965 187.989 205.602C187.989 202.208 185.263 199.506 181.911 199.506Z" fill="white"/>
<path d="M281.606 190.392V202.648H298.869C296.332 195.514 289.564 190.392 281.606 190.392Z" fill="#FF1D53"/>
<path d="M251.121 160.379V21.8787C251.121 16.8189 247.017 12.7334 242.004 12.7334H20.8378C15.7935 12.7334 11.7205 16.8504 11.7205 21.8787V160.379C11.7205 165.439 15.8248 169.524 20.8378 169.524H242.004C247.048 169.556 251.121 165.439 251.121 160.379ZM237.367 147.179C237.367 152.208 233.262 156.325 228.25 156.325H34.6235C29.6105 156.325 25.5061 152.208 25.5061 147.179V35.1096C25.5061 30.0812 29.6105 25.9643 34.6235 25.9643H228.25C233.262 25.9643 237.367 30.0812 237.367 35.1096V147.179Z" fill="#1B1B1B"/>
<path d="M228.249 25.9644H34.6234C29.6105 25.9644 25.5061 30.0813 25.5061 35.1097V147.179C25.5061 152.208 29.6105 156.325 34.6234 156.325H228.249C233.262 156.325 237.367 152.208 237.367 147.179V35.1097C237.367 30.0813 233.262 25.9644 228.249 25.9644ZM64.294 36.0839C64.294 35.5811 64.7013 35.204 65.1712 35.204H84.3772C84.8785 35.204 85.2545 35.6125 85.2545 36.0839V41.5837C85.2545 42.0865 84.8471 42.4637 84.3772 42.4637H65.1712C64.6699 42.4637 64.294 42.0551 64.294 41.5837V36.0839ZM54.8007 34.984C56.8685 34.984 58.529 36.6496 58.529 38.7238C58.529 40.798 56.8685 42.4637 54.8007 42.4637C52.7328 42.4637 51.0723 40.798 51.0723 38.7238C51.0723 36.6496 52.7641 34.984 54.8007 34.984ZM42.5815 34.984C44.6494 34.984 46.3099 36.6496 46.3099 38.7238C46.3099 40.798 44.6494 42.4637 42.5815 42.4637C40.5137 42.4637 38.8531 40.798 38.8531 38.7238C38.8531 36.6496 40.5137 34.984 42.5815 34.984Z" fill="#FF1D53"/>
<path d="M38.8535 38.7237C38.8535 39.7156 39.2463 40.6668 39.9455 41.3682C40.6447 42.0696 41.5931 42.4636 42.5819 42.4636C43.5707 42.4636 44.5191 42.0696 45.2183 41.3682C45.9175 40.6668 46.3103 39.7156 46.3103 38.7237C46.3103 37.7319 45.9175 36.7806 45.2183 36.0793C44.5191 35.3779 43.5707 34.9839 42.5819 34.9839C41.5931 34.9839 40.6447 35.3779 39.9455 36.0793C39.2463 36.7806 38.8535 37.7319 38.8535 38.7237Z" fill="#1B1B1B"/>
<path d="M51.0725 38.7237C51.0725 39.7156 51.4653 40.6668 52.1645 41.3682C52.8637 42.0696 53.8121 42.4636 54.8009 42.4636C55.7897 42.4636 56.7381 42.0696 57.4373 41.3682C58.1365 40.6668 58.5293 39.7156 58.5293 38.7237C58.5293 37.7319 58.1365 36.7806 57.4373 36.0793C56.7381 35.3779 55.7897 34.9839 54.8009 34.9839C53.8121 34.9839 52.8637 35.3779 52.1645 36.0793C51.4653 36.7806 51.0725 37.7319 51.0725 38.7237Z" fill="#1B1B1B"/>
<path d="M65.1715 42.4636H84.3774C84.8787 42.4636 85.2547 42.055 85.2547 41.5836V36.0838C85.2547 35.581 84.8474 35.2039 84.3774 35.2039H65.1715C64.6702 35.2039 64.2942 35.6124 64.2942 36.0838V41.5836C64.2942 42.0864 64.7015 42.4636 65.1715 42.4636Z" fill="#1B1B1B"/>
<path d="M281.595 178.231C266.892 178.231 254.599 188.795 251.783 202.765H215.591C211.931 202.765 209.272 202.039 208.334 200.778C207.708 199.927 207.708 198.571 207.708 197.94V181.826H242.086C253.817 181.826 263.326 172.208 263.326 160.414V21.4117C263.326 9.58639 253.785 0 242.086 0H21.24C9.50953 0 0 9.61792 0 21.4117V160.383C0 172.208 9.54081 181.795 21.24 181.795H195.54V197.94C195.54 199.454 195.54 204.026 198.636 208.157C202.046 212.698 207.739 215 215.591 215H312V208.882C312 191.98 298.361 178.231 281.595 178.231ZM21.24 169.591C16.2037 169.591 12.1372 165.46 12.1372 160.414V21.4117C12.1372 16.3347 16.235 12.2353 21.24 12.2353H242.055C247.091 12.2353 251.158 16.3662 251.158 21.4117V160.383C251.158 165.46 247.06 169.559 242.055 169.559H21.24V169.591ZM281.595 202.765H264.359C266.861 195.606 273.649 190.466 281.595 190.466C289.54 190.466 296.328 195.606 298.831 202.765H281.595Z" fill="white"/>
<path d="M132.453 38.2877L76.5283 78.2297L97.8842 142.843H167.021L188.377 78.2297L132.453 38.2877Z" fill="#1B1B1B"/>
<path d="M161.887 125.21C161.887 121.932 159.573 119.281 156.743 119.281C155.287 119.281 153.967 119.987 153.027 121.1L158.947 130.56C160.676 129.603 161.887 127.563 161.887 125.21ZM151.585 125.21C151.585 128.16 153.463 130.607 155.899 131.062L151.653 124.269C151.612 124.583 151.585 124.897 151.585 125.21Z" fill="#3FCAB5"/>
<path d="M157.472 130.551L152.694 122.226C152.123 122.972 151.728 123.938 151.585 125.015L155.012 130.993C155.231 131.034 155.451 131.062 155.682 131.062C156.33 131.062 156.934 130.882 157.472 130.551Z" fill="#3FCAB5"/>
<path d="M135.635 122.123C135.286 121.42 134.377 121.11 133.619 121.434C132.861 121.757 132.527 122.602 132.876 123.305C133.103 123.769 133.361 124.22 133.619 124.656C133.892 125.12 134.407 125.373 134.938 125.373C135.195 125.373 135.438 125.317 135.68 125.19C136.408 124.81 136.666 123.952 136.256 123.277C136.044 122.911 135.817 122.517 135.635 122.123ZM134.089 117.157C134.043 116.735 134.013 116.341 134.013 115.975V115.933C134.013 115.159 133.346 114.526 132.512 114.512H132.497C131.663 114.512 130.981 115.131 130.981 115.905V115.975C130.981 116.453 131.012 116.96 131.072 117.48C131.163 118.198 131.815 118.733 132.573 118.733C132.633 118.733 132.694 118.733 132.74 118.719C133.588 118.634 134.18 117.931 134.089 117.157ZM140.819 127.948C140.44 127.723 140.076 127.469 139.728 127.202C139.076 126.71 138.121 126.794 137.59 127.399C137.06 128.004 137.151 128.89 137.802 129.383C138.242 129.72 138.697 130.03 139.151 130.311C139.409 130.466 139.697 130.537 139.985 130.537C140.485 130.537 140.97 130.311 141.258 129.903C141.713 129.242 141.516 128.37 140.819 127.948ZM147.185 129.735C146.731 129.72 146.261 129.692 145.821 129.636C144.987 129.538 144.23 130.086 144.123 130.846C144.017 131.62 144.608 132.323 145.427 132.422C145.973 132.492 146.518 132.52 147.079 132.534H147.125C147.943 132.534 148.61 131.929 148.641 131.17C148.671 130.396 148.019 129.749 147.185 129.735ZM136.514 108.476C135.802 108.068 134.862 108.293 134.437 108.955C134.164 109.377 133.907 109.771 133.649 110.136C133.209 110.798 133.422 111.67 134.134 112.078C134.377 112.219 134.665 112.289 134.938 112.289C135.438 112.289 135.938 112.05 136.226 111.628C136.499 111.22 136.772 110.812 137.029 110.404C137.469 109.743 137.226 108.884 136.514 108.476ZM141.122 96.6021C140.94 97.0241 140.758 97.4603 140.576 97.8823C140.258 98.5999 140.622 99.4299 141.395 99.7254C141.592 99.7957 141.789 99.8379 141.971 99.8379C142.562 99.8379 143.123 99.5144 143.365 98.9657C143.563 98.5155 143.76 98.0652 143.942 97.6291C144.245 96.9116 143.851 96.0956 143.077 95.8142C142.85 95.7298 142.623 95.7017 142.395 95.7298L141.759 95.9268C141.486 96.0534 141.243 96.2925 141.122 96.6021Z" fill="white"/>
<path d="M132.46 38.2877L76.5283 78.2297L97.8869 142.843H167.019L188.377 78.2297L132.46 38.2877ZM133.896 46.3043L180.219 79.3729L174.014 81.377L133.896 52.7402V46.3043ZM133.896 56.2263L170.638 82.4638L145.775 90.4804C145.861 90.1558 145.933 89.8171 146.005 89.4925C146.163 88.7303 145.674 87.9823 144.899 87.827C144.123 87.6718 143.362 88.1517 143.204 88.9138C143.118 89.3372 143.003 89.7889 142.888 90.2405C142.787 90.6357 142.874 91.045 143.075 91.3555L135.922 93.6701C135.419 92.9786 134.715 92.4564 133.896 92.16V56.2263ZM83.825 82.0263L94.2817 85.3289C94.4684 84.3833 94.77 83.4941 95.201 82.6473L84.7299 79.3447L131.024 46.2902V69.6062C130.937 69.5921 130.866 69.5779 130.779 69.5779C130.262 69.5497 129.745 69.5497 129.228 69.5638C128.438 69.5921 127.806 70.2413 127.835 71.0175C127.864 71.7938 128.51 72.4148 129.314 72.3866C129.76 72.3725 130.205 72.3725 130.636 72.4007H130.708C130.823 72.4007 130.923 72.3866 131.024 72.3584V92.1459C130.305 92.3999 129.688 92.8233 129.214 93.3879L115.037 88.9138C114.879 89.8594 114.592 90.7627 114.19 91.6095L128.208 96.0413V96.0695C128.208 97.0857 128.582 98.0172 129.199 98.737L101.535 135.574L83.825 82.0263ZM103.891 137.197L131.699 100.191C131.943 100.233 132.201 100.261 132.46 100.261C132.704 100.261 132.948 100.233 133.193 100.205L148.289 120.754C147.728 121.855 147.412 123.097 147.412 124.41C147.412 128.912 151.133 132.568 155.715 132.568C156.117 132.568 156.519 132.539 156.907 132.483L160.368 137.211H103.891V137.197ZM150.271 124.396C150.271 124.114 150.3 123.831 150.343 123.549C150.515 122.448 151.046 121.46 151.793 120.698C152.784 119.682 154.178 119.061 155.715 119.061C158.717 119.061 161.144 121.46 161.144 124.396C161.144 126.513 159.88 128.348 158.042 129.209C157.338 129.547 156.548 129.731 155.7 129.731C155.399 129.731 155.111 129.703 154.824 129.66C152.253 129.251 150.271 127.049 150.271 124.396ZM163.184 136.209L159.751 131.523C162.293 130.126 164.017 127.458 164.017 124.396C164.017 119.894 160.297 116.238 155.715 116.238C153.546 116.238 151.578 117.057 150.098 118.397L139.972 104.608C140.044 104.524 140.116 104.425 140.173 104.326C140.403 103.903 140.633 103.465 140.848 103.056C141.207 102.364 140.92 101.517 140.216 101.165C139.513 100.812 138.651 101.094 138.292 101.786C138.234 101.884 138.177 101.997 138.134 102.096L135.692 98.7793C136.266 98.116 136.625 97.2833 136.697 96.38L141.768 94.7428C141.954 94.6299 142.155 94.5593 142.371 94.5452L181.081 82.0545L163.184 136.209Z" fill="white"/>
<path d="M110.49 78.9992L110.377 79.1159C111.165 79.6703 111.867 80.3268 112.472 81.0709L112.514 81.0271C113.048 80.4436 113.034 79.5244 112.472 78.97C111.923 78.401 111.038 78.4156 110.49 78.9992ZM142.802 82.9092C142.844 83.3324 142.872 83.7846 142.886 84.2369C142.9 85.0248 143.533 85.6522 144.292 85.6522H144.334C145.107 85.6376 145.725 84.9664 145.697 84.1494C145.683 83.6096 145.655 83.0843 145.599 82.5737C145.515 81.7712 144.812 81.2022 144.053 81.2898C143.266 81.3773 142.718 82.1068 142.802 82.9092ZM115.746 77.6423C116.027 77.6423 116.323 77.5548 116.576 77.3651C116.941 77.0879 117.306 76.8253 117.686 76.5626C118.332 76.1249 118.515 75.2204 118.08 74.5346C117.658 73.8635 116.772 73.6738 116.126 74.1261C115.718 74.4033 115.311 74.6951 114.917 75.0015C114.285 75.483 114.144 76.3876 114.608 77.0441C114.889 77.438 115.325 77.6423 115.746 77.6423ZM136.351 74.1991C136.534 74.2866 136.73 74.3304 136.913 74.3304C137.447 74.3304 137.967 74.0094 138.206 73.455C138.515 72.7109 138.206 71.8501 137.489 71.5291C137.025 71.3249 136.562 71.1206 136.098 70.9455C135.367 70.6683 134.566 71.0622 134.299 71.8209C134.032 72.5796 134.411 73.4112 135.142 73.6884C135.536 73.8489 135.943 74.024 136.351 74.1991ZM141.214 78.0946C141.481 78.5177 141.931 78.7511 142.38 78.7511C142.647 78.7511 142.914 78.6782 143.153 78.5031C143.8 78.0508 143.969 77.1462 143.547 76.4751C143.252 76.0228 142.928 75.5705 142.563 75.162C142.043 74.5638 141.158 74.5055 140.581 75.0453C140.005 75.5851 139.949 76.5043 140.469 77.1025C140.736 77.4089 140.989 77.7444 141.214 78.0946ZM121.874 74.1115C122.043 74.1115 122.212 74.0824 122.38 74.0094C122.788 73.8489 123.21 73.6884 123.617 73.5425C124.362 73.2945 124.756 72.4775 124.531 71.7042C124.292 70.9309 123.505 70.5078 122.76 70.7559C122.296 70.9163 121.818 71.0914 121.354 71.2811C120.637 71.5729 120.272 72.4191 120.553 73.1778C120.792 73.7614 121.312 74.1115 121.874 74.1115ZM140.947 95.7192L141.537 95.5149C141.326 95.5441 141.129 95.6025 140.947 95.7192Z" fill="white"/>
<path d="M111.849 88.3562C111.849 84.3024 108.542 80.9932 104.491 80.9932C101.762 80.9932 99.3782 82.4961 98.0967 84.716L111.808 89.1283C111.835 88.8664 111.849 88.6182 111.849 88.3562ZM97.1321 88.3562C97.1321 92.41 100.439 95.7192 104.491 95.7192C107.315 95.7192 109.782 94.1059 111.008 91.7619L97.201 87.322C97.1596 87.653 97.1321 87.9977 97.1321 88.3562Z" fill="#1B1B1B"/>
<path d="M111.044 91.3013C111.474 90.2984 111.752 89.1745 111.849 87.9988L98.0345 82.4657C97.5764 83.4513 97.2709 84.5579 97.1321 85.7337L111.044 91.3013Z" fill="#1B1B1B"/>
<path d="M113.634 81.6994C112.988 80.9831 112.237 80.3512 111.395 79.8175C109.637 78.694 107.503 78.048 105.219 78.048C100.906 78.048 97.1491 80.3793 95.3458 83.7638C94.895 84.5924 94.5794 85.4912 94.3841 86.4322C94.2639 87.0501 94.1887 87.6961 94.1887 88.3562C94.1887 94.044 99.1328 98.6644 105.219 98.6644C109.637 98.6644 113.469 96.2208 115.227 92.6958C115.648 91.8531 115.949 90.9543 116.114 90.0134C116.204 89.4797 116.264 88.9179 116.264 88.3562C116.264 85.8142 115.272 83.497 113.634 81.6994ZM113.214 89.1286C113.108 90.0836 112.808 90.9964 112.342 91.811C111.005 94.1985 108.315 95.8416 105.234 95.8416C100.816 95.8416 97.2093 92.4711 97.2093 88.3421C97.2093 87.977 97.2393 87.6259 97.2844 87.2889C97.4347 86.3339 97.7653 85.4351 98.2612 84.6346C99.6437 82.3735 102.243 80.8427 105.234 80.8427C109.652 80.8427 113.259 84.2132 113.259 88.3421C113.259 88.623 113.244 88.8758 113.214 89.1286Z" fill="#FF1D53"/>
<path d="M162.913 179.865L164.803 180.872C166.955 182.005 169.356 183.026 171.881 183.785L173.909 184.42V193.905C173.909 196.183 175.427 196.694 176.696 196.694H188.065C189.334 196.694 190.852 196.183 190.852 193.905V184.42L192.88 183.785C195.405 183.026 197.806 182.018 199.958 180.872L201.848 179.865L203.366 181.383C206.015 184.034 207.795 185.939 208.554 186.436C209.188 187.071 209.823 187.444 210.444 187.444C211.575 187.444 212.596 186.56 212.596 186.436L220.681 178.346C221.564 177.462 222.323 175.944 220.681 174.301L213.99 167.605L214.997 165.714C216.128 163.56 217.149 161.158 217.908 158.632L218.543 156.602H228.021C230.298 156.602 230.808 155.083 230.808 153.813V142.438C230.808 141.167 230.298 139.649 228.021 139.649H218.543L217.908 137.619C217.025 135.217 216.142 132.815 214.873 130.661L213.865 128.77L215.383 127.251L220.571 122.06C221.206 121.425 221.578 120.79 221.578 120.169C221.578 119.285 220.943 118.402 220.571 118.015L212.458 109.939C212.21 109.691 211.327 108.931 210.306 108.931C209.671 108.931 209.036 109.18 208.416 109.939L201.724 116.635L199.834 115.627C197.681 114.495 195.281 113.473 192.88 112.714L190.852 112.203V102.594C190.852 100.192 188.824 99.8057 187.941 99.8057H176.696C175.813 99.8057 173.909 100.178 173.909 102.594V112.203L171.881 112.838C169.48 113.598 167.079 114.481 164.927 115.751L163.037 116.759L156.221 109.939C155.586 109.304 154.952 109.055 154.455 109.055C153.448 109.055 152.427 109.815 152.178 110.063L144.093 118.029C143.583 118.664 142.327 120.307 144.093 122.074L150.785 128.784L149.778 130.675C148.646 132.829 147.625 135.231 146.866 137.633L146.232 139.663H136.753C134.477 139.787 133.966 141.554 133.966 142.7V153.951C133.966 154.835 134.339 156.74 136.753 156.74H146.232L146.866 158.77C147.625 161.296 148.632 163.574 149.778 165.852L150.785 167.743L144.093 174.439C142.451 176.082 143.459 177.725 144.093 178.484L152.054 186.45C152.303 186.574 153.323 187.333 154.207 187.333C154.841 187.333 155.338 187.085 155.973 186.45L162.913 179.865Z" fill="#FF1D53"/>
<path d="M180.338 174.563H180.228C179.745 174.522 179.262 174.467 178.779 174.411C178.02 174.315 177.496 173.611 177.593 172.851C177.689 172.092 178.393 171.567 179.152 171.664C179.579 171.719 180.021 171.775 180.449 171.802C181.207 171.857 181.773 172.534 181.718 173.293C181.649 174.025 181.042 174.563 180.338 174.563ZM185.829 174.411C185.153 174.411 184.56 173.914 184.464 173.224C184.353 172.465 184.891 171.775 185.636 171.664C186.064 171.609 186.492 171.54 186.919 171.457C187.665 171.305 188.396 171.802 188.534 172.548C188.672 173.293 188.189 174.025 187.444 174.163C186.975 174.26 186.492 174.342 186.009 174.398C185.967 174.411 185.898 174.411 185.829 174.411ZM173.619 173.072C173.453 173.072 173.302 173.045 173.136 172.989C172.681 172.824 172.225 172.63 171.784 172.437C171.08 172.133 170.763 171.319 171.08 170.615C171.384 169.911 172.198 169.593 172.902 169.911C173.302 170.09 173.702 170.256 174.116 170.408C174.833 170.67 175.192 171.471 174.93 172.189C174.709 172.727 174.185 173.072 173.619 173.072ZM192.452 172.548C191.928 172.548 191.417 172.244 191.183 171.719C190.879 171.015 191.197 170.201 191.886 169.897C192.287 169.717 192.673 169.538 193.059 169.345C193.735 169 194.563 169.276 194.908 169.952C195.253 170.629 194.977 171.457 194.301 171.802C193.873 172.023 193.432 172.23 192.99 172.423C192.825 172.506 192.645 172.548 192.452 172.548ZM167.576 169.8C167.286 169.8 167.01 169.717 166.762 169.538C166.375 169.248 165.989 168.944 165.617 168.641C165.023 168.157 164.941 167.288 165.423 166.694C165.906 166.1 166.776 166.018 167.369 166.501C167.7 166.777 168.045 167.053 168.404 167.301C169.025 167.757 169.149 168.613 168.693 169.234C168.417 169.607 167.99 169.8 167.576 169.8ZM198.302 168.931C197.902 168.931 197.516 168.765 197.24 168.434C196.757 167.84 196.84 166.97 197.419 166.487C197.75 166.211 198.081 165.921 198.399 165.631C198.964 165.12 199.834 165.148 200.344 165.714C200.855 166.28 200.827 167.15 200.261 167.66C199.903 167.992 199.544 168.309 199.171 168.613C198.923 168.834 198.606 168.931 198.302 168.931ZM162.636 165.01C162.223 165.01 161.822 164.83 161.546 164.485C161.243 164.099 160.953 163.712 160.677 163.312C160.236 162.69 160.401 161.821 161.022 161.393C161.643 160.951 162.512 161.117 162.94 161.738C163.188 162.097 163.45 162.442 163.713 162.787C164.182 163.394 164.071 164.25 163.478 164.72C163.23 164.913 162.94 165.01 162.636 165.01ZM202.952 163.878C202.676 163.878 202.4 163.795 202.165 163.629C201.544 163.201 201.379 162.331 201.82 161.71C202.069 161.351 202.303 160.992 202.538 160.62C202.938 159.971 203.793 159.764 204.442 160.164C205.09 160.564 205.297 161.42 204.897 162.069C204.649 162.483 204.373 162.884 204.097 163.284C203.821 163.671 203.393 163.878 202.952 163.878ZM159.187 159.06C158.649 159.06 158.125 158.742 157.904 158.204C157.725 157.762 157.545 157.292 157.394 156.837C157.145 156.119 157.531 155.332 158.249 155.083C158.966 154.835 159.753 155.222 160.001 155.939C160.139 156.354 160.291 156.754 160.456 157.154C160.746 157.858 160.401 158.673 159.698 158.949C159.546 159.018 159.367 159.06 159.187 159.06ZM206.07 157.734C205.918 157.734 205.766 157.707 205.628 157.665C204.911 157.417 204.525 156.63 204.773 155.912C204.911 155.498 205.049 155.083 205.159 154.669C205.366 153.938 206.125 153.51 206.856 153.717C207.588 153.924 208.015 154.683 207.808 155.415C207.67 155.884 207.532 156.354 207.381 156.809C207.174 157.375 206.636 157.734 206.07 157.734ZM157.504 152.391C156.814 152.391 156.207 151.867 156.138 151.163C156.083 150.679 156.041 150.196 156.014 149.713C155.972 148.954 156.552 148.305 157.311 148.264C158.07 148.222 158.718 148.802 158.759 149.561C158.787 149.989 158.815 150.431 158.87 150.859C158.953 151.618 158.415 152.295 157.656 152.378C157.6 152.391 157.545 152.391 157.504 152.391ZM207.381 150.983H207.298C206.539 150.942 205.96 150.293 206.001 149.534C206.029 149.106 206.042 148.664 206.042 148.236C206.042 147.477 206.663 146.855 207.422 146.855C208.181 146.855 208.802 147.477 208.802 148.236C208.802 148.719 208.788 149.202 208.76 149.685C208.719 150.417 208.112 150.983 207.381 150.983ZM157.683 145.516C157.614 145.516 157.531 145.516 157.463 145.502C156.704 145.378 156.207 144.674 156.331 143.915C156.414 143.432 156.497 142.962 156.607 142.479C156.773 141.733 157.504 141.264 158.249 141.43C158.994 141.595 159.463 142.327 159.298 143.073C159.201 143.501 159.118 143.929 159.049 144.357C158.925 145.033 158.346 145.516 157.683 145.516ZM207.063 145.406C206.401 145.406 205.822 144.923 205.711 144.26C205.642 143.832 205.559 143.404 205.463 142.976C205.297 142.23 205.766 141.499 206.498 141.319C207.243 141.154 207.974 141.623 208.153 142.355C208.264 142.824 208.36 143.307 208.429 143.79C208.553 144.536 208.043 145.254 207.298 145.378C207.215 145.406 207.146 145.406 207.063 145.406ZM159.711 138.945C159.518 138.945 159.311 138.903 159.118 138.807C158.428 138.475 158.139 137.661 158.456 136.97C158.663 136.529 158.884 136.101 159.118 135.673C159.477 134.996 160.319 134.748 160.995 135.121C161.671 135.479 161.919 136.322 161.546 136.998C161.34 137.385 161.146 137.771 160.953 138.158C160.732 138.655 160.236 138.945 159.711 138.945ZM204.994 138.848C204.483 138.848 203.987 138.558 203.752 138.061C203.573 137.675 203.366 137.274 203.159 136.901C202.8 136.239 203.035 135.397 203.711 135.024C204.373 134.665 205.215 134.9 205.587 135.576C205.822 136.004 206.042 136.432 206.249 136.874C206.58 137.564 206.291 138.392 205.601 138.71C205.394 138.807 205.201 138.848 204.994 138.848ZM163.478 133.174C163.161 133.174 162.83 133.063 162.567 132.829C161.988 132.332 161.933 131.462 162.429 130.882C162.747 130.523 163.078 130.15 163.409 129.805C163.933 129.253 164.816 129.239 165.354 129.778C165.906 130.302 165.92 131.186 165.382 131.724C165.079 132.028 164.789 132.359 164.499 132.691C164.251 133.022 163.864 133.174 163.478 133.174ZM201.227 133.105C200.841 133.105 200.468 132.939 200.192 132.636C199.903 132.304 199.613 131.987 199.309 131.683C198.771 131.131 198.785 130.261 199.337 129.736C199.875 129.198 200.758 129.212 201.282 129.764C201.613 130.109 201.958 130.468 202.276 130.827C202.772 131.407 202.717 132.277 202.152 132.774C201.862 132.994 201.544 133.105 201.227 133.105ZM168.652 128.646C168.197 128.646 167.769 128.425 167.493 128.024C167.079 127.389 167.258 126.533 167.893 126.119C168.293 125.857 168.707 125.595 169.135 125.36C169.797 124.973 170.639 125.208 171.025 125.857C171.411 126.52 171.191 127.362 170.528 127.748C170.156 127.969 169.783 128.19 169.425 128.439C169.176 128.577 168.914 128.646 168.652 128.646ZM196.026 128.604C195.763 128.604 195.501 128.535 195.281 128.383C194.922 128.149 194.549 127.914 194.163 127.707C193.501 127.32 193.28 126.478 193.652 125.816C194.025 125.153 194.88 124.932 195.543 125.305C195.957 125.539 196.384 125.802 196.784 126.064C197.419 126.478 197.598 127.334 197.185 127.969C196.922 128.383 196.481 128.604 196.026 128.604ZM174.861 125.705C174.267 125.705 173.729 125.332 173.55 124.739C173.315 124.007 173.729 123.234 174.447 123.013C174.902 122.861 175.385 122.737 175.84 122.613C176.585 122.419 177.33 122.875 177.524 123.607C177.717 124.352 177.261 125.098 176.53 125.291C176.116 125.401 175.689 125.512 175.275 125.65C175.137 125.677 174.999 125.705 174.861 125.705ZM189.803 125.677C189.665 125.677 189.527 125.664 189.389 125.608C188.975 125.484 188.561 125.36 188.134 125.263C187.389 125.084 186.947 124.325 187.126 123.593C187.306 122.847 188.065 122.406 188.796 122.585C189.265 122.709 189.734 122.833 190.203 122.972C190.934 123.192 191.335 123.966 191.114 124.697C190.934 125.291 190.396 125.677 189.803 125.677ZM181.635 124.559C180.89 124.559 180.283 123.966 180.255 123.22C180.228 122.461 180.835 121.826 181.594 121.798C182.077 121.784 182.573 121.784 183.042 121.798C183.801 121.812 184.408 122.447 184.381 123.22C184.367 123.966 183.746 124.559 183.001 124.559H182.96C182.532 124.545 182.09 124.545 181.649 124.559H181.635Z" fill="white"/>
<path d="M188.065 199.413H176.696C173.384 199.413 171.149 197.191 171.149 193.864V186.409L171.08 186.381C168.486 185.594 165.948 184.559 163.52 183.275L163.368 183.192L157.89 188.383C157.159 189.101 155.986 190.053 154.193 190.053C152.689 190.053 151.419 189.266 150.812 188.88C150.785 188.866 150.771 188.852 150.743 188.838L150.412 188.673L142.051 180.306L141.968 180.21C139.871 177.697 139.94 174.646 142.134 172.437L147.391 167.177L147.308 167.025C146.342 165.106 145.128 162.525 144.231 159.515L144.203 159.446H136.753C132.945 159.446 131.207 156.575 131.207 153.896V142.658C131.207 139.925 132.876 137.067 136.587 136.86H144.19L144.217 136.777C145.018 134.237 146.094 131.683 147.322 129.35L147.377 129.253L142.12 123.993C141.292 123.165 138.823 120.141 141.913 116.262L142.01 116.138L150.219 108.061C150.412 107.868 152.137 106.253 154.427 106.253C155.738 106.253 157.062 106.86 158.152 107.951L163.533 113.335L163.575 113.308C166.113 111.817 168.9 110.85 171.039 110.174L171.136 110.146V102.567C171.136 98.7565 174.005 97.017 176.682 97.017H187.927C188.617 97.017 189.941 97.1412 191.197 97.9419C192.742 98.936 193.584 100.565 193.584 102.553V110.008L193.68 110.036C196.205 110.836 198.771 111.899 201.089 113.142L201.186 113.197L206.36 108.02C207.712 106.46 209.243 106.115 210.278 106.115C212.389 106.115 213.948 107.509 214.376 107.937L222.461 116.027C223.344 116.911 224.282 118.443 224.282 120.128C224.282 121.481 223.675 122.765 222.461 123.979L217.204 129.239L217.232 129.281C218.612 131.628 219.536 134.168 220.447 136.625L220.516 136.846H227.966C231.277 136.846 233.513 139.069 233.513 142.396V153.772C233.513 157.085 231.291 159.322 227.966 159.322H220.516L220.488 159.391C219.702 161.986 218.667 164.54 217.384 166.956L217.328 167.053L222.585 172.313C223.924 173.652 224.544 175.295 224.31 176.952C224.144 178.153 223.551 179.299 222.585 180.265L214.679 188.217C213.7 189.46 211.851 190.178 210.43 190.178C209.147 190.178 207.919 189.625 206.76 188.535C206.042 187.996 205.146 187.085 203.38 185.304C202.786 184.71 202.124 184.034 201.407 183.302L201.338 183.233L201.241 183.288C198.813 184.572 196.274 185.622 193.68 186.395L193.611 186.422V193.877C193.611 197.191 191.376 199.413 188.065 199.413ZM176.668 193.891H188.065V182.35L192.052 181.107C194.315 180.431 196.522 179.52 198.633 178.401L202.331 176.427L205.297 179.395C206.042 180.141 206.705 180.817 207.298 181.425C208.471 182.626 209.699 183.855 210.057 184.117L210.292 184.269L210.471 184.462L210.54 184.531L218.694 176.372C218.722 176.344 218.736 176.317 218.763 176.303C218.75 176.275 218.722 176.261 218.694 176.234L210.554 168.088L212.527 164.389C213.645 162.29 214.541 160.067 215.231 157.817L215.245 157.789L216.487 153.827H228.021V142.438V142.424H216.487L215.273 138.531C214.417 136.197 213.603 134.002 212.472 132.083L212.417 131.987L210.444 128.287L218.584 120.141L218.653 120.072C218.625 120.045 218.612 120.017 218.584 119.99L210.499 111.899C210.471 111.886 210.457 111.858 210.416 111.83L202.221 120.003L198.523 118.029C196.522 116.966 194.301 116.041 192.121 115.337L188.092 114.329V102.567V102.553C188.037 102.539 187.996 102.539 187.941 102.539H176.696H176.682V114.191L172.722 115.434C170.846 116.027 168.418 116.869 166.348 118.084L166.251 118.14L162.554 120.114L154.317 111.872C154.234 111.913 154.165 111.968 154.11 112.01L146.176 119.824C146.107 119.907 146.066 119.976 146.025 120.031L146.066 120.072L154.206 128.218L152.233 131.918C151.157 133.947 150.219 136.184 149.529 138.406L148.301 142.355H136.891C136.863 142.355 136.836 142.369 136.808 142.369C136.794 142.438 136.781 142.52 136.781 142.631V153.896H148.301L149.543 157.886C150.15 159.902 150.992 161.945 152.261 164.499L154.22 168.171L146.08 176.317L146.039 176.358C146.066 176.413 146.107 176.482 146.176 176.565L153.793 184.186C153.875 184.227 153.986 184.31 154.11 184.365L162.499 176.427L166.141 178.374C168.238 179.492 170.459 180.389 172.708 181.08L172.736 181.093L176.696 182.336V193.877C176.668 193.877 176.668 193.891 176.668 193.891ZM154.124 111.982L154.096 112.01C154.11 111.996 154.124 111.996 154.124 111.982Z" fill="white"/>
<path d="M202.29 161.862L200.772 160.454L201.269 159.515C204.98 152.502 203.628 143.694 197.985 138.103C193.349 133.505 186.657 131.793 180.462 133.478L191.335 144.246C193.832 146.717 193.846 150.762 191.376 153.261L187.513 157.168C186.312 158.383 184.726 159.046 183.015 159.059H182.987C181.304 159.059 179.704 158.411 178.503 157.21L167.631 146.441C166.017 152.654 167.797 159.336 172.433 163.933C178.076 169.524 186.892 170.78 193.86 166.998L194.798 166.487L219.922 193.104C220.695 193.933 221.744 194.388 222.875 194.402C224.006 194.416 225.069 193.974 225.855 193.173L227.759 191.254C228.559 190.454 228.973 189.391 228.96 188.258C228.932 187.126 228.463 186.077 227.635 185.318L202.8 162.318L202.29 161.862Z" fill="#1B1B1B"/>
<path d="M204.18 159.846C205.877 156.174 206.498 152.005 205.905 147.987C206.498 152.019 205.877 156.188 204.18 159.846ZM231.457 186.491C231.512 186.712 231.567 186.933 231.609 187.168C231.567 186.933 231.526 186.712 231.457 186.491Z" fill="white"/>
<path d="M231.609 187.168C231.567 186.947 231.512 186.712 231.457 186.491C231.415 186.339 231.374 186.188 231.319 186.036C230.946 185 230.339 184.062 229.511 183.288L204.676 160.288L204.194 159.846C205.891 156.174 206.511 152.005 205.918 147.987C205.256 143.459 203.186 139.373 199.93 136.142C193.984 130.261 185.14 128.48 177.386 131.614L175.44 132.401L189.389 146.206C190.079 146.883 190.452 147.794 190.465 148.76C190.465 149.727 190.093 150.638 189.417 151.315L185.554 155.222C184.878 155.912 183.967 156.285 183.001 156.298H182.987C182.035 156.298 181.125 155.926 180.449 155.249L166.486 141.443L165.727 143.404C162.678 151.19 164.554 160.026 170.501 165.907C173.757 169.138 177.869 171.153 182.394 171.774C186.423 172.313 190.576 171.664 194.232 169.925L217.922 195.023C219.219 196.39 220.971 197.163 222.847 197.177H222.93C224.779 197.177 226.517 196.459 227.828 195.134L229.732 193.215C231.057 191.876 231.76 190.095 231.719 188.217C231.705 187.858 231.678 187.499 231.609 187.168ZM222.875 194.416C221.744 194.402 220.695 193.946 219.922 193.118L194.798 166.501L193.859 167.012C186.892 170.794 178.076 169.538 172.432 163.947C167.797 159.349 166.017 152.681 167.631 146.455L178.503 157.223C179.704 158.411 181.29 159.073 182.987 159.073H183.015C184.712 159.059 186.312 158.397 187.513 157.182L191.376 153.275C193.846 150.776 193.832 146.731 191.335 144.26L180.462 133.491C186.657 131.807 193.349 133.519 197.985 138.116C203.628 143.708 204.98 152.502 201.269 159.529L200.772 160.468L202.29 161.876L202.786 162.345L227.621 185.345C228.449 186.119 228.918 187.154 228.946 188.286C228.973 189.418 228.546 190.481 227.745 191.282L225.855 193.187C225.069 193.988 224.006 194.416 222.875 194.416Z" fill="white"/>
<path d="M227.538 184.738C227.207 184.738 226.862 184.614 226.6 184.365L204.028 163.464C203.462 162.939 203.435 162.069 203.959 161.517C204.483 160.951 205.353 160.923 205.904 161.448L228.477 182.35C229.042 182.874 229.07 183.744 228.546 184.296C228.27 184.586 227.897 184.738 227.538 184.738Z" fill="#06F3FF"/>
</g>
<defs>
<clipPath id="clip0_61_4051">
<rect width="312" height="215" fill="white"/>
</clipPath>
</defs>
</svg>
