<svg width="314" height="216" viewBox="0 0 314 216" fill="none" xmlns="http://www.w3.org/2000/svg">
<g clip-path="url(#clip0_61_3887)">
<path d="M183.077 200.434H81.4495C78.0755 200.434 75.3323 203.18 75.3323 206.559C75.3323 209.937 78.0755 212.684 81.4495 212.684H183.077C186.451 212.684 189.194 209.937 189.194 206.559C189.194 203.149 186.451 200.434 183.077 200.434Z" fill="white"/>
<path d="M283.411 191.277V203.591H300.785C298.231 196.424 291.42 191.277 283.411 191.277Z" fill="#FF1D53"/>
<path d="M252.731 161.125V21.9805C252.731 16.8971 248.6 12.7926 243.555 12.7926H20.9714C15.8948 12.7926 11.7957 16.9287 11.7957 21.9805V161.125C11.7957 166.208 15.9263 170.313 20.9714 170.313H243.555C248.632 170.344 252.731 166.208 252.731 161.125ZM238.889 147.864C238.889 152.916 234.758 157.052 229.713 157.052H34.8455C29.8004 157.052 25.6697 152.916 25.6697 147.864V35.2729C25.6697 30.2211 29.8004 26.085 34.8455 26.085H229.713C234.758 26.085 238.889 30.2211 238.889 35.2729V147.864Z" fill="#1B1B1B"/>
<path d="M229.713 26.0851H34.8455C29.8004 26.0851 25.6697 30.2212 25.6697 35.273V147.864C25.6697 152.916 29.8004 157.052 34.8455 157.052H229.713C234.758 157.052 238.888 152.916 238.888 147.864V35.273C238.888 30.2212 234.758 26.0851 229.713 26.0851ZM64.7062 36.2517C64.7062 35.7466 65.1161 35.3677 65.5891 35.3677H84.9181C85.4226 35.3677 85.801 35.7781 85.801 36.2517V41.7771C85.801 42.2823 85.3911 42.6611 84.9181 42.6611H65.5891C65.0846 42.6611 64.7062 42.2507 64.7062 41.7771V36.2517ZM55.152 35.1467C57.2331 35.1467 58.9043 36.8201 58.9043 38.9039C58.9043 40.9877 57.2331 42.6611 55.152 42.6611C53.0709 42.6611 51.3997 40.9877 51.3997 38.9039C51.3997 36.8201 53.1024 35.1467 55.152 35.1467ZM42.8546 35.1467C44.9357 35.1467 46.6069 36.8201 46.6069 38.9039C46.6069 40.9877 44.9357 42.6611 42.8546 42.6611C40.7735 42.6611 39.1023 40.9877 39.1023 38.9039C39.1023 36.8201 40.7735 35.1467 42.8546 35.1467ZM117.68 92.5156C117.68 113.922 100.274 131.351 78.8955 131.351C57.5169 131.351 40.1113 113.922 40.1113 92.5156C40.1113 71.1088 57.5169 53.6803 78.8955 53.6803H81.9541V89.453H117.68V92.5156ZM89.2695 80.2967V50.3966C105.761 50.3966 119.13 63.7838 119.13 80.2967H89.2695ZM207.073 127.31H162.707C161.005 127.31 159.649 125.952 159.649 124.247C159.649 122.542 161.005 121.184 162.707 121.184H207.073C208.775 121.184 210.131 122.542 210.131 124.247C210.131 125.92 208.775 127.31 207.073 127.31ZM207.073 104.166H161.162C159.46 104.166 158.104 102.809 158.104 101.104C158.104 99.3986 159.46 98.041 161.162 98.041H207.073C208.775 98.041 210.131 99.3986 210.131 101.104C210.131 102.809 208.775 104.166 207.073 104.166ZM207.073 80.9913H140.982C139.279 80.9913 137.923 79.6336 137.923 77.9287C137.923 76.2237 139.279 74.8661 140.982 74.8661H207.104C208.807 74.8661 210.163 76.2237 210.163 77.9287C210.163 79.6336 208.775 80.9913 207.073 80.9913ZM207.073 57.848H140.982C139.279 57.848 137.923 56.4903 137.923 54.7853C137.923 53.0804 139.279 51.7227 140.982 51.7227H207.104C208.807 51.7227 210.163 53.0804 210.163 54.7853C210.163 56.4903 208.775 57.848 207.073 57.848Z" fill="#FF1D53"/>
<path d="M75.8367 59.9633C59.251 61.5104 46.2283 75.529 46.2283 92.5155C46.2283 110.544 60.8906 125.226 78.8953 125.226C95.8595 125.226 109.86 112.186 111.405 95.5782H75.8367V59.9633Z" fill="#1B1B1B"/>
<path d="M81.9542 53.6802H78.8956C57.5169 53.6802 40.1113 71.1087 40.1113 92.5155C40.1113 113.922 57.5169 131.351 78.8956 131.351C100.274 131.351 117.68 113.922 117.68 92.5155V89.4529H81.9542V53.6802ZM111.405 95.6097C109.86 112.217 95.8597 125.257 78.8956 125.257C60.8909 125.257 46.2285 110.576 46.2285 92.5471C46.2285 75.5606 59.2512 61.542 75.837 59.9949V95.6097H111.405Z" fill="white"/>
<path d="M89.2693 50.3965V80.2966H119.13C119.13 63.7837 105.76 50.3965 89.2693 50.3965Z" fill="white"/>
<path d="M39.1025 38.9038C39.1025 39.9003 39.4979 40.8559 40.2016 41.5606C40.9053 42.2652 41.8597 42.661 42.8548 42.661C43.85 42.661 44.8044 42.2652 45.5081 41.5606C46.2118 40.8559 46.6071 39.9003 46.6071 38.9038C46.6071 37.9073 46.2118 36.9516 45.5081 36.247C44.8044 35.5424 43.85 35.1465 42.8548 35.1465C41.8597 35.1465 40.9053 35.5424 40.2016 36.247C39.4979 36.9516 39.1025 37.9073 39.1025 38.9038Z" fill="#1B1B1B"/>
<path d="M51.3999 38.9038C51.3999 39.9003 51.7952 40.8559 52.4989 41.5606C53.2026 42.2652 54.157 42.661 55.1522 42.661C56.1474 42.661 57.1018 42.2652 57.8055 41.5606C58.5092 40.8559 58.9045 39.9003 58.9045 38.9038C58.9045 37.9073 58.5092 36.9516 57.8055 36.247C57.1018 35.5424 56.1474 35.1465 55.1522 35.1465C54.157 35.1465 53.2026 35.5424 52.4989 36.247C51.7952 36.9516 51.3999 37.9073 51.3999 38.9038Z" fill="#1B1B1B"/>
<path d="M65.5892 42.6611H84.9183C85.4228 42.6611 85.8012 42.2506 85.8012 41.777V36.2517C85.8012 35.7465 85.3912 35.3676 84.9183 35.3676H65.5892C65.0847 35.3676 64.7063 35.7781 64.7063 36.2517V41.777C64.7063 42.2822 65.1162 42.6611 65.5892 42.6611Z" fill="#1B1B1B"/>
<path d="M283.4 179.06C268.603 179.06 256.231 189.673 253.397 203.708H216.973C213.29 203.708 210.614 202.979 209.669 201.712C209.04 200.857 209.04 199.494 209.04 198.861V182.672H243.638C255.444 182.672 265.014 173.009 265.014 161.16V21.5113C265.014 9.63098 255.412 0 243.638 0H21.3762C9.57048 0 0 9.66266 0 21.5113V161.129C0 173.009 9.60197 182.64 21.3762 182.64H196.793V198.861C196.793 200.381 196.793 204.975 199.91 209.125C203.341 213.687 209.071 216 216.973 216H314V209.854C314 192.873 300.274 179.06 283.4 179.06ZM21.3762 170.38C16.3076 170.38 12.215 166.229 12.215 161.16V21.5113C12.215 16.4107 16.3391 12.2922 21.3762 12.2922H243.607C248.675 12.2922 252.768 16.4424 252.768 21.5113V161.129C252.768 166.229 248.644 170.348 243.607 170.348H21.3762V170.38ZM283.4 203.708H266.053C268.572 196.516 275.403 191.352 283.4 191.352C291.396 191.352 298.228 196.516 300.746 203.708H283.4Z" fill="white"/>
<path d="M207.073 51.7227H140.982C139.279 51.7227 137.923 53.0803 137.923 54.7853C137.923 56.4903 139.279 57.8479 140.982 57.8479H207.104C208.807 57.8479 210.163 56.4903 210.163 54.7853C210.163 53.0803 208.775 51.7227 207.073 51.7227Z" fill="white"/>
<path d="M207.073 74.866H140.982C139.279 74.866 137.923 76.2237 137.923 77.9286C137.923 79.6336 139.279 80.9913 140.982 80.9913H207.104C208.807 80.9913 210.163 79.6336 210.163 77.9286C210.163 76.2237 208.775 74.866 207.073 74.866ZM207.073 98.0409H161.162C159.459 98.0409 158.104 99.3986 158.104 101.104C158.104 102.809 159.459 104.166 161.162 104.166H207.073C208.775 104.166 210.131 102.809 210.131 101.104C210.131 99.3986 208.775 98.0409 207.073 98.0409Z" fill="#3FCAB5"/>
<path d="M207.072 121.184H162.707C161.004 121.184 159.648 122.542 159.648 124.247C159.648 125.952 161.004 127.31 162.707 127.31H207.072C208.775 127.31 210.131 125.952 210.131 124.247C210.131 122.542 208.775 121.184 207.072 121.184Z" fill="white"/>
</g>
<defs>
<clipPath id="clip0_61_3887">
<rect width="314" height="216" fill="white"/>
</clipPath>
</defs>
</svg>
