<svg width="314" height="216" viewBox="0 0 314 216" fill="none" xmlns="http://www.w3.org/2000/svg">
<g clip-path="url(#clip0_67_5689)">
<path d="M183.077 200.434H81.4495C78.0755 200.434 75.3323 203.18 75.3323 206.559C75.3323 209.937 78.0755 212.684 81.4495 212.684H183.077C186.451 212.684 189.194 209.937 189.194 206.559C189.194 203.149 186.451 200.434 183.077 200.434Z" fill="#FF1D53"/>
<path d="M283.411 191.277V203.591H300.785C298.231 196.424 291.42 191.277 283.411 191.277Z" fill="#1B1B1B"/>
<path d="M243.558 169.922H243.555H20.9714C16.1417 169.922 12.1863 165.992 12.1863 161.125V21.9804C12.1863 17.143 16.1119 13.1831 20.9714 13.1831H243.555C248.385 13.1831 252.34 17.1131 252.34 21.9804V161.125C252.34 165.995 248.414 169.952 243.558 169.922ZM229.713 157.442C234.974 157.442 239.279 153.131 239.279 147.864V35.2728C239.279 30.0058 234.974 25.6943 229.713 25.6943H34.8455C29.5842 25.6943 25.2791 30.0058 25.2791 35.2728V147.864C25.2791 153.131 29.5842 157.442 34.8455 157.442H229.713Z" fill="white" stroke="#1B1B1B" stroke-width="0.78125"/>
<path d="M229.713 26.085H34.8455C29.8004 26.085 25.6697 30.2211 25.6697 35.2728V147.864C25.6697 152.916 29.8004 157.052 34.8455 157.052H229.713C234.758 157.052 238.888 152.916 238.888 147.864V35.2728C238.888 30.2211 234.758 26.085 229.713 26.085ZM64.7062 36.2516C64.7062 35.7464 65.1161 35.3676 65.5891 35.3676H84.9181C85.4226 35.3676 85.801 35.778 85.801 36.2516V41.777C85.801 42.2821 85.3911 42.661 84.9181 42.661H65.5891C65.0846 42.661 64.7062 42.2506 64.7062 41.777V36.2516ZM55.152 35.1465C57.2331 35.1465 58.9043 36.8199 58.9043 38.9038C58.9043 40.9876 57.2331 42.661 55.152 42.661C53.0709 42.661 51.3997 40.9876 51.3997 38.9038C51.3997 36.8199 53.1024 35.1465 55.152 35.1465ZM42.8546 35.1465C44.9357 35.1465 46.6069 36.8199 46.6069 38.9038C46.6069 40.9876 44.9357 42.661 42.8546 42.661C40.7735 42.661 39.1023 40.9876 39.1023 38.9038C39.1023 36.8199 40.7735 35.1465 42.8546 35.1465Z" fill="#1B1B1B"/>
<path d="M39.1025 38.9037C39.1025 39.9002 39.4979 40.8559 40.2016 41.5605C40.9053 42.2651 41.8597 42.661 42.8548 42.661C43.85 42.661 44.8044 42.2651 45.5081 41.5605C46.2118 40.8559 46.6071 39.9002 46.6071 38.9037C46.6071 37.9072 46.2118 36.9516 45.5081 36.247C44.8044 35.5423 43.85 35.1465 42.8548 35.1465C41.8597 35.1465 40.9053 35.5423 40.2016 36.247C39.4979 36.9516 39.1025 37.9072 39.1025 38.9037Z" fill="white"/>
<path d="M51.3999 38.9037C51.3999 39.9002 51.7952 40.8559 52.4989 41.5605C53.2026 42.2651 54.157 42.661 55.1522 42.661C56.1474 42.661 57.1018 42.2651 57.8055 41.5605C58.5092 40.8559 58.9045 39.9002 58.9045 38.9037C58.9045 37.9072 58.5092 36.9516 57.8055 36.247C57.1018 35.5423 56.1474 35.1465 55.1522 35.1465C54.157 35.1465 53.2026 35.5423 52.4989 36.247C51.7952 36.9516 51.3999 37.9072 51.3999 38.9037Z" fill="white"/>
<path d="M65.5892 42.6611H84.9183C85.4228 42.6611 85.8012 42.2507 85.8012 41.7771V36.2517C85.8012 35.7466 85.3912 35.3677 84.9183 35.3677H65.5892C65.0847 35.3677 64.7063 35.7781 64.7063 36.2517V41.7771C64.7063 42.2823 65.1162 42.6611 65.5892 42.6611Z" fill="white"/>
<path d="M283.4 179.06C268.603 179.06 256.231 189.673 253.397 203.708H216.973C213.29 203.708 210.614 202.979 209.669 201.712C209.04 200.857 209.04 199.494 209.04 198.861V182.672H243.638C255.444 182.672 265.014 173.009 265.014 161.16V21.5113C265.014 9.63098 255.412 0 243.638 0H21.3762C9.57048 0 0 9.66266 0 21.5113V161.129C0 173.009 9.60197 182.64 21.3762 182.64H196.793V198.861C196.793 200.381 196.793 204.975 199.91 209.125C203.341 213.687 209.071 216 216.973 216H314V209.854C314 192.873 300.274 179.06 283.4 179.06ZM21.3762 170.38C16.3076 170.38 12.215 166.229 12.215 161.16V21.5113C12.215 16.4107 16.3391 12.2922 21.3762 12.2922H243.607C248.675 12.2922 252.768 16.4424 252.768 21.5113V161.129C252.768 166.229 248.644 170.348 243.607 170.348H21.3762V170.38ZM283.4 203.708H266.053C268.572 196.516 275.403 191.352 283.4 191.352C291.396 191.352 298.228 196.516 300.746 203.708H283.4Z" fill="#FF1D53"/>
<path d="M134.835 50.3013C109.492 50.3013 88.8679 70.2236 88.8679 94.7049C88.8679 114.744 103.044 132.429 122.872 137.589L122.44 126.701C122.44 126.701 105.412 115.496 102.214 109.384C99.0156 103.272 100.917 82.0635 104.98 76.7197C109.042 71.3759 116.821 63.4437 126.762 61.6068C136.702 59.7698 147.161 61.6068 155.804 67.368C164.448 73.1293 168.338 89.8287 168.338 89.8287C168.338 89.8287 175.546 89.4613 180.698 91.9662C179.229 68.7374 159.227 50.3013 134.835 50.3013Z" fill="white"/>
<path d="M163.991 78.8399C158.181 68.543 147.133 62.1372 135.152 62.1372C116.981 62.1372 102.198 76.665 102.198 94.5231C102.198 108.796 111.5 121.217 125.349 125.448C125.573 125.516 125.764 125.618 125.919 125.754L164.406 79.3157C164.233 79.1967 164.094 79.0438 163.991 78.8399Z" fill="white"/>
<path d="M167.154 77.8878C160.617 66.3451 148.21 59.1782 134.766 59.1782C114.362 59.1782 97.7546 75.4587 97.7546 95.4603C97.7546 103.351 100.303 110.862 105.101 117.168C109.758 123.266 116.383 127.866 123.747 130.106C123.922 130.157 124.098 130.192 124.274 130.192C125.03 130.192 125.715 129.727 125.943 128.986C126.154 128.297 125.908 127.573 125.381 127.143C125.205 127.005 125.012 126.901 124.801 126.832C110.724 122.543 101.269 109.932 101.269 95.4776C101.269 77.371 116.295 62.641 134.766 62.641C146.927 62.641 158.157 69.136 164.079 79.5761C164.184 79.7656 164.343 79.9379 164.501 80.0758C165.046 80.5065 165.819 80.5926 166.469 80.248C167.313 79.7656 167.611 78.732 167.154 77.8878Z" fill="#3FCAB5"/>
<path d="M124.415 95.4245C124.415 97.975 125.585 100.421 127.669 102.224C129.752 104.028 132.577 105.041 135.524 105.041C138.47 105.041 141.295 104.028 143.378 102.224C145.462 100.421 146.632 97.975 146.632 95.4245C146.632 92.8741 145.462 90.4281 143.378 88.6247C141.295 86.8213 138.47 85.8081 135.524 85.8081C132.577 85.8081 129.752 86.8213 127.669 88.6247C125.585 90.4281 124.415 92.8741 124.415 95.4245Z" fill="#1B1B1B"/>
<path d="M105.008 155.342C104.761 155.342 104.514 155.29 104.266 155.151C92.9475 149.191 83.6055 139.929 77.2458 128.373C76.7845 127.539 77.0481 126.479 77.8389 125.993C78.6298 125.506 79.6348 125.784 80.0962 126.618C86.1264 137.583 95.007 146.359 105.733 152.023C106.54 152.458 106.87 153.501 106.474 154.352C106.194 154.995 105.601 155.342 105.008 155.342Z" fill="#1B1B1B"/>
<path d="M186.445 104.975C186.36 104.975 186.293 104.958 186.208 104.958C186.09 104.958 185.972 104.958 185.871 104.975C185.837 104.975 185.786 104.991 185.752 104.991C185.685 105.008 185.617 105.008 185.55 105.025C185.499 105.042 185.449 105.059 185.398 105.059C185.347 105.076 185.28 105.093 185.229 105.109C185.178 105.126 185.111 105.143 185.06 105.177C185.01 105.194 184.976 105.21 184.925 105.227C184.858 105.261 184.807 105.278 184.74 105.312L184.638 105.362C184.571 105.396 184.503 105.446 184.436 105.48C184.419 105.497 184.385 105.514 184.368 105.531L184.166 105.682C184.149 105.699 184.132 105.699 184.115 105.716C184.047 105.767 183.98 105.834 183.912 105.902C183.895 105.902 183.895 105.918 183.879 105.918C183.811 105.986 183.743 106.053 183.676 106.138L183.659 106.154C183.153 106.744 182.849 107.503 182.849 108.329V123.853H176.096L176.011 97.4905C176.011 95.6363 174.509 94.1193 172.652 94.1193C170.795 94.1193 169.292 95.6195 169.292 97.4736V116.774H162.539V84.2923C162.539 82.4382 161.036 80.938 159.179 80.938C157.322 80.938 155.82 82.4382 155.82 84.2923V108.632L149.067 108.649L149.05 104.857V75.8475C149.05 73.9933 147.547 72.4932 145.69 72.4932C144.525 72.4932 143.462 73.0831 142.837 74.0608C142.499 74.6002 142.331 75.207 142.331 75.8475V129.028H135.578V104.233C135.578 102.379 134.075 100.879 132.218 100.879C130.361 100.879 128.858 102.379 128.858 104.233V150.401C128.858 157.211 134.396 162.74 141.216 162.74H177.227C184.047 162.74 189.585 157.211 189.585 150.401V108.312C189.551 106.542 188.184 105.093 186.445 104.975Z" fill="white"/>
<path d="M187.855 97.824C187.889 96.9851 187.923 96.1291 187.923 95.2732C187.923 81.2864 182.543 68.1386 172.765 58.2435C162.987 48.3483 149.995 42.9043 136.174 42.9043C122.353 42.9043 109.36 48.3483 99.5822 58.2435C89.8042 68.1386 84.4246 81.2864 84.4246 95.2732C84.4246 101.419 85.4734 107.445 87.5204 113.163C89.5166 118.693 92.3925 123.829 96.0973 128.4C102.932 136.857 112.27 142.968 122.606 145.81V150.758C122.606 161.44 131.2 170.137 141.756 170.137H177.84C188.397 170.137 196.991 161.44 196.991 150.758V108.027C196.974 102.72 192.964 98.3376 187.855 97.824ZM122.606 138.688C104.184 132.782 91.1914 115.166 91.1914 95.2903C91.1914 70.1929 111.373 49.7693 136.174 49.7693C159.299 49.7693 178.416 67.5394 180.886 90.2914C179.025 88.1514 176.301 86.7818 173.273 86.7818C172.089 86.7818 170.955 86.9873 169.906 87.3639V83.6318C169.906 77.9824 165.356 73.3772 159.773 73.3772C158.572 73.3772 157.405 73.5997 156.322 73.9935C155.798 68.8405 151.467 64.8174 146.239 64.8174C142.738 64.8174 139.54 66.6149 137.663 69.6109C137.629 69.6622 137.595 69.7136 137.578 69.765C137.121 69.7478 136.647 69.7307 136.191 69.7307C122.251 69.7307 110.917 81.2008 110.917 95.3074C110.917 99.7414 112.067 104.124 114.215 107.959C116.246 111.571 119.155 114.653 122.623 116.878V138.688H122.606ZM122.606 103.884V112.684C117.345 108.507 114.283 102.172 114.283 95.2903C114.283 83.0669 124.112 73.1375 136.174 73.1375H136.292C136.174 73.7709 136.106 74.4044 136.106 75.0549V94.2118C135.057 93.8351 133.924 93.6297 132.74 93.6297C127.157 93.6297 122.606 98.2349 122.606 103.884ZM190.207 150.775C190.207 157.691 184.658 163.306 177.824 163.306H141.756C134.922 163.306 129.373 157.691 129.373 150.775V103.884C129.373 102.001 130.879 100.478 132.74 100.478C134.601 100.478 136.106 102.001 136.106 103.884V129.067H142.873V75.0549C142.873 74.4044 143.059 73.7881 143.38 73.2402C144.006 72.2473 145.072 71.6481 146.239 71.6481C148.1 71.6481 149.606 73.1718 149.606 75.0549V104.518L149.623 108.37L156.39 108.353V83.6318C156.39 81.7487 157.895 80.225 159.756 80.225C161.617 80.225 163.123 81.7487 163.123 83.6318V116.621H169.889V97.0365C169.889 95.1533 171.395 93.6297 173.256 93.6297C175.117 93.6297 176.622 95.1533 176.622 97.0536L176.707 123.829H183.474V108.044V107.942C183.525 106.11 185.013 104.638 186.84 104.638C186.925 104.638 187.01 104.638 187.077 104.655C188.82 104.775 190.207 106.247 190.207 108.044V150.775Z" fill="#FF1D53"/>
<path d="M152.557 150.904H157.864V158.302H152.557V150.904ZM161.17 150.904H166.477V158.302H161.17V150.904ZM172.429 150.904H177.736V158.302H172.429V150.904Z" fill="#FF1D53"/>
</g>
<defs>
<clipPath id="clip0_67_5689">
<rect width="314" height="216" fill="white"/>
</clipPath>
</defs>
</svg>
