<svg width="244" height="213" viewBox="0 0 244 213" fill="none" xmlns="http://www.w3.org/2000/svg">
<g clip-path="url(#clip0_61_3951)">
<path d="M147.748 172.715C147.748 174.186 146.548 175.398 145.091 175.398H54.7911C53.3337 175.398 52.1335 174.186 52.1335 172.715V35.303C52.1335 33.8317 53.3337 32.62 54.7911 32.62H145.062C146.52 32.62 147.72 33.8317 147.72 35.303V172.715H147.748Z" fill="#FF1D53"/>
<rect x="164.592" y="86.9387" width="72.1893" height="115.918" fill="#FF1D53"/>
<path d="M222.988 79.8471H166.723V22.1476C166.723 10.0883 157.007 0.279419 145.062 0.279419H54.7911C42.8464 0.279419 33.1306 10.0883 33.1306 22.1476V191.034C33.1306 203.093 42.8464 212.902 54.7911 212.902H222.96C234.905 212.902 244.62 203.209 244.62 191.294V101.484C244.649 89.5406 234.933 79.8471 222.988 79.8471ZM145.091 201.362H54.7911C49.1617 201.362 44.5609 196.746 44.5609 191.034V78.1738L45.2753 77.943C46.7613 77.4237 47.5614 75.8082 47.0756 74.2791C46.7041 73.154 45.6754 72.4039 44.5895 72.3173V22.1764C44.5895 16.493 49.1617 11.8482 54.8197 11.8482H145.091C150.72 11.8482 155.321 16.4641 155.321 22.1764V85.6748C154.778 85.7325 154.206 85.9633 153.749 86.3383C152.549 87.3769 152.406 89.1945 153.435 90.4061L155.292 92.5987L155.321 92.6276V191.063C155.292 196.746 150.72 201.362 145.091 201.362ZM233.219 191.294C233.219 196.862 228.646 201.362 222.988 201.362H164.179C165.808 198.275 166.751 194.785 166.751 191.034V104.571C167.408 104.571 168.066 104.341 168.58 103.879C169.78 102.84 169.923 101.023 168.894 99.8112L167.037 97.6186C166.951 97.5032 166.837 97.4166 166.723 97.3012V91.387H222.988C228.618 91.387 233.219 95.9165 233.219 101.456V191.294Z" fill="white"/>
<path d="M117.23 24.5132H82.6527C81.0811 24.5132 79.7952 23.215 79.7952 21.6283C79.7952 20.0415 81.0811 18.7433 82.6527 18.7433H117.23C118.801 18.7433 120.087 20.0415 120.087 21.6283C120.087 23.215 118.801 24.5132 117.23 24.5132Z" fill="#3FCAB5"/>
<rect x="16.2563" y="67.3776" width="86.5701" height="15.9388" rx="7.96939" stroke="white" stroke-width="15.9388"/>
<path d="M24.1685 66.6531H97.8016" stroke="#FF1D53" stroke-width="3" stroke-linecap="round"/>
<path d="M24.1685 75.3469H86.2513" stroke="#FF1D53" stroke-width="3" stroke-linecap="round"/>
<path d="M24.1685 84.0408H61.7069" stroke="#FF1D53" stroke-width="3" stroke-linecap="round"/>
<path d="M177.136 98.5306C177.136 105.548 171.479 111.163 164.592 111.163C157.704 111.163 152.047 105.548 152.047 98.5306C152.047 91.5131 157.704 85.8979 164.592 85.8979C171.479 85.8979 177.136 91.5131 177.136 98.5306Z" stroke="white" stroke-width="24"/>
<path d="M179.03 89.8368L161.163 108.674L153.042 100.111" stroke="#3FCAB5" stroke-width="2" stroke-linecap="round" stroke-linejoin="round"/>
<path d="M193.467 102.878L205.018 102.878M212.237 102.878H219.456M193.467 108.673H219.456M189.136 114.469L219.456 114.469M180.473 126.061L219.456 126.061M180.473 131.857L219.456 131.857M180.473 143.449L219.456 143.449M180.473 172.429L219.456 172.429M180.473 189.816L219.456 189.816M180.473 149.245L207.905 149.245M213.68 149.245H219.456M180.473 137.653H186.249M192.024 137.653H200.686M206.462 137.653H219.456M180.473 155.041H186.249M192.024 155.041H200.686M206.462 155.041H219.456M183.361 120.265L200.686 120.265M205.018 120.265L219.456 120.265M180.473 178.225H200.686M180.473 184.02H192.024M197.799 184.02H206.462M210.793 184.02H219.456M205.018 178.225H219.456" stroke="white" stroke-width="2" stroke-linecap="round"/>
</g>
<defs>
<clipPath id="clip0_61_3951">
<rect width="244" height="213" fill="white"/>
</clipPath>
</defs>
</svg>
