<svg width="228" height="212" viewBox="0 0 228 212" fill="none" xmlns="http://www.w3.org/2000/svg">
<g clip-path="url(#clip0_61_4006)">
<path d="M138.06 171.904C138.06 173.368 136.938 174.574 135.576 174.574H51.1981C49.8363 174.574 48.7148 173.368 48.7148 171.904V35.1373C48.7148 33.6729 49.8363 32.4669 51.1981 32.4669H135.55C136.912 32.4669 138.033 33.6729 138.033 35.1373V171.904H138.06Z" fill="#FF1D53"/>
<path d="M208.366 79.4723H155.79V22.0437C155.79 10.0411 146.711 0.278198 135.55 0.278198H51.1981C40.0367 0.278198 30.958 10.0411 30.958 22.0437V190.137C30.958 202.14 40.0367 211.903 51.1981 211.903H208.339C219.501 211.903 228.58 202.255 228.58 190.396V101.008C228.606 89.1203 219.528 79.4723 208.366 79.4723ZM135.576 200.417H51.1981C45.9378 200.417 41.6388 195.823 41.6388 190.137V77.8069L42.3064 77.5772C43.6949 77.0603 44.4425 75.4523 43.9886 73.9305C43.6415 72.8106 42.6802 72.064 41.6655 71.9779V22.0724C41.6655 16.4157 45.9378 11.7926 51.2248 11.7926H135.576C140.837 11.7926 145.136 16.3869 145.136 22.0724V85.2726C144.628 85.3301 144.094 85.5598 143.667 85.9331C142.546 86.9668 142.412 88.7758 143.373 89.9818L145.109 92.1641L145.136 92.1928V190.166C145.109 195.823 140.837 200.417 135.576 200.417ZM217.925 190.396C217.925 195.938 213.653 200.417 208.366 200.417H153.413C154.935 197.345 155.817 193.87 155.817 190.137V104.081C156.431 104.081 157.045 103.851 157.526 103.391C158.647 102.358 157.819 99.3427 157.819 99.3427L156.084 97.1604C156.004 97.0455 155.897 96.9594 155.79 96.8445V90.9581H208.366C213.626 90.9581 217.925 95.4662 217.925 100.979V190.396Z" fill="white"/>
<path d="M109.542 24.3981H77.2329C75.7643 24.3981 74.5627 23.106 74.5627 21.5267C74.5627 19.9474 75.7643 18.6553 77.2329 18.6553H109.542C111.011 18.6553 112.213 19.9474 112.213 21.5267C112.213 23.106 111.011 24.3981 109.542 24.3981Z" fill="#3FCAB5"/>
<path d="M171.337 72.1089C171.337 73.2563 171.764 74.3568 172.523 75.1682C173.282 75.9796 174.311 76.4354 175.385 76.4354C176.458 76.4354 177.488 75.9796 178.247 75.1682C179.006 74.3568 179.432 73.2563 179.432 72.1089C179.432 70.9614 179.006 69.8609 178.247 69.0496C177.488 68.2382 176.458 67.7823 175.385 67.7823C174.311 67.7823 173.282 68.2382 172.523 69.0496C171.764 69.8609 171.337 70.9614 171.337 72.1089Z" fill="#1B1B1B"/>
<path d="M78.2485 85.0885C78.2485 86.236 78.675 87.3364 79.434 88.1478C80.193 88.9592 81.2225 89.415 82.2959 89.415C83.3693 89.415 84.3988 88.9592 85.1578 88.1478C85.9168 87.3364 86.3432 86.236 86.3432 85.0885C86.3432 83.941 85.9168 82.8406 85.1578 82.0292C84.3988 81.2178 83.3693 80.762 82.2959 80.762C81.2225 80.762 80.193 81.2178 79.434 82.0292C78.675 82.8406 78.2485 83.941 78.2485 85.0885Z" fill="#FF1D53"/>
<path d="M90.3541 44.7075H9.48033C7.23421 44.7075 5.39648 46.6735 5.39648 49.0765V56.5473C5.39648 58.9502 7.23421 60.9163 9.48033 60.9163H90.3541C92.6002 60.9163 94.4379 58.9502 94.4379 56.5473V49.0765C94.4379 46.659 92.6002 44.7075 90.3541 44.7075ZM45.7313 54.2609H13.1422C12.3935 54.2609 11.7809 53.6056 11.7809 52.8046C11.7809 52.0036 12.3935 51.3483 13.1422 51.3483H45.7313C46.48 51.3483 47.0925 52.0036 47.0925 52.8046C47.0925 53.6056 46.48 54.2609 45.7313 54.2609ZM82.1183 56.9988C80.09 56.9988 78.4428 55.1201 78.4428 52.8192C78.4428 50.5182 80.09 48.6396 82.1183 48.6396C84.1466 48.6396 85.7938 50.5182 85.7938 52.8192C85.7938 55.1201 84.1466 56.9988 82.1183 56.9988ZM94.4379 81.8872C94.4379 79.4842 92.6002 77.5182 90.3541 77.5182H9.48033C7.23421 77.5182 5.39648 79.4842 5.39648 81.8872V89.3726C5.39648 91.7755 7.23421 93.7415 9.48033 93.7415H63.2101L67.6615 90.8289C68.4646 90.3046 69.3903 90.0134 70.3432 89.9988H70.4385C71.3097 89.9988 72.1946 90.2318 72.9705 90.6541C73.8009 91.1056 74.5087 91.7755 75.026 92.591L75.7611 93.7415H82.4042L82.9895 92.5182C83.3162 91.8338 83.7654 91.2367 84.3372 90.7561C84.8681 90.2901 85.4807 89.9551 86.1477 89.7512C86.6378 89.591 87.1551 89.5182 87.6587 89.5182C88.5299 89.5182 89.4012 89.7512 90.1771 90.1736L93.5803 92.0376C94.1112 91.2949 94.4243 90.3774 94.4243 89.3726V81.8872H94.4379ZM82.1183 89.8095C80.09 89.8095 78.4428 87.9308 78.4428 85.6299C78.4428 83.3289 80.09 81.4503 82.1183 81.4503C84.1466 81.4503 85.7938 83.3289 85.7938 85.6299C85.7938 87.9308 84.1466 89.8095 82.1183 89.8095Z" fill="#1B1B1B"/>
<path d="M90.3146 38.9387H9.51969C4.27026 38.9387 0 43.4364 0 48.9654V56.3134C0 61.8424 4.27026 66.3401 9.51969 66.3401H90.3146C95.5641 66.3401 99.8343 61.8424 99.8343 56.3134V48.9654C99.8343 43.4364 95.5641 38.9387 90.3146 38.9387ZM94.3945 56.3134C94.3945 58.6769 92.5586 60.6106 90.3146 60.6106H9.51969C7.27576 60.6106 5.43982 58.6769 5.43982 56.3134V48.9654C5.43982 46.6019 7.27576 44.6682 9.51969 44.6682H90.3146C92.5586 44.6682 94.3945 46.6019 94.3945 48.9654V56.3134Z" fill="white"/>
<path d="M45.8668 50.4762H13.4943C12.7506 50.4762 12.1421 51.4497 12.1421 52.6395C12.1421 53.8293 12.7506 54.8027 13.4943 54.8027H45.8668C46.6105 54.8027 47.219 53.8293 47.219 52.6395C47.219 51.4497 46.6105 50.4762 45.8668 50.4762Z" fill="white"/>
<path d="M53.7047 125.315C53.1593 124.488 52.8321 123.548 52.7639 122.55L52.2867 115.808C52.1776 114.326 52.6412 112.915 53.582 111.832C53.8411 111.532 54.1138 111.276 54.4137 111.048H9.48694C7.23719 111.048 5.39648 112.972 5.39648 115.324V122.636C5.39648 124.987 7.23719 126.912 9.48694 126.912H55.3136C54.6728 126.498 54.1274 125.957 53.7047 125.315Z" fill="#3FCAB5"/>
<path d="M63.0962 129.83C62.6707 129.171 62.2863 128.483 61.9293 127.782L58.8541 127.868H58.7168C57.8382 127.868 56.9596 127.653 56.1771 127.223C56.0261 127.151 55.8888 127.065 55.7515 126.965H9.60996C7.34475 126.965 5.4914 125.031 5.4914 122.668V115.32C5.4914 112.956 7.34475 111.023 9.60996 111.023H54.8454C55.1062 110.822 55.3945 110.65 55.6966 110.507C56.3555 110.192 57.0694 110.02 57.8108 110.006L60.7349 109.92C60.7898 109.762 60.8448 109.619 60.8997 109.461C61.1331 108.86 61.3802 108.258 61.6685 107.7C62.0117 106.998 62.4098 106.296 62.8491 105.608L62.6432 105.279H9.60996C4.31075 105.279 0 109.777 0 115.306V122.654C0 128.183 4.31075 132.68 9.60996 132.68H64.4828L64.7574 132.122C64.1533 131.405 63.6042 130.632 63.0962 129.83Z" fill="white"/>
<path d="M89.8701 115.428C89.4484 114.118 88.8159 112.925 87.9726 111.877C87.709 111.557 87.4455 111.265 87.1556 110.974C86.5231 110.363 85.8247 109.825 85.0604 109.388C83.9535 108.762 82.7675 108.369 81.5421 108.224C80.277 108.078 79.0252 108.195 77.8129 108.588C77.1935 108.791 76.6137 109.053 76.0603 109.388C75.5464 109.694 75.0456 110.057 74.5976 110.48C74.4263 110.64 74.2682 110.8 74.11 110.974C73.438 111.702 72.8846 112.532 72.4497 113.449C71.9226 114.598 71.6063 115.821 71.5273 117.116C71.435 118.455 71.6064 119.794 72.0148 121.104C72.4365 122.414 73.069 123.607 73.9124 124.655C74.7294 125.674 75.7177 126.503 76.8246 127.129C76.8509 127.144 76.8773 127.158 76.9168 127.173C78.0105 127.77 79.157 128.148 80.3561 128.293C81.6211 128.439 82.873 128.323 84.0853 127.93C84.6783 127.74 85.2317 127.493 85.7588 127.187C86.3122 126.867 86.8262 126.489 87.3005 126.052C88.1966 125.223 88.9214 124.233 89.4484 123.083C89.9755 121.933 90.2918 120.711 90.3709 119.416C90.4499 118.077 90.2918 116.738 89.8701 115.428Z" fill="white"/>
<path d="M104.749 114.308C104.735 114.021 104.528 113.747 104.252 113.589C104.115 113.517 103.963 113.474 103.811 113.474L100.173 113.575L97.637 113.646L97.5405 113.402L97.0168 112.15C96.7963 111.603 96.5482 111.085 96.2725 110.567C95.4732 109.07 94.4809 107.689 93.3094 106.451L92.2344 105.314L92.1241 105.199L94.8943 99.5728C94.9495 99.472 94.9632 99.3569 94.9495 99.2418C94.9219 98.9828 94.7289 98.7093 94.4533 98.551L88.3892 95.2988C88.2514 95.2269 88.0998 95.1837 87.9482 95.1837C87.6725 95.1837 87.4382 95.3132 87.3418 95.5147L84.9988 100.278L84.5578 101.156L82.9039 100.882C81.953 100.724 80.9882 100.652 80.0372 100.652C78.7831 100.652 77.5151 100.796 76.3023 101.069L74.7725 101.415L74.042 100.292L71.3132 96.1191C71.2167 95.9752 71.0927 95.8601 70.9549 95.7881C70.817 95.7162 70.6517 95.673 70.5001 95.673C70.3484 95.673 70.2106 95.7162 70.1004 95.7881L64.5186 99.3569C64.3808 99.4432 64.2981 99.5584 64.2706 99.7167C64.2292 99.9037 64.2706 100.091 64.3946 100.278L64.4222 100.307L67.6196 105.199L67.9366 105.689L66.8754 107.084C66.3103 107.833 65.8141 108.61 65.3869 109.401C65.3042 109.545 65.2353 109.689 65.1664 109.833C64.9872 110.193 64.8218 110.581 64.6702 110.97C64.4222 111.589 64.2154 112.222 64.0363 112.884L63.5814 114.596L57.3106 114.769C57.1039 114.769 56.9247 114.855 56.8007 114.985C56.7042 115.1 56.6628 115.244 56.6628 115.402L57.1452 122.209C57.159 122.496 57.3657 122.77 57.6414 122.928C57.7792 123 57.9308 123.043 58.0824 123.043L64.243 122.871L64.8632 124.367C65.2353 125.274 65.6901 126.137 66.2 126.972C66.834 127.994 67.5645 128.958 68.3776 129.85C68.4465 129.922 68.5154 129.994 68.5706 130.066L69.7558 131.303L69.0529 132.728L66.9856 136.944C66.8891 137.146 66.9305 137.347 66.9718 137.462C67.0545 137.678 67.2061 137.851 67.4266 137.966L73.4908 141.218C73.6286 141.29 73.7802 141.333 73.9318 141.333C74.2074 141.333 74.4417 141.204 74.5382 141.002L77.3084 135.361L78.9622 135.635C79.9132 135.793 80.878 135.865 81.8289 135.865C83.0831 135.865 84.351 135.721 85.5639 135.448L87.0937 135.102L90.553 140.398C90.6494 140.542 90.7735 140.657 90.9113 140.729C91.0491 140.801 91.2145 140.844 91.3661 140.844C91.5177 140.844 91.6555 140.801 91.7658 140.729L97.3475 137.16C97.4854 137.074 97.568 136.959 97.5956 136.8C97.637 136.57 97.5543 136.369 97.4716 136.239L94.5911 131.821L93.9434 130.814L94.9357 129.519L95.0046 129.433C95.6799 128.555 96.245 127.634 96.7136 126.684C97.0306 126.051 97.3062 125.36 97.5405 124.655C97.6507 124.324 97.761 123.979 97.8437 123.633L98.3123 121.921L100.297 121.863L104.583 121.748C104.79 121.748 104.969 121.662 105.093 121.532C105.19 121.417 105.231 121.273 105.231 121.115L104.749 114.308ZM75.0895 129.605C73.794 128.915 72.6363 128.022 71.644 126.957C71.4924 126.799 71.3545 126.641 71.2029 126.468C70.059 125.13 69.2045 123.605 68.6395 121.935C68.0744 120.252 67.8539 118.525 67.9641 116.784C68.0744 115.1 68.5017 113.488 69.2459 111.992C69.4251 111.617 69.618 111.272 69.8385 110.927C70.1831 110.38 70.569 109.847 70.9824 109.358C71.3683 108.912 71.7818 108.495 72.2228 108.121C73.5045 107.013 74.9792 106.192 76.6193 105.689C77.5151 105.415 78.4247 105.243 79.3481 105.171C79.9546 105.127 80.561 105.127 81.1812 105.171L81.636 105.214C83.276 105.401 84.861 105.89 86.3357 106.682C87.645 107.387 88.8164 108.279 89.8225 109.373C89.9603 109.516 90.0844 109.66 90.2222 109.819C90.5392 110.193 90.8286 110.567 91.1043 110.97C91.8209 112.006 92.386 113.143 92.7857 114.352C93.3507 116.035 93.5712 117.762 93.461 119.503C93.3507 121.187 92.9235 122.799 92.1793 124.295C91.6969 125.274 91.1043 126.166 90.4014 126.972C90.0293 127.404 89.6296 127.792 89.2023 128.166C88.4305 128.828 87.5898 129.389 86.694 129.85C86.0876 130.152 85.4674 130.411 84.8058 130.613C83.1796 131.116 81.4844 131.275 79.7892 131.087C78.3145 130.929 76.8949 130.512 75.5581 129.85C75.4065 129.764 75.2549 129.692 75.0895 129.605Z" fill="#1B1B1B"/>
<path d="M109.262 120.187L108.786 113.368C108.718 112.373 108.392 111.407 107.848 110.571C107.331 109.778 106.624 109.129 105.821 108.697C105.046 108.279 104.175 108.048 103.305 108.048H103.169L100.122 108.135C99.3468 106.578 98.4083 105.107 97.3202 103.752L98.5715 101.172C98.898 100.494 99.0884 99.759 99.1292 98.9949C99.17 98.2741 99.0612 97.5533 98.83 96.8614C98.6532 96.3424 98.4083 95.8522 98.1091 95.4053C99.2108 93.7619 99.8501 91.758 99.8501 89.5956V82.2002C99.8501 76.6355 95.5792 72.1089 90.3289 72.1089H9.52119C4.27094 72.1089 0 76.6355 0 82.2002V89.5956C0 95.1603 4.27094 99.6869 9.52119 99.6869H59.7251C59.7387 99.8887 59.7659 100.076 59.8067 100.278C59.9427 101.028 60.2283 101.734 60.6364 102.368L62.0646 104.588L62.2686 104.92C61.8333 105.612 61.4389 106.304 61.0989 107.025C60.8268 107.587 60.5684 108.192 60.3372 108.798C60.2827 108.956 60.2283 109.101 60.1739 109.259L57.2768 109.346C56.5423 109.36 55.835 109.533 55.1821 109.85C54.8829 109.994 54.5972 110.167 54.3388 110.369C54.0396 110.6 53.7539 110.859 53.5091 111.162C52.5706 112.272 52.1081 113.699 52.2169 115.184L52.693 122.003C52.761 122.998 53.0874 123.964 53.6315 124.8C54.0532 125.449 54.6108 125.996 55.2365 126.429C55.3725 126.515 55.5086 126.602 55.6582 126.688C56.4335 127.106 57.304 127.337 58.1745 127.337H58.3105L61.3573 127.251C61.7109 127.957 62.0918 128.649 62.5134 129.312C63.0167 130.119 63.5608 130.883 64.1592 131.633L63.8872 132.195L62.9079 134.214C62.5814 134.891 62.391 135.626 62.3502 136.39C62.3094 137.111 62.4182 137.832 62.6494 138.524C63.1119 139.922 64.064 141.061 65.329 141.753L71.3137 145.011C72.1026 145.429 72.9731 145.66 73.83 145.66C74.3469 145.66 74.8502 145.588 75.3398 145.429C76.0063 145.227 76.6184 144.881 77.1489 144.435C77.7065 143.959 78.169 143.368 78.4954 142.69L79.7468 140.11C80.3725 140.167 80.9981 140.196 81.6238 140.196C82.6712 140.196 83.7049 140.124 84.7386 139.966L86.4524 142.633C86.9693 143.44 87.6766 144.103 88.5063 144.55C89.2816 144.968 90.1657 145.199 91.0362 145.199H91.1314C92.0835 145.184 93.0085 144.896 93.811 144.377L99.3196 140.802C100.53 140.023 101.346 138.783 101.646 137.327C101.795 136.607 101.795 135.857 101.659 135.122C101.523 134.372 101.237 133.666 100.829 133.031L99.1972 130.494C99.6325 129.802 100.027 129.11 100.367 128.389C100.707 127.683 101.02 126.933 101.292 126.155L104.189 126.068C104.924 126.054 105.631 125.881 106.284 125.564C106.923 125.247 107.494 124.814 107.957 124.266C108.909 123.113 109.371 121.686 109.262 120.187ZM5.44068 89.5956V82.2002C5.44068 79.8215 7.27691 77.8753 9.52119 77.8753H90.3289C92.5732 77.8753 94.4094 79.8215 94.4094 82.2002V89.5956C94.4094 90.5903 94.0966 91.4986 93.5661 92.2338L90.1657 90.3885C89.3768 89.9705 88.5063 89.7398 87.6494 89.7398C87.1325 89.7398 86.6292 89.8119 86.1396 89.9705C85.4731 90.1723 84.861 90.5183 84.3306 90.9652C83.7729 91.4409 83.3104 92.032 82.984 92.7095L82.3991 93.9205H75.7615L75.027 92.7816C74.5101 91.9743 73.8028 91.3111 72.9731 90.8642C72.1842 90.4462 71.3137 90.2155 70.4432 90.2155H70.348C69.3959 90.2299 68.471 90.5183 67.6685 91.0372L63.2207 93.9205H9.52119C7.27691 93.9205 5.44068 91.9743 5.44068 89.5956ZM104.583 120.98C104.461 121.124 104.298 121.196 104.08 121.196L99.8501 121.311L97.8915 121.369L97.429 123.084C97.3338 123.43 97.2386 123.776 97.1298 124.108C96.8985 124.814 96.6265 125.506 96.3137 126.14C95.8648 127.078 95.2935 128 94.6271 128.894L94.559 128.98L93.5797 130.278L94.219 131.287L97.0618 135.713C97.1434 135.843 97.225 136.044 97.1842 136.275C97.157 136.419 97.0618 136.549 96.9393 136.635L91.4307 140.196C91.3218 140.268 91.1858 140.312 91.0362 140.312C90.8866 140.312 90.737 140.268 90.5873 140.196C90.4377 140.124 90.3153 140.009 90.2337 139.865L86.8197 134.559L85.3099 134.905C84.0993 135.179 82.8616 135.324 81.6238 135.324C80.6853 135.324 79.7332 135.237 78.7947 135.093L77.1625 134.819L74.4285 140.47C74.3333 140.672 74.1021 140.802 73.83 140.802C73.6804 140.802 73.5308 140.758 73.3948 140.686L67.41 137.428C67.1924 137.313 67.0428 137.126 66.9612 136.924C66.9204 136.823 66.8796 136.607 66.9748 136.405L69.015 132.181L69.7087 130.754L68.539 129.514C68.471 129.442 68.403 129.37 68.3486 129.298C67.5325 128.404 66.8116 127.438 66.1995 126.414C65.6962 125.578 65.2474 124.713 64.8801 123.805L64.2681 122.306L58.1881 122.479C58.0385 122.479 57.8888 122.436 57.7528 122.363C57.4672 122.205 57.2768 121.931 57.2632 121.643L56.7871 114.824C56.7735 114.665 56.8143 114.521 56.9231 114.406C57.0455 114.262 57.2088 114.19 57.4264 114.19L63.6152 114.017L64.064 112.301C64.2408 111.638 64.4449 110.989 64.6897 110.384C64.8393 109.994 65.0025 109.62 65.1794 109.245C65.2474 109.101 65.329 108.956 65.397 108.812C65.805 108.019 66.3083 107.241 66.866 106.491L67.9133 105.093L67.6005 104.603L64.4449 99.7013L64.4177 99.6725C64.2952 99.4851 64.2544 99.2977 64.2953 99.1103C64.3225 98.9661 64.4177 98.8364 64.5401 98.7499L70.0488 95.1747C70.1576 95.1026 70.2936 95.0593 70.4432 95.0593C70.5928 95.0593 70.7425 95.1026 70.8921 95.1747C71.0417 95.2468 71.1641 95.3621 71.2457 95.5062L73.9389 99.6869L74.6597 100.811L76.1695 100.465C77.3801 100.191 78.6178 100.047 79.8556 100.047C80.7941 100.047 81.7462 100.134 82.6848 100.278L84.317 100.552L84.7386 99.6725L87.0509 94.9008C87.1461 94.6989 87.3773 94.5692 87.6494 94.5692C87.799 94.5692 87.9486 94.6124 88.0846 94.6845L94.0694 97.9426C94.3414 98.0867 94.5318 98.3606 94.559 98.6345C94.5726 98.7499 94.559 98.8652 94.5046 98.9661L91.7707 104.617L91.8795 104.733L92.9404 105.871C94.1102 107.126 95.0895 108.495 95.8648 109.994C96.1368 110.513 96.3817 111.032 96.5993 111.58L97.1162 112.834L97.2114 113.079L99.7141 113.007L103.305 112.906C103.455 112.906 103.604 112.95 103.74 113.022C104.026 113.18 104.216 113.454 104.23 113.743L104.706 120.561C104.72 120.72 104.679 120.864 104.583 120.98Z" fill="white"/>
<path d="M92.3791 114.453C91.9783 113.245 91.3978 112.109 90.6929 111.074C90.4165 110.671 90.1263 110.297 89.8084 109.924C89.684 109.78 89.5458 109.622 89.4076 109.478C88.3987 108.399 87.2239 107.493 85.911 106.789C84.4322 105.998 82.8428 105.509 81.1981 105.322L80.742 105.279H78.9039C77.9779 105.351 77.0657 105.509 76.1674 105.797C74.5227 106.3 73.0439 107.12 71.7586 108.227C71.3163 108.615 70.9017 109.032 70.5147 109.463C70.0863 109.952 69.7131 110.47 69.3676 111.031C69.1603 111.376 68.953 111.735 68.7733 112.095C68.0408 113.59 67.6124 115.201 67.488 116.883C67.3636 118.623 67.5986 120.349 68.1652 122.031C68.7319 123.699 69.5887 125.223 70.7359 126.561C70.8741 126.733 71.0261 126.891 71.1781 127.05C72.187 128.114 73.348 129.005 74.6333 129.695C74.7853 129.782 74.9374 129.854 75.1032 129.926C76.4576 130.573 77.8812 130.99 79.3462 131.162C81.0461 131.349 82.746 131.191 84.3769 130.688C85.0403 130.486 85.6622 130.227 86.2703 129.926C87.1687 129.48 88.0117 128.919 88.7857 128.243C89.2141 127.869 89.6149 127.467 89.9881 127.05C90.6929 126.244 91.2872 125.353 91.7709 124.375C92.5034 122.88 92.9319 121.269 93.0563 119.587C93.1807 117.861 92.9457 116.136 92.3791 114.453ZM90.1677 119.385C90.0848 120.651 89.7531 121.873 89.2003 123.009C88.6475 124.145 87.8873 125.123 86.9475 125.942C86.45 126.374 85.911 126.748 85.3305 127.064C84.7777 127.366 84.1972 127.61 83.5753 127.797C82.3038 128.186 80.9908 128.315 79.664 128.157C78.4063 128.013 77.2039 127.639 76.0568 127.05C76.0292 127.035 76.0016 127.021 75.9601 127.006C74.7992 126.388 73.7626 125.554 72.9057 124.562C72.0212 123.527 71.344 122.347 70.9155 121.053C70.4871 119.759 70.3074 118.436 70.4042 117.113C70.4871 115.848 70.8188 114.626 71.3716 113.49C71.8277 112.569 72.4082 111.75 73.113 111.045C73.2789 110.873 73.4447 110.714 73.6244 110.556C74.0943 110.139 74.6195 109.78 75.1585 109.478C75.739 109.161 76.3471 108.888 76.9966 108.687C78.2681 108.299 79.5811 108.169 80.9079 108.327C82.1932 108.471 83.4371 108.859 84.598 109.478C85.3996 109.909 86.1321 110.427 86.7955 111.045C87.0996 111.318 87.3898 111.62 87.6524 111.937C88.5369 112.972 89.2141 114.151 89.6426 115.445C90.0848 116.739 90.2507 118.062 90.1677 119.385Z" fill="#FF1D53"/>
<path d="M169.932 95.1836C169.932 106.474 161.518 114.527 152.45 114.527C143.382 114.527 134.968 106.474 134.968 95.1836C134.968 83.8936 143.382 75.8401 152.45 75.8401C161.518 75.8401 169.932 83.8936 169.932 95.1836Z" stroke="white" stroke-width="19"/>
<ellipse cx="152.45" cy="95.1837" rx="20.2367" ry="21.6327" fill="#FF1D53"/>
<ellipse cx="152.45" cy="95.1837" rx="13.4911" ry="14.4218" fill="#3FCAB5"/>
<path d="M164.592 118.259L190.225 161.524" stroke="white" stroke-width="6" stroke-linecap="round"/>
</g>
<defs>
<clipPath id="clip0_61_4006">
<rect width="228" height="212" fill="white"/>
</clipPath>
</defs>
</svg>
