<svg width="210" height="219" viewBox="0 0 210 219" fill="none" xmlns="http://www.w3.org/2000/svg">
<g clip-path="url(#clip0_67_5752)">
<path d="M114.11 178.942C114.11 180.405 112.915 181.61 111.463 181.61H21.5028C20.0509 181.61 18.8552 180.405 18.8552 178.942V42.3075C18.8552 40.8445 20.0509 39.6396 21.5028 39.6396H111.434C112.886 39.6396 114.082 40.8445 114.082 42.3075V178.942H114.11Z" fill="#1B1B1B"/>
<rect x="130.89" y="93.6514" width="71.9178" height="115.263" fill="white"/>
<path d="M189.067 86.4475H133.013V29.2265C133.013 17.2354 123.334 7.48193 111.434 7.48193H21.5023C9.60258 7.48193 -0.0766602 17.2354 -0.0766602 29.2265V197.158C-0.0766602 209.15 9.60258 218.903 21.5023 218.903H189.039C200.938 218.903 210.618 209.264 210.618 197.417V108.115C210.646 96.2386 200.967 86.4475 189.067 86.4475ZM111.462 207.428H21.5023C15.8941 207.428 11.3107 202.838 11.3107 197.158V84.9361L12.0224 84.7066C13.5027 84.1902 14.2999 82.5837 13.8159 81.0634C13.4458 79.9446 12.4209 79.1987 11.3391 79.1127V29.2551C11.3391 23.6039 15.8941 18.9853 21.5308 18.9853H111.462C117.071 18.9853 121.654 23.5752 121.654 29.2551V92.3946C121.113 92.452 120.544 92.6815 120.088 93.0544C118.893 94.0871 118.75 95.8944 119.775 97.0992L121.626 99.2794L121.654 99.3081V197.187C121.626 202.838 117.071 207.428 111.462 207.428ZM199.259 197.417C199.259 202.953 194.704 207.428 189.067 207.428H130.479C132.102 204.359 133.041 200.888 133.041 197.158V111.184C133.696 111.184 134.351 110.955 134.863 110.496C136.059 109.463 136.201 107.656 135.176 106.451L133.326 104.271C133.241 104.156 133.127 104.07 133.013 103.955V98.0746H189.067C194.675 98.0746 199.259 102.578 199.259 108.086V197.417Z" fill="#FF1D53"/>
<path d="M83.7066 31.5787H49.2599C47.6942 31.5787 46.4131 30.2877 46.4131 28.71C46.4131 27.1322 47.6942 25.8413 49.2599 25.8413H83.7066C85.2724 25.8413 86.5534 27.1322 86.5534 28.71C86.5534 30.2877 85.2724 31.5787 83.7066 31.5787Z" fill="#3FCAB5"/>
<path d="M153.84 154.164H86.3805C82.367 154.164 79.1096 150.918 79.1096 146.918V77.8451C79.1096 73.845 82.367 70.5986 86.3805 70.5986H153.825C157.839 70.5986 161.096 73.845 161.096 77.8451V146.918C161.11 150.933 157.853 154.164 153.84 154.164Z" fill="white"/>
<rect x="102.123" y="56.1909" width="76.2329" height="30.2566" fill="#3FCAB5"/>
<path d="M153.854 73.4805H86.3516C83.9507 73.4805 81.9863 75.5008 81.9863 77.9702V89.3292H158.219V77.9702C158.219 75.5008 156.255 73.4805 153.854 73.4805Z" fill="#3FCAB5"/>
<path d="M180.383 53.1816C178.168 51.3988 175.276 50.4277 172.226 50.4277H109.108C106.058 50.4277 103.152 51.4133 100.95 53.1816C98.5909 55.0803 97.2241 57.7762 97.2241 60.5736V67.6757H86.3041C80.7506 67.6757 76.2329 72.2268 76.2329 77.8215V146.9C76.2329 152.495 80.7506 157.046 86.3041 157.046H153.047C158.601 157.046 163.118 152.495 163.118 146.9V139.798H172.226C175.276 139.798 178.182 138.813 180.383 137.044C182.743 135.146 184.11 132.45 184.11 129.652V60.5736C184.11 57.7762 182.743 55.0803 180.383 53.1816ZM157.363 88.8225H81.9879V77.8215C81.9879 75.43 83.9302 73.4733 86.3041 73.4733H153.047C155.421 73.4733 157.363 75.43 157.363 77.8215V88.8225ZM157.363 146.9C157.363 149.292 155.421 151.249 153.047 151.249H86.3041C83.9302 151.249 81.9879 149.292 81.9879 146.9V91.7214H157.363V146.9ZM178.355 129.652C178.355 132.015 175.549 134.001 172.226 134.001H163.118V77.8215C163.118 72.2268 158.601 67.6757 153.047 67.6757H102.979V60.5736C102.979 58.2111 105.785 56.2254 109.108 56.2254H172.226C175.549 56.2254 178.355 58.2111 178.355 60.5736V129.652Z" fill="#FF1D53"/>
<path d="M134.069 83.5659H113.328C111.904 83.5659 110.753 82.278 110.753 80.6843C110.753 79.0906 111.904 77.8027 113.328 77.8027H134.069C135.493 77.8027 136.644 79.0906 136.644 80.6843C136.644 82.278 135.493 83.5659 134.069 83.5659Z" fill="white"/>
<path d="M102.496 146.96H90.6352C88.2371 146.96 86.3013 145.018 86.3013 142.612V96.5327H102.496V146.96ZM148.117 146.96H107.494V96.5327H152.466V142.612C152.451 145.018 150.515 146.96 148.117 146.96Z" fill="#1B1B1B"/>
<path d="M87.7397 80.6843C87.7397 81.4486 87.9671 82.1815 88.3717 82.7219C88.7763 83.2623 89.3251 83.5659 89.8973 83.5659C90.4695 83.5659 91.0183 83.2623 91.4229 82.7219C91.8275 82.1815 92.0548 81.4486 92.0548 80.6843C92.0548 79.9201 91.8275 79.1871 91.4229 78.6467C91.0183 78.1063 90.4695 77.8027 89.8973 77.8027C89.3251 77.8027 88.7763 78.1063 88.3717 78.6467C87.9671 79.1871 87.7397 79.9201 87.7397 80.6843Z" fill="white"/>
<path d="M96.3699 80.6843C96.3699 81.0627 96.4443 81.4374 96.5889 81.787C96.7334 82.1367 96.9453 82.4543 97.2124 82.7219C97.4796 82.9895 97.7967 83.2017 98.1457 83.3465C98.4947 83.4914 98.8688 83.5659 99.2466 83.5659C99.6244 83.5659 99.9984 83.4914 100.347 83.3465C100.696 83.2017 101.014 82.9895 101.281 82.7219C101.548 82.4543 101.76 82.1367 101.904 81.787C102.049 81.4374 102.123 81.0627 102.123 80.6843C102.123 80.3059 102.049 79.9312 101.904 79.5816C101.76 79.232 101.548 78.9143 101.281 78.6467C101.014 78.3792 100.696 78.1669 100.347 78.0221C99.9984 77.8773 99.6244 77.8027 99.2466 77.8027C98.8688 77.8027 98.4947 77.8773 98.1457 78.0221C97.7967 78.1669 97.4796 78.3792 97.2124 78.6467C96.9453 78.9143 96.7334 79.232 96.5889 79.5816C96.4443 79.9312 96.3699 80.3059 96.3699 80.6843Z" fill="white"/>
<path d="M89.1961 138.316C88.8445 138.316 88.5076 138.201 88.2293 137.959C87.6288 137.43 87.5702 136.531 88.1121 135.945L105.807 116.526L123.531 121.438L151.61 102.547C152.27 102.104 153.192 102.261 153.647 102.904C154.101 103.547 153.939 104.446 153.28 104.889L124.043 124.537L106.759 119.753L90.28 137.83C90.0017 138.144 89.5916 138.316 89.1961 138.316Z" fill="white"/>
<path d="M124.506 136.875L105.815 111.952L88.2765 119.389C87.5504 119.69 86.7105 119.36 86.4116 118.628C86.1126 117.896 86.4401 117.048 87.1661 116.747L106.74 108.435L124.392 131.994L148.436 97.1504C148.892 96.5043 149.774 96.3321 150.415 96.7915C151.055 97.2509 151.226 98.141 150.771 98.787L124.506 136.875Z" fill="#FF1D53"/>
<path d="M23 36.5L23 9L3 9" stroke="#3FCAB5" stroke-width="2" stroke-linecap="round" stroke-dasharray="4 4"/>
<circle cx="9" cy="9" r="9" fill="#3FCAB5"/>
<circle cx="9" cy="9" r="6" fill="white"/>
<circle cx="8" cy="57" r="1" fill="#FF1D53"/>
</g>
<defs>
<clipPath id="clip0_67_5752">
<rect width="210" height="219" fill="white"/>
</clipPath>
</defs>
</svg>
