<svg width="1920" height="3259" viewBox="0 0 1920 3259" fill="none" xmlns="http://www.w3.org/2000/svg">
<path d="M0 286H1920M0 668H1920M0 1052H1920M0 1435H1920" stroke="#727272" stroke-opacity="0.1" stroke-width="2"/>
<path d="M312 0V3259M651 0V3259M990 0V3259M1330 0V3259M1670 0V3259M39 0V3259" stroke="#727272" stroke-opacity="0.1" stroke-width="2"/>
<path d="M6 240H13V247.89H6V240Z" fill="#727272" fill-opacity="0.1"/>
<path d="M6 325.664H13V333.554H6V325.664Z" fill="#727272" fill-opacity="0.1"/>
<path d="M6 623.233H13V631.124H6V623.233Z" fill="#727272" fill-opacity="0.1"/>
<path d="M6 705.516H13V713.406H6V705.516Z" fill="#727272" fill-opacity="0.1"/>
<path d="M6 1004.21H13V1012.1H6V1004.21Z" fill="#727272" fill-opacity="0.1"/>
<path d="M6 1087.62H13V1095.51H6V1087.62Z" fill="#727272" fill-opacity="0.1"/>
<path d="M6 1389.7H13V1397.59H6V1389.7Z" fill="#727272" fill-opacity="0.1"/>
<path d="M6 1473.11H13V1481H6V1473.11Z" fill="#727272" fill-opacity="0.1"/>
<path d="M271 240H278V247.89H271V240Z" fill="#727272" fill-opacity="0.1"/>
<path d="M271 325.664H278V333.554H271V325.664Z" fill="#727272" fill-opacity="0.1"/>
<path d="M271 623.233H278V631.124H271V623.233Z" fill="#727272" fill-opacity="0.1"/>
<path d="M271 705.516H278V713.406H271V705.516Z" fill="#727272" fill-opacity="0.1"/>
<path d="M271 1004.21H278V1012.1H271V1004.21Z" fill="#727272" fill-opacity="0.1"/>
<path d="M271 1087.62H278V1095.51H271V1087.62Z" fill="#727272" fill-opacity="0.1"/>
<path d="M271 1389.7H278V1397.59H271V1389.7Z" fill="#727272" fill-opacity="0.1"/>
<path d="M271 1473.11H278V1481H271V1473.11Z" fill="#727272" fill-opacity="0.1"/>
<path d="M346 240H353V247.89H346V240Z" fill="#727272" fill-opacity="0.1"/>
<path d="M346 325.664H353V333.554H346V325.664Z" fill="#727272" fill-opacity="0.1"/>
<path d="M346 623.233H353V631.124H346V623.233Z" fill="#727272" fill-opacity="0.1"/>
<path d="M346 705.516H353V713.406H346V705.516Z" fill="#727272" fill-opacity="0.1"/>
<path d="M346 1004.21H353V1012.1H346V1004.21Z" fill="#727272" fill-opacity="0.1"/>
<path d="M346 1087.62H353V1095.51H346V1087.62Z" fill="#727272" fill-opacity="0.1"/>
<path d="M346 1389.7H353V1397.59H346V1389.7Z" fill="#727272" fill-opacity="0.1"/>
<path d="M346 1473.11H353V1481H346V1473.11Z" fill="#727272" fill-opacity="0.1"/>
<path d="M610 240H617V247.89H610V240Z" fill="#727272" fill-opacity="0.1"/>
<path d="M610 325.664H617V333.554H610V325.664Z" fill="#727272" fill-opacity="0.1"/>
<path d="M610 623.233H617V631.124H610V623.233Z" fill="#727272" fill-opacity="0.1"/>
<path d="M610 705.516H617V713.406H610V705.516Z" fill="#727272" fill-opacity="0.1"/>
<path d="M610 1004.21H617V1012.1H610V1004.21Z" fill="#727272" fill-opacity="0.1"/>
<path d="M610 1087.62H617V1095.51H610V1087.62Z" fill="#727272" fill-opacity="0.1"/>
<path d="M610 1389.7H617V1397.59H610V1389.7Z" fill="#727272" fill-opacity="0.1"/>
<path d="M610 1473.11H617V1481H610V1473.11Z" fill="#727272" fill-opacity="0.1"/>
<path d="M685 240H692V247.89H685V240Z" fill="#727272" fill-opacity="0.1"/>
<path d="M685 325.664H692V333.554H685V325.664Z" fill="#727272" fill-opacity="0.1"/>
<path d="M685 623.233H692V631.124H685V623.233Z" fill="#727272" fill-opacity="0.1"/>
<path d="M685 705.516H692V713.406H685V705.516Z" fill="#727272" fill-opacity="0.1"/>
<path d="M685 1004.21H692V1012.1H685V1004.21Z" fill="#727272" fill-opacity="0.1"/>
<path d="M685 1087.62H692V1095.51H685V1087.62Z" fill="#727272" fill-opacity="0.1"/>
<path d="M685 1389.7H692V1397.59H685V1389.7Z" fill="#727272" fill-opacity="0.1"/>
<path d="M685 1473.11H692V1481H685V1473.11Z" fill="#727272" fill-opacity="0.1"/>
<path d="M949 240H956V247.89H949V240Z" fill="#727272" fill-opacity="0.1"/>
<path d="M949 325.664H956V333.554H949V325.664Z" fill="#727272" fill-opacity="0.1"/>
<path d="M949 623.233H956V631.124H949V623.233Z" fill="#727272" fill-opacity="0.1"/>
<path d="M949 705.516H956V713.406H949V705.516Z" fill="#727272" fill-opacity="0.1"/>
<path d="M949 1004.21H956V1012.1H949V1004.21Z" fill="#727272" fill-opacity="0.1"/>
<path d="M949 1087.62H956V1095.51H949V1087.62Z" fill="#727272" fill-opacity="0.1"/>
<path d="M949 1389.7H956V1397.59H949V1389.7Z" fill="#727272" fill-opacity="0.1"/>
<path d="M949 1473.11H956V1481H949V1473.11Z" fill="#727272" fill-opacity="0.1"/>
<path d="M1024 240H1031V247.89H1024V240Z" fill="#727272" fill-opacity="0.1"/>
<path d="M1024 325.664H1031V333.554H1024V325.664Z" fill="#727272" fill-opacity="0.1"/>
<path d="M1024 623.233H1031V631.124H1024V623.233Z" fill="#727272" fill-opacity="0.1"/>
<path d="M1024 705.516H1031V713.406H1024V705.516Z" fill="#727272" fill-opacity="0.1"/>
<path d="M1024 1004.21H1031V1012.1H1024V1004.21Z" fill="#727272" fill-opacity="0.1"/>
<path d="M1024 1087.62H1031V1095.51H1024V1087.62Z" fill="#727272" fill-opacity="0.1"/>
<path d="M1024 1389.7H1031V1397.59H1024V1389.7Z" fill="#727272" fill-opacity="0.1"/>
<path d="M1024 1473.11H1031V1481H1024V1473.11Z" fill="#727272" fill-opacity="0.1"/>
<path d="M1289 240H1296V247.89H1289V240Z" fill="#727272" fill-opacity="0.1"/>
<path d="M1289 325.664H1296V333.554H1289V325.664Z" fill="#727272" fill-opacity="0.1"/>
<path d="M1289 623.233H1296V631.124H1289V623.233Z" fill="#727272" fill-opacity="0.1"/>
<path d="M1289 705.516H1296V713.406H1289V705.516Z" fill="#727272" fill-opacity="0.1"/>
<path d="M1289 1004.21H1296V1012.1H1289V1004.21Z" fill="#727272" fill-opacity="0.1"/>
<path d="M1289 1087.62H1296V1095.51H1289V1087.62Z" fill="#727272" fill-opacity="0.1"/>
<path d="M1289 1389.7H1296V1397.59H1289V1389.7Z" fill="#727272" fill-opacity="0.1"/>
<path d="M1289 1473.11H1296V1481H1289V1473.11Z" fill="#727272" fill-opacity="0.1"/>
<path d="M1364 240H1371V247.89H1364V240Z" fill="#727272" fill-opacity="0.1"/>
<path d="M1364 325.664H1371V333.554H1364V325.664Z" fill="#727272" fill-opacity="0.1"/>
<path d="M1364 623.233H1371V631.124H1364V623.233Z" fill="#727272" fill-opacity="0.1"/>
<path d="M1364 705.516H1371V713.406H1364V705.516Z" fill="#727272" fill-opacity="0.1"/>
<path d="M1364 1004.21H1371V1012.1H1364V1004.21Z" fill="#727272" fill-opacity="0.1"/>
<path d="M1364 1087.62H1371V1095.51H1364V1087.62Z" fill="#727272" fill-opacity="0.1"/>
<path d="M1364 1389.7H1371V1397.59H1364V1389.7Z" fill="#727272" fill-opacity="0.1"/>
<path d="M1364 1473.11H1371V1481H1364V1473.11Z" fill="#727272" fill-opacity="0.1"/>
<path d="M1626 240H1633V247.89H1626V240Z" fill="#727272" fill-opacity="0.1"/>
<path d="M1626 325.664H1633V333.554H1626V325.664Z" fill="#727272" fill-opacity="0.1"/>
<path d="M1626 623.233H1633V631.124H1626V623.233Z" fill="#727272" fill-opacity="0.1"/>
<path d="M1626 705.516H1633V713.406H1626V705.516Z" fill="#727272" fill-opacity="0.1"/>
<path d="M1626 1004.21H1633V1012.1H1626V1004.21Z" fill="#727272" fill-opacity="0.1"/>
<path d="M1626 1087.62H1633V1095.51H1626V1087.62Z" fill="#727272" fill-opacity="0.1"/>
<path d="M1626 1389.7H1633V1397.59H1626V1389.7Z" fill="#727272" fill-opacity="0.1"/>
<path d="M1626 1473.11H1633V1481H1626V1473.11Z" fill="#727272" fill-opacity="0.1"/>
<path d="M1704 240H1711V247.89H1704V240Z" fill="#727272" fill-opacity="0.1"/>
<path d="M1704 325.664H1711V333.554H1704V325.664Z" fill="#727272" fill-opacity="0.1"/>
<path d="M1704 623.233H1711V631.124H1704V623.233Z" fill="#727272" fill-opacity="0.1"/>
<path d="M1704 705.516H1711V713.406H1704V705.516Z" fill="#727272" fill-opacity="0.1"/>
<path d="M1704 1004.21H1711V1012.1H1704V1004.21Z" fill="#727272" fill-opacity="0.1"/>
<path d="M1704 1087.62H1711V1095.51H1704V1087.62Z" fill="#727272" fill-opacity="0.1"/>
<path d="M1704 1389.7H1711V1397.59H1704V1389.7Z" fill="#727272" fill-opacity="0.1"/>
<path d="M1704 1473.11H1711V1481H1704V1473.11Z" fill="#727272" fill-opacity="0.1"/>
<path d="M-20 1865H1940M0 2247H1920M0 2631H1920M-16 3014H1920" stroke="#727272" stroke-opacity="0.1" stroke-width="2"/>
<path d="M6 1819H13V1826.89H6V1819Z" fill="#727272" fill-opacity="0.1"/>
<path d="M6 1904.66H13V1912.55H6V1904.66Z" fill="#727272" fill-opacity="0.1"/>
<path d="M6 2202.23H13V2210.12H6V2202.23Z" fill="#727272" fill-opacity="0.1"/>
<path d="M6 2284.52H13V2292.41H6V2284.52Z" fill="#727272" fill-opacity="0.1"/>
<path d="M6 2583.21H13V2591.1H6V2583.21Z" fill="#727272" fill-opacity="0.1"/>
<path d="M6 2666.62H13V2674.51H6V2666.62Z" fill="#727272" fill-opacity="0.1"/>
<path d="M6 2968.7H13V2976.59H6V2968.7Z" fill="#727272" fill-opacity="0.1"/>
<path d="M6 3052.11H13V3060H6V3052.11Z" fill="#727272" fill-opacity="0.1"/>
<path d="M271 1819H278V1826.89H271V1819Z" fill="#727272" fill-opacity="0.1"/>
<path d="M271 1904.66H278V1912.55H271V1904.66Z" fill="#727272" fill-opacity="0.1"/>
<path d="M271 2202.23H278V2210.12H271V2202.23Z" fill="#727272" fill-opacity="0.1"/>
<path d="M271 2284.52H278V2292.41H271V2284.52Z" fill="#727272" fill-opacity="0.1"/>
<path d="M271 2583.21H278V2591.1H271V2583.21Z" fill="#727272" fill-opacity="0.1"/>
<path d="M271 2666.62H278V2674.51H271V2666.62Z" fill="#727272" fill-opacity="0.1"/>
<path d="M271 2968.7H278V2976.59H271V2968.7Z" fill="#727272" fill-opacity="0.1"/>
<path d="M271 3052.11H278V3060H271V3052.11Z" fill="#727272" fill-opacity="0.1"/>
<path d="M346 1819H353V1826.89H346V1819Z" fill="#727272" fill-opacity="0.1"/>
<path d="M346 1904.66H353V1912.55H346V1904.66Z" fill="#727272" fill-opacity="0.1"/>
<path d="M346 2202.23H353V2210.12H346V2202.23Z" fill="#727272" fill-opacity="0.1"/>
<path d="M346 2284.52H353V2292.41H346V2284.52Z" fill="#727272" fill-opacity="0.1"/>
<path d="M346 2583.21H353V2591.1H346V2583.21Z" fill="#727272" fill-opacity="0.1"/>
<path d="M346 2666.62H353V2674.51H346V2666.62Z" fill="#727272" fill-opacity="0.1"/>
<path d="M610 1819H617V1826.89H610V1819Z" fill="#727272" fill-opacity="0.1"/>
<path d="M610 1904.66H617V1912.55H610V1904.66Z" fill="#727272" fill-opacity="0.1"/>
<path d="M610 2202.23H617V2210.12H610V2202.23Z" fill="#727272" fill-opacity="0.1"/>
<path d="M610 2284.52H617V2292.41H610V2284.52Z" fill="#727272" fill-opacity="0.1"/>
<path d="M610 2583.21H617V2591.1H610V2583.21Z" fill="#727272" fill-opacity="0.1"/>
<path d="M610 2666.62H617V2674.51H610V2666.62Z" fill="#727272" fill-opacity="0.1"/>
<path d="M610 2968.7H617V2976.59H610V2968.7Z" fill="#727272" fill-opacity="0.1"/>
<path d="M610 3052.11H617V3060H610V3052.11Z" fill="#727272" fill-opacity="0.1"/>
<path d="M685 1819H692V1826.89H685V1819Z" fill="#727272" fill-opacity="0.1"/>
<path d="M685 1904.66H692V1912.55H685V1904.66Z" fill="#727272" fill-opacity="0.1"/>
<path d="M685 2202.23H692V2210.12H685V2202.23Z" fill="#727272" fill-opacity="0.1"/>
<path d="M685 2284.52H692V2292.41H685V2284.52Z" fill="#727272" fill-opacity="0.1"/>
<path d="M685 2583.21H692V2591.1H685V2583.21Z" fill="#727272" fill-opacity="0.1"/>
<path d="M685 2666.62H692V2674.51H685V2666.62Z" fill="#727272" fill-opacity="0.1"/>
<path d="M685 2968.7H692V2976.59H685V2968.7Z" fill="#727272" fill-opacity="0.1"/>
<path d="M685 3052.11H692V3060H685V3052.11Z" fill="#727272" fill-opacity="0.1"/>
<path d="M949 1819H956V1826.89H949V1819Z" fill="#727272" fill-opacity="0.1"/>
<path d="M949 1904.66H956V1912.55H949V1904.66Z" fill="#727272" fill-opacity="0.1"/>
<path d="M949 2202.23H956V2210.12H949V2202.23Z" fill="#727272" fill-opacity="0.1"/>
<path d="M949 2284.52H956V2292.41H949V2284.52Z" fill="#727272" fill-opacity="0.1"/>
<path d="M949 2583.21H956V2591.1H949V2583.21Z" fill="#727272" fill-opacity="0.1"/>
<path d="M949 2666.62H956V2674.51H949V2666.62Z" fill="#727272" fill-opacity="0.1"/>
<path d="M949 2968.7H956V2976.59H949V2968.7Z" fill="#727272" fill-opacity="0.1"/>
<path d="M949 3052.11H956V3060H949V3052.11Z" fill="#727272" fill-opacity="0.1"/>
<path d="M1024 1819H1031V1826.89H1024V1819Z" fill="#727272" fill-opacity="0.1"/>
<path d="M1024 1904.66H1031V1912.55H1024V1904.66Z" fill="#727272" fill-opacity="0.1"/>
<path d="M1024 2202.23H1031V2210.12H1024V2202.23Z" fill="#727272" fill-opacity="0.1"/>
<path d="M1024 2284.52H1031V2292.41H1024V2284.52Z" fill="#727272" fill-opacity="0.1"/>
<path d="M1024 2583.21H1031V2591.1H1024V2583.21Z" fill="#727272" fill-opacity="0.1"/>
<path d="M1024 2666.62H1031V2674.51H1024V2666.62Z" fill="#727272" fill-opacity="0.1"/>
<path d="M1024 2968.7H1031V2976.59H1024V2968.7Z" fill="#727272" fill-opacity="0.1"/>
<path d="M1024 3052.11H1031V3060H1024V3052.11Z" fill="#727272" fill-opacity="0.1"/>
<path d="M1289 1819H1296V1826.89H1289V1819Z" fill="#727272" fill-opacity="0.1"/>
<path d="M1289 1904.66H1296V1912.55H1289V1904.66Z" fill="#727272" fill-opacity="0.1"/>
<path d="M1289 2202.23H1296V2210.12H1289V2202.23Z" fill="#727272" fill-opacity="0.1"/>
<path d="M1289 2284.52H1296V2292.41H1289V2284.52Z" fill="#727272" fill-opacity="0.1"/>
<path d="M1289 2583.21H1296V2591.1H1289V2583.21Z" fill="#727272" fill-opacity="0.1"/>
<path d="M1289 2666.62H1296V2674.51H1289V2666.62Z" fill="#727272" fill-opacity="0.1"/>
<path d="M1289 2968.7H1296V2976.59H1289V2968.7Z" fill="#727272" fill-opacity="0.1"/>
<path d="M1289 3052.11H1296V3060H1289V3052.11Z" fill="#727272" fill-opacity="0.1"/>
<path d="M1364 1819H1371V1826.89H1364V1819Z" fill="#727272" fill-opacity="0.1"/>
<path d="M1364 1904.66H1371V1912.55H1364V1904.66Z" fill="#727272" fill-opacity="0.1"/>
<path d="M1364 2202.23H1371V2210.12H1364V2202.23Z" fill="#727272" fill-opacity="0.1"/>
<path d="M1364 2284.52H1371V2292.41H1364V2284.52Z" fill="#727272" fill-opacity="0.1"/>
<path d="M1364 2583.21H1371V2591.1H1364V2583.21Z" fill="#727272" fill-opacity="0.1"/>
<path d="M1364 2666.62H1371V2674.51H1364V2666.62Z" fill="#727272" fill-opacity="0.1"/>
<path d="M1364 2968.7H1371V2976.59H1364V2968.7Z" fill="#727272" fill-opacity="0.1"/>
<path d="M1364 3052.11H1371V3060H1364V3052.11Z" fill="#727272" fill-opacity="0.1"/>
<path d="M1626 1819H1633V1826.89H1626V1819Z" fill="#727272" fill-opacity="0.1"/>
<path d="M1626 1904.66H1633V1912.55H1626V1904.66Z" fill="#727272" fill-opacity="0.1"/>
<path d="M1626 2202.23H1633V2210.12H1626V2202.23Z" fill="#727272" fill-opacity="0.1"/>
<path d="M1626 2284.52H1633V2292.41H1626V2284.52Z" fill="#727272" fill-opacity="0.1"/>
<path d="M1626 2583.21H1633V2591.1H1626V2583.21Z" fill="#727272" fill-opacity="0.1"/>
<path d="M1626 2666.62H1633V2674.51H1626V2666.62Z" fill="#727272" fill-opacity="0.1"/>
<path d="M1626 2968.7H1633V2976.59H1626V2968.7Z" fill="#727272" fill-opacity="0.1"/>
<path d="M1626 3052.11H1633V3060H1626V3052.11Z" fill="#727272" fill-opacity="0.1"/>
<path d="M1704 1819H1711V1826.89H1704V1819Z" fill="#727272" fill-opacity="0.1"/>
<path d="M1704 1904.66H1711V1912.55H1704V1904.66Z" fill="#727272" fill-opacity="0.1"/>
<path d="M1704 2202.23H1711V2210.12H1704V2202.23Z" fill="#727272" fill-opacity="0.1"/>
<path d="M1704 2284.52H1711V2292.41H1704V2284.52Z" fill="#727272" fill-opacity="0.1"/>
<path d="M1704 2583.21H1711V2591.1H1704V2583.21Z" fill="#727272" fill-opacity="0.1"/>
<path d="M1704 2666.62H1711V2674.51H1704V2666.62Z" fill="#727272" fill-opacity="0.1"/>
<path d="M1704 2968.7H1711V2976.59H1704V2968.7Z" fill="#727272" fill-opacity="0.1"/>
<path d="M1704 3052.11H1711V3060H1704V3052.11Z" fill="#727272" fill-opacity="0.1"/>
</svg>
