<svg width="369" height="328" viewBox="0 0 369 328" fill="none" xmlns="http://www.w3.org/2000/svg">
<path d="M3.37044 161.27V149.591C6.53023 149.732 9.1985 149.626 11.3752 149.276C13.552 148.925 15.2723 148.223 16.5362 147.171C17.8704 146.189 18.713 144.821 19.0641 143.068C19.4151 141.314 19.3098 139.14 18.7481 136.544L0 60.1574H16.2203L23.4878 95.5101L27.1742 119.184L30.018 95.4048L36.2322 60.1574H52.5578L35.3896 138.859C34.6172 142.647 33.7395 145.839 32.7565 148.434C31.7734 151.099 30.5446 153.309 29.0701 155.062C27.5955 156.816 25.7347 158.149 23.4878 159.061C21.2408 160.043 18.4672 160.674 15.167 160.955C11.8668 161.305 7.93458 161.411 3.37044 161.27Z" fill="white"/>
<path d="M81.2304 146.856C75.613 146.856 71.1191 145.803 67.7487 143.699C64.3782 141.525 61.9557 138.508 60.4812 134.651C59.0768 130.722 58.3746 126.233 58.3746 121.183V118.132H74.7002C74.7002 118.342 74.7002 118.798 74.7002 119.499C74.7002 120.131 74.7002 120.727 74.7002 121.288C74.7002 125.427 75.1566 128.443 76.0695 130.337C77.0525 132.231 78.8782 133.178 81.5464 133.178C83.3721 133.178 84.7413 132.722 85.6541 131.81C86.6372 130.828 87.3043 129.46 87.6553 127.706C88.0064 125.883 88.182 123.638 88.182 120.972C88.182 116.694 87.4798 113.362 86.0755 110.977C84.6711 108.592 81.7922 107.329 77.4387 107.189C77.3685 107.119 77.0525 107.084 76.4908 107.084C75.9992 107.084 75.4375 107.084 74.8055 107.084C74.1736 107.084 73.5767 107.084 73.015 107.084V96.1414C73.5065 96.1414 73.9629 96.1414 74.3842 96.1414C74.8758 96.1414 75.3322 96.1414 75.7535 96.1414C76.245 96.1414 76.7014 96.1414 77.1227 96.1414C81.4762 96.0011 84.3902 94.8086 85.8648 92.564C87.4096 90.3194 88.182 87.0577 88.182 82.7789C88.182 79.3418 87.6202 76.6763 86.4968 74.7825C85.3733 72.8886 83.4423 71.9416 80.7038 71.9416C78.1058 71.9416 76.2801 72.9236 75.2268 74.8877C74.2438 76.8517 73.6821 79.447 73.5416 82.6737C73.5416 82.8841 73.5416 83.4453 73.5416 84.3571C73.5416 85.269 73.5416 86.1458 73.5416 86.9875H57.216V82.358C57.216 77.3778 58.164 73.1691 60.0599 69.7321C62.0259 66.2249 64.7644 63.5594 68.2753 61.7356C71.7862 59.9119 75.929 59 80.7038 59C85.6893 59 89.9023 59.8768 93.343 61.6304C96.8538 63.384 99.5221 65.9443 101.348 69.3112C103.244 72.6781 104.192 76.8517 104.192 81.8319C104.192 86.8122 103.138 90.9858 101.032 94.3527C98.9955 97.7196 96.4325 99.8239 93.343 100.666C95.4495 101.437 97.3103 102.63 98.9253 104.243C100.54 105.786 101.804 107.891 102.717 110.556C103.7 113.221 104.192 116.553 104.192 120.552C104.192 125.742 103.419 130.337 101.874 134.335C100.4 138.263 97.9773 141.349 94.6069 143.594C91.3067 145.768 86.8478 146.856 81.2304 146.856Z" fill="white"/>
<path d="M114.79 145.383V60.1574H132.169V95.1944H147.231V60.1574H164.609V145.383H147.231V107.61H132.169V145.383H114.79Z" fill="white"/>
<path d="M173.521 145.383L190.057 60.1574H209.332L225.763 145.383H209.648L206.593 126.654H193.112L189.847 145.383H173.521ZM194.692 116.027H204.908L199.747 81.6215L194.692 116.027Z" fill="white"/>
<path d="M240.768 145.383V73.099H227.602V60.1574H271.207V73.099H258.252V145.383H240.768Z" fill="white"/>
<path d="M279.157 145.383V60.1574H296.536V96.0361H300.538C306.085 96.0361 310.755 96.8779 314.546 98.5613C318.338 100.245 321.217 102.91 323.183 106.558C325.149 110.135 326.132 114.835 326.132 120.657C326.132 125.707 325.465 129.846 324.131 133.072C322.867 136.229 321.006 138.719 318.549 140.543C316.161 142.366 313.318 143.629 310.017 144.33C306.787 145.032 303.206 145.383 299.274 145.383H279.157ZM296.536 133.914H299.379C301.977 133.914 304.049 133.458 305.594 132.546C307.209 131.634 308.367 130.196 309.069 128.232C309.772 126.198 310.087 123.568 310.017 120.341C309.947 116.623 309.175 113.677 307.7 111.503C306.296 109.258 303.452 108.136 299.169 108.136H296.536V133.914Z" fill="white"/>
<path d="M54.3484 237.27C48.099 237.27 43.1487 236.148 39.4974 233.903C35.8461 231.658 33.2129 228.467 31.5979 224.328C30.0531 220.12 29.2807 215.104 29.2807 209.282V177.507C29.2807 171.685 30.0531 166.705 31.5979 162.566C33.2129 158.428 35.8461 155.271 39.4974 153.097C43.1487 150.922 48.099 149.835 54.3484 149.835C60.6679 149.835 65.6534 150.958 69.3047 153.202C73.0262 155.377 75.6594 158.533 77.2042 162.672C78.8192 166.74 79.6267 171.685 79.6267 177.507V209.282C79.6267 215.104 78.8192 220.12 77.2042 224.328C75.6594 228.467 73.0262 231.658 69.3047 233.903C65.6534 236.148 60.6679 237.27 54.3484 237.27ZM54.3484 224.749C56.5953 224.749 58.2454 224.258 59.2987 223.276C60.352 222.224 61.0541 220.856 61.4052 219.173C61.7563 217.419 61.9319 215.56 61.9319 213.596V173.298C61.9319 171.334 61.7563 169.511 61.4052 167.827C61.0541 166.144 60.352 164.811 59.2987 163.829C58.2454 162.777 56.5953 162.251 54.3484 162.251C52.2418 162.251 50.662 162.777 49.6087 163.829C48.5554 164.811 47.8533 166.144 47.5022 167.827C47.1511 169.511 46.9755 171.334 46.9755 173.298V213.596C46.9755 215.56 47.116 217.419 47.3968 219.173C47.7479 220.856 48.4501 222.224 49.5034 223.276C50.5566 224.258 52.1716 224.749 54.3484 224.749Z" fill="white"/>
<path d="M117.773 236.113V150.887H135.152V185.924H150.213V150.887H167.592V236.113H150.213V198.34H135.152V236.113H117.773Z" fill="white"/>
<path d="M176.504 236.113L193.04 150.887H212.315L228.746 236.113H212.631L209.576 217.384H196.095L192.829 236.113H176.504ZM197.674 206.757H207.891L202.73 172.352L197.674 206.757Z" fill="white"/>
<path d="M261.09 237.27C254.77 237.27 249.75 236.078 246.028 233.693C242.377 231.308 239.814 228.011 238.339 223.802C236.865 219.523 236.128 214.578 236.128 208.967V178.349C236.128 172.457 236.865 167.406 238.339 163.198C239.814 158.919 242.377 155.622 246.028 153.307C249.75 150.993 254.77 149.835 261.09 149.835C267.199 149.835 271.974 150.852 275.414 152.887C278.925 154.921 281.383 157.797 282.787 161.514C284.262 165.232 284.999 169.546 284.999 174.456V181.611H268.147V173.614C268.147 171.65 268.041 169.826 267.831 168.143C267.62 166.389 267.023 164.986 266.04 163.934C265.127 162.812 263.512 162.251 261.195 162.251C258.878 162.251 257.193 162.812 256.14 163.934C255.086 165.057 254.419 166.53 254.138 168.353C253.858 170.107 253.717 172.071 253.717 174.245V212.965C253.717 215.35 253.893 217.454 254.244 219.278C254.665 221.032 255.402 222.399 256.456 223.381C257.579 224.293 259.159 224.749 261.195 224.749C263.442 224.749 265.022 224.223 265.935 223.171C266.918 222.049 267.515 220.576 267.725 218.752C268.006 216.928 268.147 214.999 268.147 212.965V204.653H284.999V211.702C284.999 216.683 284.297 221.102 282.892 224.96C281.488 228.747 279.066 231.764 275.625 234.008C272.184 236.183 267.339 237.27 261.09 237.27Z" fill="white"/>
<path d="M4.4237 326.843V241.617H45.6063V254.769H21.8025V277.496H25.489C31.1064 277.496 35.8109 278.338 39.6027 280.021C43.3944 281.705 46.2734 284.37 48.2394 288.018C50.2055 291.595 51.1886 296.295 51.1886 302.117C51.1886 307.167 50.5215 311.306 49.1874 314.532C47.9235 317.689 46.0978 320.179 43.7104 322.003C41.323 323.826 38.4792 325.089 35.179 325.79C31.8788 326.492 28.2626 326.843 24.3304 326.843H4.4237ZM21.8025 315.374H24.4357C27.0338 315.374 29.1403 314.918 30.7553 314.006C32.3703 313.094 33.4938 311.656 34.1257 309.692C34.8279 307.658 35.1439 305.028 35.0737 301.801C35.0034 298.083 34.2311 295.137 32.7565 292.963C31.2819 290.718 28.4381 289.596 24.2251 289.596H21.8025V315.374Z" fill="white"/>
<path d="M85 328C78.7506 328 73.8003 326.878 70.149 324.633C66.4977 322.388 63.8645 319.197 62.2495 315.058C60.7047 310.85 59.9323 305.834 59.9323 300.012V268.237C59.9323 262.415 60.7047 257.435 62.2495 253.296C63.8645 249.158 66.4977 246.001 70.149 243.827C73.8003 241.652 78.7506 240.565 85 240.565C91.3195 240.565 96.305 241.688 99.9563 243.932C103.678 246.107 106.311 249.263 107.856 253.402C109.471 257.47 110.278 262.415 110.278 268.237V300.012C110.278 305.834 109.471 310.85 107.856 315.058C106.311 319.197 103.678 322.388 99.9563 324.633C96.305 326.878 91.3195 328 85 328ZM85 315.479C87.2469 315.479 88.897 314.988 89.9503 314.006C91.0036 312.954 91.7057 311.586 92.0568 309.903C92.4079 308.149 92.5835 306.29 92.5835 304.326V264.028C92.5835 262.064 92.4079 260.241 92.0568 258.557C91.7057 256.874 91.0036 255.541 89.9503 254.559C88.897 253.507 87.2469 252.981 85 252.981C82.8934 252.981 81.3136 253.507 80.2603 254.559C79.207 255.541 78.5049 256.874 78.1538 258.557C77.8027 260.241 77.6271 262.064 77.6271 264.028V304.326C77.6271 306.29 77.7676 308.149 78.0484 309.903C78.3995 311.586 79.1017 312.954 80.155 314.006C81.2082 314.988 82.8232 315.479 85 315.479Z" fill="white"/>
<path d="M116.089 326.843V314.532C118.266 314.532 120.057 314.392 121.461 314.111C122.936 313.761 124.094 313.024 124.937 311.902C125.85 310.709 126.587 308.921 127.149 306.536C127.71 304.081 128.167 300.819 128.518 296.751C128.939 292.682 129.36 287.527 129.782 281.284L132.626 241.617H176.125V326.843H158.852V254.875H148.214L146.423 284.02C146.002 290.753 145.51 296.61 144.949 301.591C144.457 306.501 143.65 310.639 142.526 314.006C141.473 317.373 139.893 320.074 137.787 322.108C135.75 324.072 132.977 325.44 129.466 326.211C125.955 326.913 121.496 327.123 116.089 326.843Z" fill="white"/>
<path d="M189.465 326.843V241.617H206.844V277.496H210.846C216.393 277.496 221.063 278.338 224.854 280.021C228.646 281.705 231.525 284.37 233.491 288.018C235.457 291.595 236.44 296.295 236.44 302.117C236.44 307.167 235.773 311.306 234.439 314.532C233.175 317.689 231.314 320.179 228.857 322.003C226.469 323.826 223.626 325.089 220.325 325.79C217.095 326.492 213.514 326.843 209.582 326.843H189.465ZM206.844 315.374H209.687C212.285 315.374 214.357 314.918 215.902 314.006C217.517 313.094 218.675 311.656 219.377 309.692C220.08 307.658 220.396 305.028 220.325 301.801C220.255 298.083 219.483 295.137 218.008 292.963C216.604 290.718 213.76 289.596 209.477 289.596H206.844V315.374Z" fill="white"/>
<path d="M246.654 326.843V241.617H263.19V314.427H274.67V241.617H291.101V314.427H302.161V241.617H318.592V326.843H246.654Z" fill="white"/>
<path d="M331.609 326.843V241.617H368.789V253.612H348.988V276.234H364.26V288.333H348.988V315.058H369V326.843H331.609Z" fill="white"/>
<path d="M326.042 72.4171C332.005 70.8194 337.401 67.584 341.62 63.0773C345.839 58.5706 348.711 52.9726 349.912 46.9175C351.113 40.8623 350.594 34.5919 348.415 28.8162C346.236 23.0406 342.483 17.9906 337.581 14.2381C332.679 10.4856 326.825 8.1806 320.681 7.5841C314.537 6.98759 308.348 8.12343 302.816 10.863C297.284 13.6025 292.63 17.8363 289.38 23.0849C286.131 28.3335 284.416 34.3871 284.429 40.5602L317.486 40.4865L326.042 72.4171Z" fill="white"/>
</svg>
