<?xml version="1.0" encoding="utf-8"?>
<!-- Generator: Adobe Illustrator 19.0.1, SVG Export Plug-In . SVG Version: 6.00 Build 0)  -->
<svg version="1.1" id="Слой_1" xmlns="http://www.w3.org/2000/svg" xmlns:xlink="http://www.w3.org/1999/xlink" x="0px" y="0px"
	 viewBox="0 0 2000 585" style="enable-background:new 0 0 2000 585;" xml:space="preserve">
<style type="text/css">
	.st0{fill:#98FAEA;}
	.st1{fill:#EB4D3D;}
</style>
<g>
	<rect class="st0" width="2000" height="585"/>
	<g>
		<g>
			<rect x="103.6913834" y="430.5106812" class="st1" width="9.2636023" height="7.6665587"/>
		</g>
		<g>
			<rect x="116.7087173" y="430.5106812" class="st1" width="9.2636023" height="7.6665587"/>
		</g>
		<g>
			<rect x="129.7255859" y="430.5106812" class="st1" width="9.2640705" height="7.6665587"/>
		</g>
		<g>
			<rect x="142.7429199" y="430.5106812" class="st1" width="9.2636023" height="7.6665587"/>
		</g>
		<g>
			<rect x="155.7602539" y="430.5106812" class="st1" width="9.2636023" height="7.6665587"/>
		</g>
		<g>
			<rect x="168.7771149" y="430.5106812" class="st1" width="9.2640705" height="7.6665587"/>
		</g>
		<g>
			<rect x="181.7944489" y="430.5106812" class="st1" width="9.2636023" height="7.6665587"/>
		</g>
		<g>
			<rect x="194.8117828" y="430.5106812" class="st1" width="9.2636023" height="7.6665587"/>
		</g>
		<g>
			<rect x="207.8286438" y="430.5106812" class="st1" width="9.2640705" height="7.6665587"/>
		</g>
		<g>
			<rect x="220.8459778" y="430.5106812" class="st1" width="9.2636023" height="7.6665587"/>
		</g>
		<g>
			<rect x="233.8633118" y="430.5106812" class="st1" width="9.2636023" height="7.6665587"/>
		</g>
		<g>
			<rect x="246.880188" y="430.5106812" class="st1" width="9.2640705" height="7.6665587"/>
		</g>
		<g>
			<rect x="259.897522" y="430.5106812" class="st1" width="9.2636023" height="7.6665587"/>
		</g>
		<g>
			<rect x="272.914856" y="430.5106812" class="st1" width="9.2636023" height="7.6665587"/>
		</g>
		<g>
			<rect x="285.9317017" y="430.5106812" class="st1" width="9.2640705" height="7.6665587"/>
		</g>
		<g>
			<rect x="298.9490356" y="430.5106812" class="st1" width="9.2636023" height="7.6665587"/>
		</g>
		<g>
			<rect x="311.9663696" y="430.5106812" class="st1" width="9.2636023" height="7.6665587"/>
		</g>
		<g>
			<rect x="324.9832458" y="430.5106812" class="st1" width="9.2640705" height="7.6665587"/>
		</g>
		<g>
			<rect x="338.0005798" y="430.5106812" class="st1" width="9.2636023" height="7.6665587"/>
		</g>
		<g>
			<rect x="351.0179138" y="430.5106812" class="st1" width="9.2636023" height="7.6665587"/>
		</g>
		<g>
			<rect x="364.03479" y="430.5106812" class="st1" width="9.2640705" height="7.6665587"/>
		</g>
		<g>
			<rect x="377.052124" y="430.5106812" class="st1" width="9.2636023" height="7.6665587"/>
		</g>
		<g>
			<rect x="390.069458" y="430.5106812" class="st1" width="9.2636023" height="7.6665587"/>
		</g>
		<g>
			<rect x="403.0863037" y="430.5106812" class="st1" width="9.2640705" height="7.6665587"/>
		</g>
		<g>
			<rect x="416.1036377" y="430.5106812" class="st1" width="9.2636023" height="7.6665587"/>
		</g>
		<g>
			<rect x="429.1209717" y="430.5106812" class="st1" width="9.2636023" height="7.6665587"/>
		</g>
		<g>
			<rect x="442.1378479" y="430.5106812" class="st1" width="9.2640705" height="7.6665587"/>
		</g>
		<g>
			<rect x="455.1551819" y="430.5106812" class="st1" width="9.2636023" height="7.6665587"/>
		</g>
		<g>
			<rect x="468.1725159" y="430.5106812" class="st1" width="9.2636023" height="7.6665587"/>
		</g>
		<g>
			<rect x="481.1893616" y="430.5106812" class="st1" width="9.2640705" height="7.6665587"/>
		</g>
		<g>
			<rect x="494.2066956" y="430.5106812" class="st1" width="9.2636023" height="7.6665587"/>
		</g>
		<g>
			<rect x="507.2240295" y="430.5106812" class="st1" width="9.2636023" height="7.6665587"/>
		</g>
		<g>
			<rect x="520.2409058" y="430.5106812" class="st1" width="9.2640705" height="7.6665587"/>
		</g>
		<g>
			<rect x="533.2582397" y="430.5106812" class="st1" width="9.2636023" height="7.6665587"/>
		</g>
		<g>
			<rect x="546.2755737" y="430.5106812" class="st1" width="9.2636023" height="7.6665587"/>
		</g>
		<g>
			<rect x="559.2924194" y="430.5106812" class="st1" width="9.2640705" height="7.6665587"/>
		</g>
		<g>
			<rect x="572.3097534" y="430.5106812" class="st1" width="9.2636023" height="7.6665587"/>
		</g>
		<g>
			<rect x="585.3270874" y="430.5106812" class="st1" width="9.2636023" height="7.6665587"/>
		</g>
		<g>
			<rect x="598.3439941" y="430.5106812" class="st1" width="9.2640705" height="7.6665587"/>
		</g>
		<g>
			<rect x="611.3613281" y="430.5106812" class="st1" width="9.2636023" height="7.6665587"/>
		</g>
		<g>
			<rect x="624.3786621" y="430.5106812" class="st1" width="9.2636023" height="7.6665587"/>
		</g>
		<g>
			<rect x="637.3955078" y="430.5106812" class="st1" width="9.2640705" height="7.6665587"/>
		</g>
		<g>
			<rect x="650.4128418" y="430.5106812" class="st1" width="9.2636023" height="7.6665587"/>
		</g>
		<g>
			<rect x="663.4301758" y="430.5106812" class="st1" width="9.2636023" height="7.6665587"/>
		</g>
		<g>
			<rect x="676.4470215" y="430.5106812" class="st1" width="9.2640705" height="7.6665587"/>
		</g>
		<g>
			<rect x="689.4643555" y="430.5106812" class="st1" width="9.2636023" height="7.6665587"/>
		</g>
		<g>
			<rect x="702.4816895" y="430.5106812" class="st1" width="9.2636023" height="7.6665587"/>
		</g>
		<g>
			<rect x="715.4985962" y="430.5106812" class="st1" width="9.2640705" height="7.6665587"/>
		</g>
		<g>
			<rect x="728.5159302" y="430.5106812" class="st1" width="9.2636023" height="7.6665587"/>
		</g>
		<g>
			<rect x="741.5332642" y="430.5106812" class="st1" width="9.2636023" height="7.6665587"/>
		</g>
		<g>
			<rect x="754.5501099" y="430.5106812" class="st1" width="9.2640705" height="7.6665587"/>
		</g>
		<g>
			<rect x="767.5674438" y="430.5106812" class="st1" width="9.2636023" height="7.6665587"/>
		</g>
		<g>
			<rect x="780.5847778" y="430.5106812" class="st1" width="9.2636023" height="7.6665587"/>
		</g>
		<g>
			<rect x="793.6016235" y="430.5106812" class="st1" width="9.2640705" height="7.6665587"/>
		</g>
		<g>
			<rect x="806.6189575" y="430.5106812" class="st1" width="9.2636023" height="7.6665587"/>
		</g>
		<g>
			<rect x="819.6362915" y="430.5106812" class="st1" width="9.2636023" height="7.6665587"/>
		</g>
		<g>
			<rect x="832.6531982" y="430.5106812" class="st1" width="9.2640705" height="7.6665587"/>
		</g>
		<g>
			<rect x="845.6704712" y="430.5106812" class="st1" width="9.2636023" height="7.6665587"/>
		</g>
		<g>
			<rect x="858.6878052" y="430.5106812" class="st1" width="9.2636023" height="7.6665587"/>
		</g>
		<g>
			<rect x="871.7047119" y="430.5106812" class="st1" width="9.2640705" height="7.6665587"/>
		</g>
		<g>
			<rect x="884.7220459" y="430.5106812" class="st1" width="9.2636023" height="7.6665587"/>
		</g>
		<g>
			<rect x="897.7393799" y="430.5106812" class="st1" width="9.2636023" height="7.6665587"/>
		</g>
		<g>
			<rect x="910.7562256" y="430.5106812" class="st1" width="9.2640705" height="7.6665587"/>
		</g>
		<g>
			<rect x="923.7735596" y="430.5106812" class="st1" width="9.2636023" height="7.6665587"/>
		</g>
		<g>
			<rect x="936.7908936" y="430.5106812" class="st1" width="9.2636023" height="7.6665587"/>
		</g>
		<g>
			<rect x="949.8077393" y="430.5106812" class="st1" width="9.2640705" height="7.6665587"/>
		</g>
		<g>
			<rect x="962.8250732" y="430.5106812" class="st1" width="9.2636023" height="7.6665587"/>
		</g>
		<g>
			<rect x="975.8424072" y="430.5106812" class="st1" width="9.2636023" height="7.6665587"/>
		</g>
		<g>
			<rect x="988.859314" y="430.5106812" class="st1" width="9.2640705" height="7.6665587"/>
		</g>
		<g>
			<rect x="1001.8761597" y="430.5106812" class="st1" width="9.2640705" height="7.6665587"/>
		</g>
		<g>
			<rect x="1014.8939819" y="430.5106812" class="st1" width="9.263134" height="7.6665587"/>
		</g>
		<g>
			<rect x="1027.9108887" y="430.5106812" class="st1" width="9.2640705" height="7.6665587"/>
		</g>
		<g>
			<rect x="1040.9277344" y="430.5106812" class="st1" width="9.2640705" height="7.6665587"/>
		</g>
		<g>
			<rect x="1053.9455566" y="430.5106812" class="st1" width="9.263134" height="7.6665587"/>
		</g>
		<g>
			<rect x="1066.9624023" y="430.5106812" class="st1" width="9.2640705" height="7.6665587"/>
		</g>
		<g>
			<rect x="1079.979248" y="430.5106812" class="st1" width="9.2640705" height="7.6665587"/>
		</g>
		<g>
			<rect x="1092.9970703" y="430.5106812" class="st1" width="9.263134" height="7.6665587"/>
		</g>
		<g>
			<rect x="1106.013916" y="430.5106812" class="st1" width="9.2640705" height="7.6665587"/>
		</g>
		<g>
			<rect x="1119.0307617" y="430.5106812" class="st1" width="9.2640705" height="7.6665587"/>
		</g>
		<g>
			<rect x="1132.048584" y="430.5106812" class="st1" width="9.263134" height="7.6665587"/>
		</g>
		<g>
			<rect x="1145.0654297" y="430.5106812" class="st1" width="9.2640705" height="7.6665587"/>
		</g>
		<g>
			<rect x="1158.0822754" y="430.5106812" class="st1" width="9.2640705" height="7.6665587"/>
		</g>
		<g>
			<rect x="1171.1000977" y="430.5106812" class="st1" width="9.263134" height="7.6665587"/>
		</g>
		<g>
			<rect x="1184.1169434" y="430.5106812" class="st1" width="9.2640705" height="7.6665587"/>
		</g>
		<g>
			<rect x="1197.1337891" y="430.5106812" class="st1" width="9.2640705" height="7.6665587"/>
		</g>
		<g>
			<rect x="1210.1516113" y="430.5106812" class="st1" width="9.263134" height="7.6665587"/>
		</g>
		<g>
			<rect x="1223.168457" y="430.5106812" class="st1" width="9.2640705" height="7.6665587"/>
		</g>
		<g>
			<rect x="1236.1853027" y="430.5106812" class="st1" width="9.2640705" height="7.6665587"/>
		</g>
		<g>
			<rect x="1249.203125" y="430.5106812" class="st1" width="9.263134" height="7.6665587"/>
		</g>
		<g>
			<rect x="1262.2199707" y="430.5106812" class="st1" width="9.2640705" height="7.6665587"/>
		</g>
		<g>
			<rect x="1275.2369385" y="430.5106812" class="st1" width="9.2640705" height="7.6665587"/>
		</g>
		<g>
			<rect x="1288.2546387" y="430.5106812" class="st1" width="9.263134" height="7.6665587"/>
		</g>
		<g>
			<rect x="1301.2716064" y="430.5106812" class="st1" width="9.2640705" height="7.6665587"/>
		</g>
		<g>
			<rect x="1314.2884521" y="430.5106812" class="st1" width="9.2640705" height="7.6665587"/>
		</g>
		<g>
			<rect x="1327.3062744" y="430.5106812" class="st1" width="9.263134" height="7.6665587"/>
		</g>
		<g>
			<rect x="1340.3231201" y="430.5106812" class="st1" width="9.2640705" height="7.6665587"/>
		</g>
		<g>
			<rect x="1353.3399658" y="430.5106812" class="st1" width="9.2640705" height="7.6665587"/>
		</g>
		<g>
			<rect x="1366.3577881" y="430.5106812" class="st1" width="9.263134" height="7.6665587"/>
		</g>
		<g>
			<rect x="1379.3746338" y="430.5106812" class="st1" width="9.2640705" height="7.6665587"/>
		</g>
		<g>
			<rect x="1392.3914795" y="430.5106812" class="st1" width="9.2640705" height="7.6665587"/>
		</g>
		<g>
			<rect x="1405.4093018" y="430.5106812" class="st1" width="9.263134" height="7.6665587"/>
		</g>
		<g>
			<rect x="1418.4261475" y="430.5106812" class="st1" width="9.2640705" height="7.6665587"/>
		</g>
		<g>
			<rect x="1431.4429932" y="430.5106812" class="st1" width="9.2640705" height="7.6665587"/>
		</g>
		<g>
			<rect x="1444.4608154" y="430.5106812" class="st1" width="9.263134" height="7.6665587"/>
		</g>
		<g>
			<rect x="1457.4776611" y="430.5106812" class="st1" width="9.2640705" height="7.6665587"/>
		</g>
		<g>
			<rect x="1470.4945068" y="430.5106812" class="st1" width="9.2640705" height="7.6665587"/>
		</g>
		<g>
			<rect x="1483.5123291" y="430.5106812" class="st1" width="9.263134" height="7.6665587"/>
		</g>
		<g>
			<rect x="1496.5291748" y="430.5106812" class="st1" width="9.2640705" height="7.6665587"/>
		</g>
		<g>
			<rect x="1509.5461426" y="430.5106812" class="st1" width="9.2640705" height="7.6665587"/>
		</g>
		<g>
			<rect x="1522.5638428" y="430.5106812" class="st1" width="9.263134" height="7.6665587"/>
		</g>
		<g>
			<rect x="1535.5808105" y="430.5106812" class="st1" width="9.2640705" height="7.6665587"/>
		</g>
		<g>
			<rect x="1548.5976563" y="430.5106812" class="st1" width="9.2640705" height="7.6665587"/>
		</g>
		<g>
			<rect x="1561.6154785" y="430.5106812" class="st1" width="9.263134" height="7.6665587"/>
		</g>
		<g>
			<rect x="1574.6323242" y="430.5106812" class="st1" width="9.2640705" height="7.6665587"/>
		</g>
		<g>
			<rect x="1587.6491699" y="430.5106812" class="st1" width="9.2640705" height="7.6665587"/>
		</g>
		<g>
			<rect x="1600.6669922" y="430.5106812" class="st1" width="9.263134" height="7.6665587"/>
		</g>
		<g>
			<rect x="1613.6838379" y="430.5106812" class="st1" width="9.2640705" height="7.6665587"/>
		</g>
		<g>
			<rect x="1626.7006836" y="430.5106812" class="st1" width="9.2640705" height="7.6665587"/>
		</g>
		<g>
			<rect x="1639.7185059" y="430.5106812" class="st1" width="9.263134" height="7.6665587"/>
		</g>
		<g>
			<rect x="1652.7353516" y="430.5106812" class="st1" width="9.2640705" height="7.6665587"/>
		</g>
		<g>
			<rect x="1665.7521973" y="430.5106812" class="st1" width="9.2640705" height="7.6665587"/>
		</g>
		<g>
			<rect x="1678.7700195" y="430.5106812" class="st1" width="9.263134" height="7.6665587"/>
		</g>
		<g>
			<rect x="1691.7868652" y="430.5106812" class="st1" width="9.2640705" height="7.6665587"/>
		</g>
		<g>
			<rect x="1704.8037109" y="430.5106812" class="st1" width="9.2640705" height="7.6665587"/>
		</g>
		<g>
			<rect x="1717.8215332" y="430.5106812" class="st1" width="9.263134" height="7.6665587"/>
		</g>
		<g>
			<rect x="1730.8383789" y="430.5106812" class="st1" width="9.2640705" height="7.6665587"/>
		</g>
		<g>
			<rect x="1743.8552246" y="430.5106812" class="st1" width="9.2640705" height="7.6665587"/>
		</g>
		<g>
			<rect x="1756.8730469" y="430.5106812" class="st1" width="9.263134" height="7.6665587"/>
		</g>
		<g>
			<rect x="1769.8898926" y="430.5106812" class="st1" width="9.2640705" height="7.6665587"/>
		</g>
		<g>
			<rect x="1782.9068604" y="430.5106812" class="st1" width="9.2640705" height="7.6665587"/>
		</g>
		<g>
			<rect x="1795.9245605" y="430.5106812" class="st1" width="9.263134" height="7.6665587"/>
		</g>
		<g>
			<rect x="1808.9415283" y="430.5106812" class="st1" width="9.2640705" height="7.6665587"/>
		</g>
		<g>
			<rect x="1821.958374" y="430.5106812" class="st1" width="9.2640705" height="7.6665587"/>
		</g>
		<g>
			<rect x="1834.9761963" y="430.5106812" class="st1" width="9.263134" height="7.6665587"/>
		</g>
		<g>
			<rect x="1847.993042" y="430.5106812" class="st1" width="9.2640705" height="7.6665587"/>
		</g>
		<g>
			<rect x="1861.0098877" y="430.5106812" class="st1" width="9.2640705" height="7.6665587"/>
		</g>
		<g>
			<rect x="1874.02771" y="430.5106812" class="st1" width="9.263134" height="7.6665587"/>
		</g>
		<g>
			<rect x="1887.0445557" y="430.5106812" class="st1" width="9.2640705" height="7.6665587"/>
		</g>
	</g>
	<g>
		<path d="M1512.6357422,283.0969543c13.4389648-3.9427795,24.5616455-10.8812256,33.1549072-20.7007446
			c10.6097412-12.1179657,15.9901123-26.9251251,15.9901123-44.0097046c0-12.09552-2.5623779-22.5457916-7.6184082-31.0625763
			c-5.0183105-8.4372406-11.1085205-15.0116425-18.1029053-19.5426025
			c-6.9301758-4.4794922-24.5336914-14.3139648-57.0444336-14.3139648c-8.0836182,0-18.4742432-0.5727539-30.9083252-0.5727539
			h-116.8907471l-57.8677979,275.9502563h136.1356201c30.661377,0,53.7381592-1.8146362,68.578125-5.3905334
			c20.9226074-4.9329224,38.0977783-15.6793823,51.0494385-31.9436951
			c12.9468994-16.258667,19.5113525-34.4143372,19.5113525-53.9625549
			C1548.6226807,311.4010925,1536.5289307,293.1237488,1512.6357422,283.0969543z M1467.1137695,359.4378052
			c-8.7546387,11.7288513-21.2546387,17.3592529-58.5186768,17.3592529h-53.5109863l14.8743896-68.2522278h61.6762695
			c1.6888428,0,5.9592285,0,12.0577393,0c19.666626,0,25.5792236,12.9373169,26.7733154,16.3625793
			c1.2871094,3.7153625,1.9404297,8.0960999,1.9404297,13.0196533
			C1472.40625,346.6473999,1471.0439453,354.1723938,1467.1137695,359.4378052z M1479.1240234,246.4922333
			c-2.6619873,4.8000183-6.5045166,8.1957855-11.7509766,10.3828888c-5.5415039,2.3162537-11.1019287,3.9226379-16.5274658,4.774292
			c-5.4605713,0.8614502-12.0537109,1.2984924-19.5946045,1.2984924h-51.5996094l12.5843506-58.3845062h46.3112793
			c5.7752686,0,9.9969482,0.1866913,12.5493164,0.1866913c21.3099365,0,27.0024414,8.6772919,29.0930176,11.8900909
			c1.9703369,3.032196,2.9691162,6.9394073,2.9691162,11.6130829
			C1483.1584473,235.517868,1481.8005371,241.6552429,1479.1240234,246.4922333z"/>
		<polygon points="375.4062195,152.8946075 116.4968719,152.8946075 103.6913834,207.5993195 192.7607117,207.5993195 
			145.6969452,428.8448486 221.0786591,428.8448486 270.4898987,207.5993195 362.600708,207.5993195 		"/>
		<path d="M900.8064575,179.0949249c-21.6691284-21.4143372-52.1769409-32.272171-90.6758423-32.272171
			c-33.0265503,0-61.8600464,8.1312103-85.6994019,24.1676331c-23.9512329,16.1178284-40.3466187,38.670166-48.7314453,67.0304413
			l-1.1036987,3.733139h68.7705688l0.7267456-1.677063c11.5737305-26.7056732,31.8720703-39.687912,62.0542603-39.687912
			c18.012207,0,32.3745728,5.5267181,42.6871338,16.4248047c9.8220215,10.3908386,15.5147095,25.1338959,16.9399414,43.8571625
			h-98.8187256l-11.6418457,52.0487366h104.0822754c-6.036377,19.2890015-15.5889893,35.5401917-28.4274292,48.3521118
			c-13.4904175,13.45578-30.6860352,20.2791443-51.1090698,20.2791443c-18.0909424,0-31.5597534-3.9746094-40.03302-11.8133545
			c-8.4078369-7.7732544-13.0543213-20.2416992-13.81073-37.0600281l-0.1229858-2.7383423h-65.4528809v8.5678101
			c0,29.1314087,10.7332764,52.8722839,31.9003906,70.5637817c20.9657593,17.5351868,49.0715942,26.4258423,83.5362549,26.4258423
			c47.824646,0,86.4827881-16.2661438,114.9005127-48.3464661c28.3703003-32.0269775,42.755249-71.7588806,42.755249-118.0914001
			C933.5327148,230.7679138,922.5220947,200.567276,900.8064575,179.0949249z"/>
		<path d="M1039.9624023,152.8946075l-38.21521,159.7432098c-5.6723022,24.729126-13.5836182,37.5864563-20.8302002,45.8051758
			c-7.104126,8.0530396-25.3413696,14.6143494-45.7298584,9.369812l-2.7750244-0.5568542l-12.5557251,58.5090027
			c0,0,30.1682739,3.079895,42.4769287,3.079895c34.5125122,0,52.4571533-9.8269958,69.9636841-26.4487915
			c17.361084-16.4851685,31.1287842-39.2129517,40.9207764-80.8006592l26.3796387-113.9960785h78.0167236l-49.3664551,221.2455292
			h77.9575195l58.2935791-275.9502563H1039.9624023z"/>
		<path d="M593.7765503,283.0969543c13.4390259-3.9427795,24.5617065-10.8812256,33.1549683-20.7007446
			c10.6098022-12.1179657,15.9901123-26.9251251,15.9901123-44.0097046c0-12.09552-2.5623779-22.5457916-7.6184082-31.0625763
			c-5.0183105-8.4372406-11.1085205-15.0116425-18.1028442-19.5426025
			c-6.9302368-4.4794922-24.5336914-14.3139648-57.0444336-14.3139648c-8.0836792,0-18.4743042-0.5727539-30.9083862-0.5727539
			H412.3568115l-57.8677673,275.9502563h136.1355896c30.6613159,0,53.7381592-1.8146362,68.578125-5.3905334
			c20.9226685-4.9329224,38.0978394-15.6793823,51.0494385-31.9436951
			c12.9469604-16.258667,19.5113525-34.4143372,19.5113525-53.9625549
			C629.7635498,311.4010925,617.6698608,293.1237488,593.7765503,283.0969543z M548.2546387,359.4378052
			C539.5,371.1666565,527,376.7970581,489.7359619,376.7970581h-53.5110474l14.8745117-68.2522278h61.6762085
			c1.6888428,0,5.9592285,0,12.0576782,0c19.666687,0,25.5792236,12.9373169,26.7733765,16.3625793
			c1.2871094,3.7153625,1.9404907,8.0960999,1.9404907,13.0196533
			C553.5471802,346.6473999,552.1848755,354.1723938,548.2546387,359.4378052z M560.2648926,246.4922333
			c-2.6620483,4.8000183-6.5045166,8.1957855-11.7509155,10.3828888c-5.541626,2.3162537-11.1019287,3.9226379-16.5275269,4.774292
			c-5.4605103,0.8614502-12.053772,1.2984924-19.5946655,1.2984924h-51.5995789l12.5843811-58.3845062h46.3112793
			c5.7752686,0,9.9969482,0.1866913,12.5493774,0.1866913c21.3099365,0,27.0024414,8.6772919,29.0930176,11.8900909
			c1.9702759,3.032196,2.9690552,6.9394073,2.9690552,11.6130829
			C564.2993164,235.517868,562.9414673,241.6552429,560.2648926,246.4922333z"/>
		<polygon points="1809.7955322,152.8946075 1666.6811523,333.5687866 1705.144165,152.8946075 1633.7340088,152.8946075 
			1574.6456299,428.8448486 1657.753418,428.8448486 1800.8303223,247.8417358 1761.977417,428.8448486 1833.3931885,428.8448486 
			1892.4816895,152.8946075 		"/>
	</g>
</g>
</svg>
