<svg width="314" height="216" viewBox="0 0 314 216" fill="none" xmlns="http://www.w3.org/2000/svg">
<g clip-path="url(#clip0_61_3966)">
<path d="M183.077 200.434H81.4495C78.0755 200.434 75.3323 203.18 75.3323 206.559C75.3323 209.937 78.0755 212.684 81.4495 212.684H183.077C186.451 212.684 189.194 209.937 189.194 206.559C189.194 203.149 186.451 200.434 183.077 200.434Z" fill="white"/>
<path d="M283.411 191.277V203.591H300.785C298.231 196.424 291.42 191.277 283.411 191.277Z" fill="#FF1D53"/>
<path d="M252.731 161.125V21.9805C252.731 16.8971 248.6 12.7926 243.555 12.7926H20.9714C15.8948 12.7926 11.7957 16.9287 11.7957 21.9805V161.125C11.7957 166.208 15.9263 170.313 20.9714 170.313H243.555C248.632 170.344 252.731 166.208 252.731 161.125ZM238.889 147.864C238.889 152.916 234.758 157.052 229.713 157.052H34.8455C29.8004 157.052 25.6697 152.916 25.6697 147.864V35.2729C25.6697 30.2211 29.8004 26.085 34.8455 26.085H229.713C234.758 26.085 238.889 30.2211 238.889 35.2729V147.864Z" fill="#1B1B1B"/>
<path d="M229.713 26.0851H34.8455C29.8004 26.0851 25.6697 30.2212 25.6697 35.273V147.864C25.6697 152.916 29.8004 157.052 34.8455 157.052H229.713C234.758 157.052 238.888 152.916 238.888 147.864V35.273C238.888 30.2212 234.758 26.0851 229.713 26.0851ZM64.7062 36.2517C64.7062 35.7466 65.1161 35.3677 65.5891 35.3677H84.9181C85.4226 35.3677 85.801 35.7781 85.801 36.2517V41.7771C85.801 42.2823 85.3911 42.6611 84.9181 42.6611H65.5891C65.0846 42.6611 64.7062 42.2507 64.7062 41.7771V36.2517ZM55.152 35.1467C57.2331 35.1467 58.9043 36.8201 58.9043 38.9039C58.9043 40.9877 57.2331 42.6611 55.152 42.6611C53.0709 42.6611 51.3997 40.9877 51.3997 38.9039C51.3997 36.8201 53.1024 35.1467 55.152 35.1467ZM42.8546 35.1467C44.9357 35.1467 46.6069 36.8201 46.6069 38.9039C46.6069 40.9877 44.9357 42.6611 42.8546 42.6611C40.7735 42.6611 39.1023 40.9877 39.1023 38.9039C39.1023 36.8201 40.7735 35.1467 42.8546 35.1467Z" fill="#FF1D53"/>
<path d="M39.1025 38.9038C39.1025 39.9003 39.4979 40.856 40.2016 41.5606C40.9053 42.2652 41.8597 42.6611 42.8548 42.6611C43.85 42.6611 44.8044 42.2652 45.5081 41.5606C46.2118 40.856 46.6071 39.9003 46.6071 38.9038C46.6071 37.9074 46.2118 36.9517 45.5081 36.2471C44.8044 35.5425 43.85 35.1466 42.8548 35.1466C41.8597 35.1466 40.9053 35.5425 40.2016 36.2471C39.4979 36.9517 39.1025 37.9074 39.1025 38.9038Z" fill="#1B1B1B"/>
<path d="M51.3999 38.9038C51.3999 39.9003 51.7952 40.856 52.4989 41.5606C53.2026 42.2652 54.157 42.6611 55.1522 42.6611C56.1474 42.6611 57.1018 42.2652 57.8055 41.5606C58.5092 40.856 58.9045 39.9003 58.9045 38.9038C58.9045 37.9074 58.5092 36.9517 57.8055 36.2471C57.1018 35.5425 56.1474 35.1466 55.1522 35.1466C54.157 35.1466 53.2026 35.5425 52.4989 36.2471C51.7952 36.9517 51.3999 37.9074 51.3999 38.9038Z" fill="#1B1B1B"/>
<path d="M65.5892 42.661H84.9183C85.4228 42.661 85.8012 42.2506 85.8012 41.777V36.2516C85.8012 35.7464 85.3912 35.3676 84.9183 35.3676H65.5892C65.0847 35.3676 64.7063 35.778 64.7063 36.2516V41.777C64.7063 42.2821 65.1162 42.661 65.5892 42.661Z" fill="#1B1B1B"/>
<path d="M283.4 179.06C268.603 179.06 256.231 189.673 253.397 203.708H216.973C213.29 203.708 210.614 202.979 209.669 201.712C209.04 200.857 209.04 199.494 209.04 198.861V182.672H243.638C255.444 182.672 265.014 173.009 265.014 161.16V21.5113C265.014 9.63098 255.412 0 243.638 0H21.3762C9.57048 0 0 9.66266 0 21.5113V161.129C0 173.009 9.60197 182.64 21.3762 182.64H196.793V198.861C196.793 200.381 196.793 204.975 199.91 209.125C203.341 213.687 209.071 216 216.973 216H314V209.854C314 192.873 300.274 179.06 283.4 179.06ZM21.3762 170.38C16.3076 170.38 12.215 166.229 12.215 161.16V21.5113C12.215 16.4107 16.3391 12.2922 21.3762 12.2922H243.607C248.675 12.2922 252.768 16.4424 252.768 21.5113V161.129C252.768 166.229 248.644 170.348 243.607 170.348H21.3762V170.38ZM283.4 203.708H266.053C268.572 196.516 275.403 191.352 283.4 191.352C291.396 191.352 298.228 196.516 300.746 203.708H283.4Z" fill="white"/>
<path d="M134.835 50.3014C109.492 50.3014 88.8679 70.2238 88.8679 94.705C88.8679 114.744 103.044 132.429 122.872 137.589L122.44 126.701C122.44 126.701 105.412 115.496 102.214 109.384C99.0156 103.272 100.917 82.0636 104.98 76.7198C109.042 71.376 116.821 63.4438 126.762 61.6069C136.702 59.7699 147.161 61.6069 155.804 67.3682C164.448 73.1294 168.338 89.8288 168.338 89.8288C168.338 89.8288 175.546 89.4614 180.698 91.9664C179.229 68.7375 159.227 50.3014 134.835 50.3014Z" fill="white"/>
<path d="M163.991 78.8397C158.181 68.5428 147.133 62.137 135.152 62.137C116.981 62.137 102.198 76.6648 102.198 94.5229C102.198 108.796 111.5 121.217 125.349 125.448C125.573 125.516 125.764 125.617 125.919 125.753L164.406 79.3154C164.233 79.1965 164.094 79.0436 163.991 78.8397Z" fill="white"/>
<path d="M167.154 77.8877C160.617 66.3449 148.21 59.1781 134.766 59.1781C114.362 59.1781 97.7546 75.4585 97.7546 95.4602C97.7546 103.351 100.303 110.862 105.101 117.167C109.758 123.266 116.383 127.866 123.747 130.106C123.922 130.157 124.098 130.192 124.274 130.192C125.03 130.192 125.715 129.727 125.943 128.986C126.154 128.297 125.908 127.573 125.381 127.142C125.205 127.005 125.012 126.901 124.801 126.832C110.724 122.543 101.269 109.932 101.269 95.4774C101.269 77.3708 116.295 62.6409 134.766 62.6409C146.927 62.6409 158.157 69.1359 164.079 79.576C164.184 79.7655 164.343 79.9378 164.501 80.0756C165.046 80.5063 165.819 80.5925 166.469 80.2479C167.313 79.7655 167.611 78.7318 167.154 77.8877Z" fill="#3FCAB5"/>
<path d="M124.415 95.4247C124.415 97.9751 125.585 100.421 127.669 102.225C129.752 104.028 132.577 105.041 135.524 105.041C138.47 105.041 141.295 104.028 143.378 102.225C145.462 100.421 146.632 97.9751 146.632 95.4247C146.632 92.8742 145.462 90.4283 143.378 88.6248C141.295 86.8214 138.47 85.8082 135.524 85.8082C132.577 85.8082 129.752 86.8214 127.669 88.6248C125.585 90.4283 124.415 92.8742 124.415 95.4247Z" fill="#1B1B1B"/>
<path d="M105.008 155.342C104.761 155.342 104.514 155.29 104.266 155.151C92.9475 149.191 83.6055 139.929 77.2458 128.373C76.7845 127.539 77.0481 126.479 77.8389 125.993C78.6298 125.506 79.6348 125.784 80.0962 126.618C86.1264 137.583 95.007 146.359 105.733 152.023C106.54 152.458 106.87 153.501 106.474 154.352C106.194 154.995 105.601 155.342 105.008 155.342Z" fill="#1B1B1B"/>
<path d="M186.445 104.975C186.36 104.975 186.293 104.958 186.208 104.958C186.09 104.958 185.972 104.958 185.871 104.975C185.837 104.975 185.786 104.991 185.752 104.991C185.685 105.008 185.617 105.008 185.55 105.025C185.499 105.042 185.449 105.059 185.398 105.059C185.347 105.076 185.28 105.093 185.229 105.109C185.178 105.126 185.111 105.143 185.06 105.177C185.01 105.194 184.976 105.21 184.925 105.227C184.858 105.261 184.807 105.278 184.74 105.312L184.638 105.362C184.571 105.396 184.503 105.446 184.436 105.48C184.419 105.497 184.385 105.514 184.368 105.531L184.166 105.682C184.149 105.699 184.132 105.699 184.115 105.716C184.047 105.767 183.98 105.834 183.912 105.902C183.895 105.902 183.895 105.918 183.879 105.918C183.811 105.986 183.743 106.053 183.676 106.138L183.659 106.154C183.153 106.744 182.849 107.503 182.849 108.329V123.853H176.096L176.011 97.4905C176.011 95.6363 174.509 94.1193 172.652 94.1193C170.795 94.1193 169.292 95.6195 169.292 97.4736V116.774H162.539V84.2923C162.539 82.4382 161.036 80.938 159.179 80.938C157.322 80.938 155.82 82.4382 155.82 84.2923V108.632L149.067 108.649L149.05 104.857V75.8475C149.05 73.9933 147.547 72.4932 145.69 72.4932C144.525 72.4932 143.462 73.0831 142.837 74.0608C142.499 74.6002 142.331 75.207 142.331 75.8475V129.028H135.578V104.233C135.578 102.379 134.075 100.879 132.218 100.879C130.361 100.879 128.858 102.379 128.858 104.233V150.401C128.858 157.211 134.396 162.74 141.216 162.74H177.227C184.047 162.74 189.585 157.211 189.585 150.401V108.312C189.551 106.542 188.184 105.093 186.445 104.975Z" fill="white"/>
<path d="M187.855 97.8237C187.889 96.9849 187.923 96.1289 187.923 95.2729C187.923 81.2862 182.543 68.1383 172.765 58.2432C162.987 48.3481 149.995 42.9041 136.174 42.9041C122.353 42.9041 109.36 48.3481 99.5822 58.2432C89.8042 68.1383 84.4246 81.2862 84.4246 95.2729C84.4246 101.419 85.4734 107.445 87.5204 113.163C89.5166 118.693 92.3925 123.828 96.0973 128.399C102.932 136.856 112.27 142.968 122.606 145.81V150.758C122.606 161.44 131.2 170.137 141.756 170.137H177.84C188.397 170.137 196.991 161.44 196.991 150.758V108.027C196.974 102.72 192.964 98.3373 187.855 97.8237ZM122.606 138.688C104.184 132.782 91.1914 115.166 91.1914 95.29C91.1914 70.1927 111.373 49.769 136.174 49.769C159.299 49.769 178.416 67.5392 180.886 90.2911C179.025 88.1512 176.301 86.7816 173.273 86.7816C172.089 86.7816 170.955 86.987 169.906 87.3637V83.6316C169.906 77.9821 165.356 73.3769 159.773 73.3769C158.572 73.3769 157.405 73.5995 156.322 73.9933C155.798 68.8403 151.467 64.8171 146.239 64.8171C142.738 64.8171 139.54 66.6147 137.663 69.6106C137.629 69.662 137.595 69.7134 137.578 69.7647C137.121 69.7476 136.647 69.7305 136.191 69.7305C122.251 69.7305 110.917 81.2006 110.917 95.3072C110.917 99.7411 112.067 104.124 114.215 107.959C116.246 111.571 119.155 114.652 122.623 116.878V138.688H122.606ZM122.606 103.884V112.684C117.345 108.506 114.283 102.172 114.283 95.29C114.283 83.0666 124.112 73.1373 136.174 73.1373H136.292C136.174 73.7707 136.106 74.4041 136.106 75.0547V94.2115C135.057 93.8349 133.924 93.6294 132.74 93.6294C127.157 93.6294 122.606 98.2346 122.606 103.884ZM190.207 150.775C190.207 157.691 184.658 163.306 177.824 163.306H141.756C134.922 163.306 129.373 157.691 129.373 150.775V103.884C129.373 102.001 130.879 100.477 132.74 100.477C134.601 100.477 136.106 102.001 136.106 103.884V129.067H142.873V75.0547C142.873 74.4041 143.059 73.7878 143.38 73.24C144.006 72.2471 145.072 71.6479 146.239 71.6479C148.1 71.6479 149.606 73.1715 149.606 75.0547V104.518L149.623 108.369L156.39 108.352V83.6316C156.39 81.7484 157.895 80.2248 159.756 80.2248C161.617 80.2248 163.123 81.7484 163.123 83.6316V116.621H169.889V97.0362C169.889 95.1531 171.395 93.6294 173.256 93.6294C175.117 93.6294 176.622 95.1531 176.622 97.0534L176.707 123.828H183.474V108.044V107.941C183.525 106.11 185.013 104.637 186.84 104.637C186.925 104.637 187.01 104.637 187.077 104.654C188.82 104.774 190.207 106.247 190.207 108.044V150.775Z" fill="#1B1B1B"/>
<path d="M152.557 150.904H157.864V158.301H152.557V150.904ZM161.17 150.904H166.477V158.301H161.17V150.904ZM172.429 150.904H177.736V158.301H172.429V150.904Z" fill="#1B1B1B"/>
</g>
<defs>
<clipPath id="clip0_61_3966">
<rect width="314" height="216" fill="white"/>
</clipPath>
</defs>
</svg>
