<svg width="485" height="439" viewBox="0 0 485 439" fill="none" xmlns="http://www.w3.org/2000/svg">
<path d="M5.31395 220.136V204.818C9.45395 205.002 12.95 204.864 15.802 204.404C18.6539 203.944 20.908 203.024 22.5639 201.644C24.312 200.356 25.416 198.562 25.8759 196.262C26.336 193.962 26.198 191.11 25.462 187.706L0.897949 87.518H22.15L31.672 133.886L36.5019 164.936L40.228 133.748L48.3699 87.518H69.76L47.266 190.742C46.254 195.71 45.104 199.896 43.816 203.3C42.528 206.796 40.9179 209.694 38.986 211.994C37.054 214.294 34.616 216.042 31.672 217.238C28.728 218.526 25.0939 219.354 20.7699 219.722C16.4459 220.182 11.294 220.32 5.31395 220.136Z" fill="white"/>
<path d="M107.327 201.23C99.9672 201.23 94.0792 199.85 89.6632 197.09C85.2472 194.238 82.0732 190.282 80.1412 185.222C78.3012 180.07 77.3812 174.182 77.3812 167.558V163.556H98.7712C98.7712 163.832 98.7712 164.43 98.7712 165.35C98.7712 166.178 98.7712 166.96 98.7712 167.696C98.7712 173.124 99.3692 177.08 100.565 179.564C101.853 182.048 104.245 183.29 107.741 183.29C110.133 183.29 111.927 182.692 113.123 181.496C114.411 180.208 115.285 178.414 115.745 176.114C116.205 173.722 116.435 170.778 116.435 167.282C116.435 161.67 115.515 157.3 113.675 154.172C111.835 151.044 108.063 149.388 102.359 149.204C102.267 149.112 101.853 149.066 101.117 149.066C100.473 149.066 99.7372 149.066 98.9092 149.066C98.0812 149.066 97.2992 149.066 96.5632 149.066V134.714C97.2072 134.714 97.8052 134.714 98.3572 134.714C99.0012 134.714 99.5992 134.714 100.151 134.714C100.795 134.714 101.393 134.714 101.945 134.714C107.649 134.53 111.467 132.966 113.399 130.022C115.423 127.078 116.435 122.8 116.435 117.188C116.435 112.68 115.699 109.184 114.227 106.7C112.755 104.216 110.225 102.974 106.637 102.974C103.233 102.974 100.841 104.262 99.4612 106.838C98.1732 109.414 97.4372 112.818 97.2532 117.05C97.2532 117.326 97.2532 118.062 97.2532 119.258C97.2532 120.454 97.2532 121.604 97.2532 122.708H75.8632V116.636C75.8632 110.104 77.1052 104.584 79.5892 100.076C82.1652 95.476 85.7532 91.98 90.3532 89.588C94.9532 87.196 100.381 86 106.637 86C113.169 86 118.689 87.15 123.197 89.45C127.797 91.75 131.293 95.108 133.685 99.524C136.169 103.94 137.411 109.414 137.411 115.946C137.411 122.478 136.031 127.952 133.271 132.368C130.603 136.784 127.245 139.544 123.197 140.648C125.957 141.66 128.395 143.224 130.511 145.34C132.627 147.364 134.283 150.124 135.479 153.62C136.767 157.116 137.411 161.486 137.411 166.73C137.411 173.538 136.399 179.564 134.375 184.808C132.443 189.96 129.269 194.008 124.853 196.952C120.529 199.804 114.687 201.23 107.327 201.23Z" fill="white"/>
<path d="M151.297 199.298V87.518H174.067V133.472H193.801V87.518H216.571V199.298H193.801V149.756H174.067V199.298H151.297Z" fill="white"/>
<path d="M228.248 199.298L249.914 87.518H275.168L296.696 199.298H275.582L271.58 174.734H253.916L249.638 199.298H228.248ZM255.986 160.796H269.372L262.61 115.67L255.986 160.796Z" fill="white"/>
<path d="M316.355 199.298V104.492H299.105V87.518H356.237V104.492H339.263V199.298H316.355Z" fill="white"/>
<path d="M366.653 199.298V87.518H389.423V134.576H394.667C401.935 134.576 408.053 135.68 413.021 137.888C417.989 140.096 421.761 143.592 424.337 148.376C426.913 153.068 428.201 159.232 428.201 166.868C428.201 173.492 427.327 178.92 425.579 183.152C423.923 187.292 421.485 190.558 418.265 192.95C415.137 195.342 411.411 196.998 407.087 197.918C402.855 198.838 398.163 199.298 393.011 199.298H366.653ZM389.423 184.256H393.149C396.553 184.256 399.267 183.658 401.291 182.462C403.407 181.266 404.925 179.38 405.845 176.804C406.765 174.136 407.179 170.686 407.087 166.454C406.995 161.578 405.983 157.714 404.051 154.862C402.211 151.918 398.485 150.446 392.873 150.446H389.423V184.256Z" fill="white"/>
<path d="M72.1059 319.816C63.9179 319.816 57.4319 318.344 52.6479 315.4C47.8639 312.456 44.414 308.27 42.298 302.842C40.274 297.322 39.2619 290.744 39.2619 283.108V241.432C39.2619 233.796 40.274 227.264 42.298 221.836C44.414 216.408 47.8639 212.268 52.6479 209.416C57.4319 206.564 63.9179 205.138 72.1059 205.138C80.3859 205.138 86.9179 206.61 91.702 209.554C96.5779 212.406 100.028 216.546 102.052 221.974C104.168 227.31 105.226 233.796 105.226 241.432V283.108C105.226 290.744 104.168 297.322 102.052 302.842C100.028 308.27 96.5779 312.456 91.702 315.4C86.9179 318.344 80.3859 319.816 72.1059 319.816ZM72.1059 303.394C75.0499 303.394 77.2119 302.75 78.5919 301.462C79.9719 300.082 80.892 298.288 81.352 296.08C81.812 293.78 82.042 291.342 82.042 288.766V235.912C82.042 233.336 81.812 230.944 81.352 228.736C80.892 226.528 79.9719 224.78 78.5919 223.492C77.2119 222.112 75.0499 221.422 72.1059 221.422C69.3459 221.422 67.2759 222.112 65.896 223.492C64.5159 224.78 63.596 226.528 63.136 228.736C62.676 230.944 62.4459 233.336 62.4459 235.912V288.766C62.4459 291.342 62.63 293.78 62.998 296.08C63.458 298.288 64.3779 300.082 65.7579 301.462C67.1379 302.75 69.254 303.394 72.1059 303.394Z" fill="white"/>
<path d="M155.206 318.298V206.518H177.976V252.472H197.71V206.518H220.48V318.298H197.71V268.756H177.976V318.298H155.206Z" fill="white"/>
<path d="M232.156 318.298L253.822 206.518H279.076L300.604 318.298H279.49L275.488 293.734H257.824L253.546 318.298H232.156ZM259.894 279.796H273.28L266.518 234.67L259.894 279.796Z" fill="white"/>
<path d="M342.982 319.816C334.702 319.816 328.124 318.252 323.248 315.124C318.464 311.996 315.106 307.672 313.174 302.152C311.242 296.54 310.276 290.054 310.276 282.694V242.536C310.276 234.808 311.242 228.184 313.174 222.664C315.106 217.052 318.464 212.728 323.248 209.692C328.124 206.656 334.702 205.138 342.982 205.138C350.986 205.138 357.242 206.472 361.75 209.14C366.35 211.808 369.57 215.58 371.41 220.456C373.342 225.332 374.308 230.99 374.308 237.43V246.814H352.228V236.326C352.228 233.75 352.09 231.358 351.814 229.15C351.538 226.85 350.756 225.01 349.468 223.63C348.272 222.158 346.156 221.422 343.12 221.422C340.084 221.422 337.876 222.158 336.496 223.63C335.116 225.102 334.242 227.034 333.874 229.426C333.506 231.726 333.322 234.302 333.322 237.154V287.938C333.322 291.066 333.552 293.826 334.012 296.218C334.564 298.518 335.53 300.312 336.91 301.6C338.382 302.796 340.452 303.394 343.12 303.394C346.064 303.394 348.134 302.704 349.33 301.324C350.618 299.852 351.4 297.92 351.676 295.528C352.044 293.136 352.228 290.606 352.228 287.938V277.036H374.308V286.282C374.308 292.814 373.388 298.61 371.548 303.67C369.708 308.638 366.534 312.594 362.026 315.538C357.518 318.39 351.17 319.816 342.982 319.816Z" fill="white"/>
<path d="M6.69395 437.298V325.518H60.652V342.768H29.464V372.576H34.2939C41.6539 372.576 47.818 373.68 52.7859 375.888C57.754 378.096 61.526 381.592 64.102 386.376C66.6779 391.068 67.966 397.232 67.966 404.868C67.966 411.492 67.092 416.92 65.344 421.152C63.688 425.292 61.296 428.558 58.168 430.95C55.04 433.342 51.3139 434.998 46.99 435.918C42.666 436.838 37.928 437.298 32.7759 437.298H6.69395ZM29.464 422.256H32.914C36.318 422.256 39.0779 421.658 41.194 420.462C43.31 419.266 44.782 417.38 45.61 414.804C46.53 412.136 46.944 408.686 46.8519 404.454C46.7599 399.578 45.748 395.714 43.816 392.862C41.884 389.918 38.158 388.446 32.638 388.446H29.464V422.256Z" fill="white"/>
<path d="M112.266 438.816C104.078 438.816 97.5921 437.344 92.8081 434.4C88.0241 431.456 84.5741 427.27 82.4581 421.842C80.4341 416.322 79.4221 409.744 79.4221 402.108V360.432C79.4221 352.796 80.4341 346.264 82.4581 340.836C84.5741 335.408 88.0241 331.268 92.8081 328.416C97.5921 325.564 104.078 324.138 112.266 324.138C120.546 324.138 127.078 325.61 131.862 328.554C136.738 331.406 140.188 335.546 142.212 340.974C144.328 346.31 145.386 352.796 145.386 360.432V402.108C145.386 409.744 144.328 416.322 142.212 421.842C140.188 427.27 136.738 431.456 131.862 434.4C127.078 437.344 120.546 438.816 112.266 438.816ZM112.266 422.394C115.21 422.394 117.372 421.75 118.752 420.462C120.132 419.082 121.052 417.288 121.512 415.08C121.972 412.78 122.202 410.342 122.202 407.766V354.912C122.202 352.336 121.972 349.944 121.512 347.736C121.052 345.528 120.132 343.78 118.752 342.492C117.372 341.112 115.21 340.422 112.266 340.422C109.506 340.422 107.436 341.112 106.056 342.492C104.676 343.78 103.756 345.528 103.296 347.736C102.836 349.944 102.606 352.336 102.606 354.912V407.766C102.606 410.342 102.79 412.78 103.158 415.08C103.618 417.288 104.538 419.082 105.918 420.462C107.298 421.75 109.414 422.394 112.266 422.394Z" fill="white"/>
<path d="M153 437.298V421.152C155.852 421.152 158.198 420.968 160.038 420.6C161.97 420.14 163.488 419.174 164.592 417.702C165.788 416.138 166.754 413.792 167.49 410.664C168.226 407.444 168.824 403.166 169.284 397.83C169.836 392.494 170.388 385.732 170.94 377.544L174.666 325.518H231.66V437.298H209.028V342.906H195.09L192.744 381.132C192.192 389.964 191.548 397.646 190.812 404.178C190.168 410.618 189.11 416.046 187.638 420.462C186.258 424.878 184.188 428.42 181.428 431.088C178.76 433.664 175.126 435.458 170.526 436.47C165.926 437.39 160.084 437.666 153 437.298Z" fill="white"/>
<path d="M249.137 437.298V325.518H271.907V372.576H277.151C284.419 372.576 290.537 373.68 295.505 375.888C300.473 378.096 304.245 381.592 306.821 386.376C309.397 391.068 310.685 397.232 310.685 404.868C310.685 411.492 309.811 416.92 308.063 421.152C306.407 425.292 303.969 428.558 300.749 430.95C297.621 433.342 293.895 434.998 289.571 435.918C285.339 436.838 280.647 437.298 275.495 437.298H249.137ZM271.907 422.256H275.633C279.037 422.256 281.751 421.658 283.775 420.462C285.891 419.266 287.409 417.38 288.329 414.804C289.249 412.136 289.663 408.686 289.571 404.454C289.479 399.578 288.467 395.714 286.535 392.862C284.695 389.918 280.969 388.446 275.357 388.446H271.907V422.256Z" fill="white"/>
<path d="M324.067 437.298V325.518H345.733V421.014H360.775V325.518H382.303V421.014H396.793V325.518H418.321V437.298H324.067Z" fill="white"/>
<path d="M435.377 437.298V325.518H484.091V341.25H458.147V370.92H478.157V386.79H458.147V421.842H484.367V437.298H435.377Z" fill="white"/>
<path d="M430.178 109.534C439.197 107.117 447.359 102.223 453.74 95.4067C460.121 88.5901 464.466 80.1231 466.282 70.9644C468.099 61.8058 467.314 52.3214 464.018 43.5856C460.722 34.8498 455.045 27.2114 447.631 21.5357C440.217 15.8599 431.362 12.3735 422.069 11.4712C412.776 10.569 403.415 12.287 395.048 16.4307C386.681 20.5743 379.641 26.9781 374.726 34.9168C369.811 42.8554 367.217 52.0118 367.238 61.3488L417.237 61.2372L430.178 109.534Z" fill="white"/>
</svg>
